<?xml version="1.0" standalone="no"?>
<!DOCTYPE svg PUBLIC "-//W3C//DTD SVG 1.1//EN" "http://www.w3.org/Graphics/SVG/1.1/DTD/svg11.dtd" >
<svg xmlns="http://www.w3.org/2000/svg" xmlns:xlink="http://www.w3.org/1999/xlink" version="1.1">
<metadata>
Created by FontForge 20201107 at Wed Feb  6 04:12:15 2013
 By Jimmy Wärting
Copyright (c) 2010 by Svetoslav Simov. All rights reserved.
</metadata>
<defs>
<font id="Nexa-Light" horiz-adv-x="631" >
  <font-face 
    font-family="Nexa-Light"
    font-weight="400"
    font-stretch="normal"
    units-per-em="1000"
    panose-1="2 0 0 0 0 0 0 0 0 0"
    ascent="705"
    descent="-295"
    x-height="494"
    cap-height="700"
    bbox="-139 -297 1058 932"
    underline-thickness="50"
    underline-position="-100"
    unicode-range="U+0020-FB02"
  />
<missing-glyph horiz-adv-x="645" 
d="M37 0v700h538v-700h-538zM127 447h35.001c0 38.667 13.667 66.167 41 82.5s60 24.5 98 24.5c100.667 0 151 -36 151 -108c0 -30.667 -6.66699 -52.834 -20 -66.5c-13.333 -13.667 -32 -23.834 -56 -30.5c-42 -12.667 -70.167 -29.667 -84.5 -51
s-21.5 -55.666 -21.5 -102.999h35c0 43.333 4.5 71.666 13.5 84.999c9 13.335 31.167 25.668 66.5 37c14 4 25.667 8.33301 35 13c9.33496 4.66699 19.668 11.5 31 20.5c11.333 9 20 21.667 26 38s9 35.5 9 57.5c0 34.667 -9.66699 63 -29 85s-42 36.833 -68 44.5
s-55.333 11.5 -88 11.5c-48.667 0 -89.834 -11.333 -123.501 -34s-50.5 -58 -50.5 -106zM263.001 123c0 -11.333 4.5 -19.332 13.5 -23.999s18 -4.66699 27 0s13.5 12.667 13.5 24s-4.5 19.166 -13.5 23.499s-18 4.33301 -27 0c-9 -4.33398 -13.5 -12.167 -13.5 -23.5z" />
    <glyph glyph-name=".notdef" horiz-adv-x="645" 
d="M37 0v700h538v-700h-538zM127 447h35.001c0 38.667 13.667 66.167 41 82.5s60 24.5 98 24.5c100.667 0 151 -36 151 -108c0 -30.667 -6.66699 -52.834 -20 -66.5c-13.333 -13.667 -32 -23.834 -56 -30.5c-42 -12.667 -70.167 -29.667 -84.5 -51
s-21.5 -55.666 -21.5 -102.999h35c0 43.333 4.5 71.666 13.5 84.999c9 13.335 31.167 25.668 66.5 37c14 4 25.667 8.33301 35 13c9.33496 4.66699 19.668 11.5 31 20.5c11.333 9 20 21.667 26 38s9 35.5 9 57.5c0 34.667 -9.66699 63 -29 85s-42 36.833 -68 44.5
s-55.333 11.5 -88 11.5c-48.667 0 -89.834 -11.333 -123.501 -34s-50.5 -58 -50.5 -106zM263.001 123c0 -11.333 4.5 -19.332 13.5 -23.999s18 -4.66699 27 0s13.5 12.667 13.5 24s-4.5 19.166 -13.5 23.499s-18 4.33301 -27 0c-9 -4.33398 -13.5 -12.167 -13.5 -23.5z" />
    <glyph glyph-name="space" unicode=" " horiz-adv-x="265" 
 />
    <glyph glyph-name="exclam" unicode="!" horiz-adv-x="239" 
d="M94 700h51v-559h-51v559zM82 35c0 12 4.16699 21.5 12.5 28.5s17.333 10.5 27 10.5s18.667 -3.5 27 -10.5s12.5 -16.5 12.5 -28.5s-4.16699 -21.5 -12.5 -28.5s-17.333 -10.5 -27 -10.5s-18.667 3.5 -27 10.5s-12.5 16.5 -12.5 28.5z" />
    <glyph glyph-name="quotedbl" unicode="&#x22;" horiz-adv-x="338" 
d="M77 704h45v-256h-45v256zM217 704h44v-256h-44v256z" />
    <glyph glyph-name="numbersign" unicode="#" horiz-adv-x="629" 
d="M249 700h46l-41 -168h201l42 168h46l-42 -168h91v-38h-100l-72 -283h95v-40h-104l-42 -171h-46l42 171h-201l-42 -171h-46l42 171h-81v40h89l73 283h-85v38h94zM446 494h-201l-73 -283h202z" />
    <glyph glyph-name="dollar" unicode="$" horiz-adv-x="645" 
d="M304 805l44.9912 -0.00292969v-100c50 -2.66699 96 -14 138 -34s73.667 -49 95 -87l-47 -26c-17.333 32.6689 -45.666 56.8359 -84.999 72.5c-39.333 15.6719 -80.666 23.8389 -123.999 24.501c-22.667 0 -45.667 -2.5 -69 -7.5s-46.166 -12.333 -68.499 -22
s-40.5 -24 -54.5 -43s-20.667 -40.5 -20 -64.5c0.666992 -17.333 4.83398 -32.5 12.501 -45.5s17.167 -23.833 28.5 -32.5s27.333 -16.5 48 -23.5s39.667 -12.5 57 -16.5s40 -8.66699 68 -14c87.333 -16.667 147 -33 179 -49c64 -31.333 96 -82 96 -152
c0 -41.333 -13.833 -76.5 -41.5 -105.5s-59.667 -49.5 -96 -61.5s-75.5 -19 -117.5 -21v-97h-44v97c-56.667 2 -109.167 14.333 -157.5 37s-83.833 56 -106.5 100l48 24c19.333 -37.333 51.5 -64.833 96.5 -82.5s92.167 -26.5 141.5 -26.5c24 0 48 2.33301 72 7
s47.833 11.834 71.5 21.501s42.834 23.834 57.501 42.501s22 40.667 22 66c0 16.667 -2.66699 31.834 -8 45.5c-5.33691 13.667 -14.1699 25.5 -26.499 35.5c-12.333 10 -24.333 18.333 -36 25s-28.167 13 -49.5 19s-38.666 10.5 -51.999 13.5s-32.666 6.83301 -57.999 11.5
c-24.667 4.66699 -43 8.33398 -55 11.001s-29 6.83398 -51 12.501s-38.5 11.167 -49.5 16.5c-11 5.33496 -24.167 12.668 -39.5 22c-15.333 9.33496 -26.666 19.168 -33.999 29.5c-7.33301 10.335 -14 23.168 -20 38.5c-6 15.333 -9.33301 32 -10 50
c-0.666992 31.333 6.16602 59.166 20.499 83.499s33.833 43.666 58.5 57.999s50.834 25.5 78.501 33.5s56.5 12.667 86.5 14v100z" />
    <glyph glyph-name="percent" unicode="%" horiz-adv-x="722" 
d="M618 703l-55 -1l-446 -702h56zM198 705c32.667 0 60.834 -7.3291 84.501 -21.9961s41 -32.834 52 -54.501s16.5 -45.334 16.5 -71.001s-5.5 -49.334 -16.5 -71.001c-11 -21.668 -28.333 -39.835 -52 -54.501c-23.667 -14.667 -51.834 -22 -84.501 -22
c-28 0 -52.833 5.5 -74.5 16.5s-38.167 25.167 -49.5 42.5s-19.666 36.333 -24.999 57s-5.33301 41.5 0 62.5s13.666 40.167 24.999 57.5s27.833 31.5 49.5 42.5s46.5 16.5 74.5 16.5zM539 289.004c28 0 53.001 -5.50293 75.001 -16.5029s38.667 -25.167 50 -42.5
s19.666 -36.333 24.999 -57s5.33301 -41.5 0 -62.5c-5.33887 -21 -13.6719 -40.167 -25 -57.5c-11.333 -17.333 -28 -31.5 -50 -42.5s-47 -16.5 -75 -16.5c-32 0 -60 7.33301 -84 22s-41.333 32.834 -52 54.501s-16 45.334 -16 71.001s5.33301 49.334 16 71.001
s28 39.834 52 54.5c24 14.667 52 22 84 22zM539.001 248.001c-26.667 0 -49.333 -7.33203 -68 -21.999s-30 -32.334 -34 -53.001s-3.83301 -41.334 0.5 -62.001s15.833 -38.334 34.5 -53.001s41.334 -22 68.001 -22s49.334 7.33301 68 22c18.667 14.667 30 32.334 34 53.001
s3.83301 41.334 -0.5 62.001s-15.833 38.334 -34.5 53c-18.667 14.667 -41.334 22 -68.001 22zM198.002 662.002c-27.333 0 -50.1689 -7.16602 -68.502 -21.499c-18.333 -14.3359 -29.666 -31.6689 -33.999 -52c-4.33301 -20.334 -4.33301 -40.667 0 -60.999
c4.33301 -20.333 15.833 -37.666 34.5 -51.999s41.667 -21.5 69 -21.5c26.667 0 49 7.16699 67 21.5c18 14.334 29.167 31.667 33.5 51.999c4.33301 20.333 4.33301 40.666 0 60.999s-15.666 37.666 -33.999 51.999s-40.833 21.5 -67.5 21.5z" />
    <glyph glyph-name="ampersand" unicode="&#x26;" horiz-adv-x="688" 
d="M549 531l-47.001 0.000976562c0 21.333 -3.33301 39.833 -10 55.5c-6.66895 15.667 -15.3359 28.167 -26.001 37.5c-10.667 9.33301 -24 16.666 -40 21.999s-32 9 -48 11s-34.333 3 -55 3c-64.667 0 -113.834 -13.167 -147.501 -39.5
c-33.667 -26.335 -50.167 -60.168 -49.5 -101.5c0 -25.333 6.33301 -47.5 19 -66.5s29.167 -33.667 49.5 -44s41.5 -17.833 63.5 -22.5s44.333 -7 67 -7h297v-43h-64v-153c0 -43.333 6.5 -77.833 19.5 -103.5s35.5 -38.167 67.5 -37.5v-42c-28 -4 -52.667 2.33301 -74 19
c-21.335 16.667 -35.668 40 -42.999 70c-40 -65.333 -108.667 -98 -206 -98c-84 0 -148.167 17.333 -192.5 52s-66.5 82.334 -66.5 143.001c0 40.667 13.833 76.167 41.5 106.5s60.834 51.833 99.501 64.5c-37.333 11.333 -68.166 31.5 -92.499 60.5s-36.5 62.5 -36.5 100.5
c0 55.333 22 100.166 66 134.499s105 51.5 183 51.5c150 0 225 -57.667 225 -173zM513.999 183.001v152.999h-192c-64.667 0 -115.5 -15.167 -152.5 -45.5s-55.5 -65.166 -55.5 -104.499c0 -46.667 17.333 -83 52 -109s86.334 -39 155.001 -39c22 0 43.333 2.16699 64 6.5
s41.167 11.5 61.5 21.5c20.334 10 36.667 25 48.999 45c12.333 20 18.5 44 18.5 72z" />
    <glyph glyph-name="quotesingle" unicode="'" horiz-adv-x="198" 
d="M77 704h44v-256h-44v256z" />
    <glyph glyph-name="parenleft" unicode="(" horiz-adv-x="321" 
d="M270 735l26 -38c-61.333 -42.667 -108.833 -100.5 -142.5 -173.5s-51 -147.667 -52 -224s15.167 -152 48.5 -227s82 -135.833 146 -182.5l-26 -39c-70.667 46 -125.167 109.833 -163.5 191.5s-57.5 165.167 -57.5 250.5s19.167 168.833 57.5 250.5
s92.833 145.5 163.5 191.5z" />
    <glyph glyph-name="parenright" unicode=")" horiz-adv-x="322" 
d="M26 698l26 38c70.667 -46 125.167 -109.833 163.5 -191.5s57.5 -165.167 57.5 -250.5s-19.167 -168.833 -57.5 -250.5s-92.833 -145.5 -163.5 -191.5l-26 39c64 46.667 112.667 107.5 146 182.5s49.5 150.667 48.5 227s-18.333 151 -52 224s-81.167 130.833 -142.5 173.5
z" />
    <glyph glyph-name="asterisk" unicode="*" horiz-adv-x="344" 
d="M221 493l-51 73l-53 -73l-33 23l57 71l-79 23l11 36l79 -26l-2 81h41l-2 -81l85 25l11 -36l-86 -22l55 -70z" />
    <glyph glyph-name="plus" unicode="+" horiz-adv-x="499" 
d="M51 366h175v172h47v-172h175v-48h-175v-177h-47v177h-175v48z" />
    <glyph glyph-name="comma" unicode="," horiz-adv-x="225" 
d="M73 30c0 12 4.16699 21.5 12.5 28.5s17.333 10.5 27 10.5s18.667 -3.5 27 -10.5s12.5 -16.5 12.5 -28.5c0 -5.33301 -1 -11 -3 -17l-40 -102h-43l31 83c-16 6 -24 18 -24 36z" />
    <glyph glyph-name="hyphen" unicode="-" horiz-adv-x="496" 
d="M73 261v50h350v-50h-350z" />
    <glyph glyph-name="period" unicode="." horiz-adv-x="225" 
d="M73 30c0 12 4.16699 21.5 12.5 28.5s17.333 10.5 27 10.5s18.667 -3.5 27 -10.5s12.5 -16.5 12.5 -28.5s-4.16699 -21.5 -12.5 -28.5c-8.33398 -7 -17.334 -10.5 -27 -10.5c-9.66699 0 -18.667 3.5 -27 10.5s-12.5 16.5 -12.5 28.5z" />
    <glyph glyph-name="slash" unicode="/" horiz-adv-x="479" 
d="M80 -82h-53l373 841h54z" />
    <glyph glyph-name="zero" unicode="0" horiz-adv-x="671" 
d="M121 434v-166.999c0 -36 6.16699 -68.667 18.5 -98s28.5 -53 48.5 -71s43 -31.833 69 -41.5s52.333 -14.5 79 -14.5s53 4.83301 79 14.5s49 23.5 69 41.5s36.167 41.667 48.5 71s18.5 62 18.5 98v167c0 36 -6.16699 68.5 -18.5 97.5s-28.5 52.5 -48.5 70.5
s-43 31.833 -69 41.5s-52.333 14.5 -79 14.5s-53 -4.83301 -79 -14.5s-49 -23.334 -69 -41.001s-36.167 -41.167 -48.5 -70.5s-18.5 -62 -18.5 -98zM68 267.001l-0.00195312 166.999c0 58.667 13.167 109.334 39.5 152.001s59.5 73.667 99.5 93s83 29 129 29
s89 -9.66699 129 -29s73.167 -50.5 99.5 -93.5s39.5 -93.5 39.5 -151.5v-167c0 -44 -7.66699 -83.833 -23 -119.5s-35.5 -64.5 -60.5 -86.5s-53.667 -39 -86 -51s-65.166 -18 -98.499 -18s-66.166 5.83301 -98.499 17.5s-61 28.5 -86 50.5s-45.167 51 -60.5 87
s-23 76 -23 120z" />
    <glyph glyph-name="one" unicode="1" horiz-adv-x="401" 
d="M50 0v47h136v592l-129 -32v47l183 46v-653h137v-47h-327z" />
    <glyph glyph-name="two" unicode="2" horiz-adv-x="669" 
d="M124 514l-53.002 0.00390625c0 35.333 7.83301 66.166 23.5 92.499s36.834 46.666 63.501 60.999s55 24.833 85 31.5s62 10 96 10c46.667 0 89.334 -6.16699 128.001 -18.5s72 -34.5 100 -66.5s42 -71.667 42 -119c0 -45.333 -14.167 -83.666 -42.5 -114.999
s-62 -53.5 -101 -66.5s-80.5 -19.5 -124.5 -19.5c-147.333 -1.33301 -221 -49.666 -221 -144.999v-107h482v-52h-535v158c0 37.333 7.83301 69.166 23.5 95.499s37.167 46.5 64.5 60.5s56 24 86 30s62.667 9 98 9c24.667 0 49 2.5 73 7.5s47.5 13 70.5 24
s41.5 26.833 55.5 47.5s21 45 21 73c0 29.333 -6.83301 54.666 -20.5 75.999s-31.667 37.666 -54 48.999s-45.666 19.5 -69.999 24.5s-49.5 7.5 -75.5 7.5c-25.333 0 -49.833 -2.33301 -73.5 -7s-46.5 -12.334 -68.5 -23.001s-39.667 -26.167 -53 -46.5
c-13.334 -20.3359 -20.001 -44.1689 -20.001 -71.5z" />
    <glyph glyph-name="three" unicode="3" horiz-adv-x="663" 
d="M121 529l-50.998 -0.00488281c0 34.668 8 64.335 24 89.001c16 24.6689 37.333 43.3359 64 56c26.667 12.667 54.167 21.667 82.5 27s58.5 8 90.5 8c80.667 0 143.667 -17.333 189 -52s68.333 -79 69 -133c0 -39.333 -14.333 -74.5 -43 -105.5
s-63.667 -50.167 -105 -57.5c44 -8 81.833 -28.333 113.499 -61c31.667 -32.667 47.5 -69.667 47.5 -111c0 -57.333 -23.667 -104.666 -71 -141.999s-113.333 -56 -198 -56c-33.333 0 -64.833 2.83301 -94.5 8.5s-58.667 14.834 -87 27.501s-50.833 32 -67.5 58
s-25 57 -25 93h52c0 -24 5.16699 -44.833 15.5 -62.5s22.666 -31.167 36.999 -40.5s32.333 -16.666 54 -21.999s41.167 -8.66602 58.5 -9.99902c17.334 -1.33301 36.667 -2 58 -2c70 0 123.667 13.833 161 41.5s56 62.5 56 104.5c0 40 -19.333 75 -58 105s-92 45 -160 45
h-116v45h113c65.333 0 116.5 14.5 153.5 43.5s55.833 61.833 56.5 98.5c0.666992 38.667 -17.333 71.667 -54 99s-88 41 -154 41c-140.667 0 -211 -45 -211 -135z" />
    <glyph glyph-name="four" unicode="4" horiz-adv-x="655" 
d="M432 700h89v-491h88v-51h-88v-158h-54v158h-429l-11 65zM467 209v451l-382 -451h382z" />
    <glyph glyph-name="five" unicode="5" horiz-adv-x="657" 
d="M356 380h-275.001v320h487v-48h-437v-224h225c45.333 0 84.833 -6 118.5 -18s59.834 -28.333 78.501 -49c18.6689 -20.667 32.3359 -43.334 41 -68c8.66699 -24.667 13 -51.334 13 -80.001c0 -62 -23.333 -113.833 -70 -155.5s-114 -62.5 -202 -62.5
c-34.667 0 -66.834 3.16699 -96.5 9.5c-29.667 6.33301 -58.167 16.5 -85.5 30.5s-49 34.5 -65 61.5s-24 59.167 -24 96.5h54c0 -96 72.333 -144 217 -144c72 0 126.333 15 163 45s55 69.333 55 118s-15 88.834 -45 120.501s-80.667 47.5 -152 47.5z" />
    <glyph glyph-name="six" unicode="6" horiz-adv-x="686" 
d="M134 516v-191.001c46 66 120.667 99 224 99c34.667 0 67.667 -4.16699 99 -12.5c31.334 -8.33301 60.334 -20.666 87 -36.999c26.6689 -16.333 47.8359 -38.833 63.5 -67.5c15.667 -28.667 23.5 -61.667 23.5 -99c0 -38 -8 -71.5 -24 -100.5s-37.333 -51.5 -64 -67.5
s-55.667 -28 -87 -36s-64.333 -12 -99 -12c-47.333 0 -91 6.83301 -131 20.5s-74.167 37.5 -102.5 71.5s-42.5 76 -42.5 126v306c0 62 26.167 109.833 78.5 143.5s114.833 50.5 187.5 50.5c73.334 0 135.167 -15.333 185.5 -46s77.5 -74.334 81.5 -131.001h-54
c-2.66699 40.668 -23.834 72.335 -63.501 95.001c-39.667 22.667 -89.5 34 -149.5 34c-57.333 0 -107.166 -12.833 -149.499 -38.5s-63.5 -61.5 -63.5 -107.5zM357 42.999c27.334 0 53.1719 2.66602 77.5049 7.99902c24.334 5.33301 47.667 14 69.999 26
c22.333 12 40.166 29.167 53.499 51.5s20 48.833 20 79.5c0 53.333 -22.5 94.5 -67.5 123.5s-95.833 43.5 -152.5 43.5s-107.834 -14.333 -153.501 -43s-68.834 -69.667 -69.501 -123c0 -30 6.66699 -56.167 20 -78.5s31.166 -39.666 53.499 -51.999s46 -21.333 71 -27
s50.833 -8.5 77.5 -8.5z" />
    <glyph glyph-name="seven" unicode="7" horiz-adv-x="561" 
d="M108 0l378 650h-454v50h510l7 -44l-380 -656h-61z" />
    <glyph glyph-name="eight" unicode="8" horiz-adv-x="701" 
d="M351 340c-22.667 0 -46.5 -2.66504 -71.5 -7.99805s-50.333 -13.5 -76 -24.5s-46.667 -27.333 -63 -49s-24.5 -46.5 -24.5 -74.5c0 -36 14.5 -65.833 43.5 -89.5s60 -39.334 93 -47.001s65.833 -11.5 98.5 -11.5c23.333 0 47.333 2.33301 72 7s49.667 12.334 75 23.001
s46.333 26.167 63 46.5s25 44.166 25 71.499s-8.33301 51.666 -25 72.999c-16.667 21.334 -37.667 37.667 -63 49s-50.5 19.833 -75.5 25.5s-48.833 8.5 -71.5 8.5zM351 -14.998c-34.667 0 -68 3.49902 -100 10.499s-62.667 17.667 -92 32s-52.833 35 -70.5 62
s-26.5 58.5 -26.5 94.5c0 45.333 15.333 83.833 46 115.5s68 52.167 112 61.5c-97.333 30 -146 84 -146 162c0 34.667 8.5 65 25.5 91s39.667 46 68 60s57.833 24.333 88.5 31s62.334 10 95.001 10s64.167 -3.16699 94.5 -9.5c30.334 -6.33301 59.667 -16.333 88 -30
s51.166 -33.667 68.499 -60c17.333 -26.334 26 -57.167 26 -92.499c0 -41.333 -14 -75.5 -42 -102.5s-64.667 -47.5 -110 -61.5c44 -9.33301 82.167 -29.833 114.5 -61.5s48.5 -69.5 48.5 -113.5c0 -36 -8.83301 -67.5 -26.5 -94.5s-41 -47.667 -70 -62s-59.5 -25 -91.5 -32
s-65.333 -10.5 -100 -10.5zM351 669.001c-24 0 -47.834 -2.33301 -71.501 -7s-47.5 -12.167 -71.5 -22.5s-43.5 -25.5 -58.5 -45.5s-22.5 -43.667 -22.5 -71c0 -25.333 7.5 -47.333 22.5 -66s34.5 -33 58.5 -43s48 -17.167 72 -21.5s47.667 -6.5 71 -6.5s47 2.16699 71 6.5
s48 11.5 72 21.5s43.5 24.333 58.5 43s22.5 40.667 22.5 66c0 26.667 -7.5 50 -22.5 70s-34.333 35.167 -58 45.5s-47.667 18 -72 23s-48.166 7.5 -71.499 7.5z" />
    <glyph glyph-name="nine" unicode="9" horiz-adv-x="686" 
d="M553 186l-0.000976562 191c-46 -66 -121 -99 -225 -99c-34.667 0 -67.667 4.16699 -99 12.5c-31.333 8.33398 -60.333 20.667 -87 37s-47.834 38.833 -63.501 67.5s-23.5 61.667 -23.5 99c0 38 8 71.5 24 100.5s37.333 51.5 64 67.5s55.667 28 87 36s64.333 12 99 12
c47.333 0 91 -6.83301 131 -20.5s74.167 -37.5 102.5 -71.5s42.5 -76 42.5 -126v-306c0 -62 -26.167 -109.833 -78.5 -143.5s-114.833 -50.5 -187.5 -50.5c-73.333 0 -135.166 15.333 -185.499 46s-77.5 74.334 -81.5 131.001h54
c2.66699 -40.667 23.834 -72.334 63.501 -95.001s89.5 -34 149.5 -34c57.333 0 107.333 12.833 150 38.5s64 61.5 64 107.5zM328.999 659c-27.333 0 -53.1719 -2.66602 -77.5049 -7.99902c-24.334 -5.33301 -47.667 -14 -70 -26s-40.166 -29.167 -53.499 -51.5
s-20 -48.833 -20 -79.5c0 -29.333 6.66699 -55.333 20 -78s31 -40.167 53 -52.5s45.333 -21.5 70 -27.5s50.334 -9 77.001 -9c56.667 0 107.834 14.333 153.501 43c45.6689 28.667 68.8359 69.667 69.501 123c0 30 -6.66699 56.167 -20 78.5s-31.166 39.666 -53.499 51.999
s-46 21.333 -71 27s-50.833 8.5 -77.5 8.5z" />
    <glyph glyph-name="colon" unicode=":" horiz-adv-x="225" 
d="M73 30c0 12 4.16699 21.5 12.5 28.5s17.333 10.5 27 10.5s18.667 -3.5 27 -10.5s12.5 -16.5 12.5 -28.5s-4.16699 -21.5 -12.5 -28.5c-8.33398 -7 -17.334 -10.5 -27 -10.5c-9.66699 0 -18.667 3.5 -27 10.5s-12.5 16.5 -12.5 28.5zM73 330c0 12 4.16699 21.5 12.5 28.5
s17.333 10.5 27 10.5s18.667 -3.5 27 -10.5s12.5 -16.5 12.5 -28.5s-4.16699 -21.5 -12.5 -28.5c-8.33398 -7 -17.334 -10.5 -27 -10.5c-9.66699 0 -18.667 3.5 -27 10.5s-12.5 16.5 -12.5 28.5z" />
    <glyph glyph-name="semicolon" unicode=";" horiz-adv-x="235" 
d="M80 30c0 12 4.16699 21.5 12.5 28.5s17.333 10.5 27 10.5s18.667 -3.5 27 -10.5s12.5 -16.5 12.5 -28.5c0 -5.33301 -1 -11 -3 -17l-40 -102h-43l31 83c-16 6 -24 18 -24 36zM80 330c0 12 4.16699 21.5 12.5 28.5s17.333 10.5 27 10.5s18.667 -3.5 27 -10.5
s12.5 -16.5 12.5 -28.5s-4.16699 -21.5 -12.5 -28.5s-17.333 -10.5 -27 -10.5s-18.667 3.5 -27 10.5s-12.5 16.5 -12.5 28.5z" />
    <glyph glyph-name="less" unicode="&#x3c;" horiz-adv-x="363" 
d="M57 337l211 186l30 -34l-192 -171l196 -172l-34 -34l-211 186v39z" />
    <glyph glyph-name="equal" unicode="=" horiz-adv-x="553" 
d="M77 193v49h399v-49h-399zM77 390v50h399v-50h-399z" />
    <glyph glyph-name="greater" unicode="&#x3e;" horiz-adv-x="363" 
d="M95 523l211 -186v-39l-211 -186l-34 34l196 172l-192 171z" />
    <glyph glyph-name="question" unicode="?" horiz-adv-x="615" 
d="M88 508l-52.002 0.000976562c0 29.333 5.33301 55.833 16 79.5s24.667 43 42 58s37.833 27.667 61.5 38s47.834 17.666 72.501 21.999s50 6.5 76 6.5c27.334 0 53.167 -2 77.5 -6s48.5 -10.833 72.5 -20.5s44.667 -22 62 -37s31.333 -34.667 42 -59s16 -51.833 16 -82.5
c0 -32 -4.16699 -59.667 -12.5 -83c-8.33789 -23.333 -20.6709 -41.833 -37 -55.5c-16.333 -13.668 -31.333 -23.835 -45 -30.5c-13.667 -6.66699 -30.5 -13 -50.5 -19c-52.667 -16 -85.834 -34 -99.5 -54c-13.667 -20 -20.5 -61.333 -20.5 -124h-51
c0 68.667 11 118.667 33 150s63.667 56 125 74c34.667 10 61.167 24.833 79.5 44.5s27.5 52.167 27.5 97.5c0 31.333 -6.66699 57.833 -20 79.5c-13.333 21.6689 -31.5 37.8359 -54.5 48.5c-23 10.667 -46 18.167 -69 22.5s-48.167 6.5 -75.5 6.5
c-25.333 0 -49.666 -2.33301 -72.999 -7c-23.334 -4.66699 -46.167 -12.5 -68.5 -23.5s-40.333 -27.333 -54 -49s-20.5 -47.167 -20.5 -76.5zM248.998 36.001c0 16.667 6.5 28.334 19.5 35.001s26 6.66699 39 0s19.5 -18.334 19.5 -35.001s-6.5 -28.334 -19.5 -35.001
s-26 -6.66699 -39 0s-19.5 18.334 -19.5 35.001z" />
    <glyph glyph-name="at" unicode="@" horiz-adv-x="884" 
d="M446 695c118 0 212.168 -34.333 282.501 -103s105.5 -162.667 105.5 -282c0 -70 -13.333 -131.667 -40 -185c-14 -28 -33.333 -46.167 -58 -54.5s-46.5 -4.83301 -65.5 10.5s-28.5 39 -28.5 71v-1c-23.333 -32 -52.833 -57 -88.5 -75s-73.5 -27 -113.5 -27
c-69.333 0 -128.5 24.5 -177.5 73.5s-73.5 108.167 -73.5 177.5c0 74.667 24 135.167 72 181.5s107.667 69.5 179 69.5c41.334 0 80.334 -9.5 117 -28.5c36.667 -19 65 -46.167 85 -81.5v85h44v-373c0 -16.667 4 -28.167 12 -34.5s17.5 -6.83301 28.5 -1.5
s20.167 14.666 27.5 27.999c22 39.333 33 94.333 33 165c0 108.667 -30.333 192.334 -91 251.001s-144 88 -250 88c-102.667 0 -185 -32 -247 -96s-93 -146 -93 -246s30.833 -180.667 92.5 -242s144.167 -92 247.5 -92c47.333 0 98.333 13.667 153 41l26 -38
c-52.667 -32.667 -112.334 -49 -179.001 -49c-119.333 0 -214.333 35.5 -285 106.5s-106 162.167 -106 273.5c0 110 35.5 202.167 106.5 276.5s165.833 111.5 284.5 111.5zM440.001 504c-57.333 0 -105.333 -18.668 -144 -56.001s-58 -86.666 -58 -147.999
c0 -56 19.667 -103.833 59 -143.5s87 -59.5 143 -59.5c43.334 0 80.834 10 112.5 30c31.667 20 54.667 45.167 69 75.5s21.5 63 21.5 98s-7.16699 67.667 -21.5 98s-37.333 55.5 -69 75.5s-69.167 30 -112.5 30z" />
    <glyph glyph-name="A" unicode="A" horiz-adv-x="739" 
d="M713 0h-58l-77 172h-418l-76 -172h-58l314 700h59zM181 222h376l-188 426z" />
    <glyph glyph-name="B" unicode="B" horiz-adv-x="695" 
d="M153 332l0.000976562 -280h233c134 0 201 44 201 132c-0.666992 50.667 -19.834 88 -57.501 112s-83.167 36 -136.5 36h-240zM153.001 654v-271.001h240c31.333 0 59 3.33301 83 10c24.001 6.66699 44.834 19.834 62.5 39.501c17.667 19.667 26.5 45.167 26.5 76.5
c0 47.333 -17.667 83.333 -53 108s-77.333 37 -126 37h-233zM386.001 699.999c64.667 0 119.168 -16.167 163.501 -48.5s66.5 -79.833 66.5 -142.5c0 -36 -10.167 -67.167 -30.5 -93.5c-20.335 -26.333 -48.168 -45.166 -83.499 -56.499c43.333 -12 77.166 -34 101.499 -66
s36.5 -68.667 36.5 -110c0 -34.667 -7.33301 -64.334 -22 -89.001s-34.834 -43.667 -60.501 -57s-52.5 -22.833 -80.5 -28.5s-58.333 -8.5 -91 -8.5h-287v700h287z" />
    <glyph glyph-name="C" unicode="C" horiz-adv-x="714" 
d="M634 131l35.999 -33.999c-70 -70 -155 -105 -255 -105c-112.667 0 -200.667 34 -264 102s-95.333 152 -96 252c-0.666992 64 12 123 38 177s67 98.333 123 133s122.333 52 199 52c100 0 185 -35 255 -105l-37 -32c-59.333 59.333 -132 89 -218 89
c-98 0 -174 -29.833 -228 -89.5s-80.667 -133.834 -80 -222.5c1.33301 -86.667 28.833 -159.334 82.5 -218.001s128.834 -88 225.501 -88c85.333 0 158.333 29.667 219 89z" />
    <glyph glyph-name="D" unicode="D" horiz-adv-x="746" 
d="M336 700c57.333 0 108.833 -9.66797 154.5 -29.001s82.667 -45.333 111 -78s50 -69 65 -109s23.167 -82 24.5 -126c1.33301 -45.333 -5.16699 -89 -19.5 -131c-14.3359 -42 -35.6689 -80.167 -64 -114.5c-28.333 -34.333 -65.833 -61.666 -112.5 -81.999
s-99.667 -30.5 -159 -30.5h-237v700h237zM336 648.999h-183v-597h183c97.334 0 172.167 30.5 224.5 91.5s77.833 132.5 76.5 214.5c-1.33496 80 -28.168 148.5 -80.5 205.5c-52.333 57 -125.833 85.5 -220.5 85.5z" />
    <glyph glyph-name="E" unicode="E" horiz-adv-x="649" 
d="M152 649v-272h410v-49h-410v-276h442v-52h-495v700h483v-51h-430z" />
    <glyph glyph-name="F" unicode="F" horiz-adv-x="623" 
d="M153 646v-279h403v-51h-403v-317h-54v701h471v-54h-417z" />
    <glyph glyph-name="G" unicode="G" horiz-adv-x="744" 
d="M673 605l-30.999 -33.999c-30 29.333 -64.833 51.666 -104.5 66.999s-79.834 23 -120.5 23c-97.333 0 -173.333 -30.333 -228 -91s-81.667 -134.334 -81 -221c0 -87.333 27 -160.333 81 -219s130 -88 228 -88c83.333 0 154.333 27 213 81v196h-244v47h295v-262
c-75.333 -75.333 -163.333 -113 -264 -113c-76.667 0 -142.834 16.667 -198.501 50s-96.667 76.5 -123 129.5s-39.5 112.167 -39.5 177.5c-0.666992 108.667 32.5 196.167 99.5 262.5s154.167 99.5 261.5 99.5c100 0 185.333 -35 256 -105z" />
    <glyph glyph-name="H" unicode="H" horiz-adv-x="752" 
d="M653 0h-54v318h-446v-318h-54v700h54v-333h446v333h54v-700z" />
    <glyph glyph-name="I" unicode="I" horiz-adv-x="251" 
d="M152 0h-53v700h53v-700z" />
    <glyph glyph-name="J" unicode="J" horiz-adv-x="673" 
d="M529 264v388.999h-268v47h321v-436c0 -84.667 -25.833 -151.667 -77.5 -201s-118.167 -74 -199.5 -74c-80 0 -146 25.667 -198 77s-78 117.333 -78 198h50c0 -66 21.333 -120 64 -162s96.667 -63 162 -63c66.667 0 120.667 19.833 162 59.5s62 94.834 62 165.501z" />
    <glyph glyph-name="K" unicode="K" horiz-adv-x="590" 
d="M588 4v-4h-68l-369 345v-344h-54v699h54v-319l340 319h65v-5l-352 -330z" />
    <glyph glyph-name="L" unicode="L" horiz-adv-x="564" 
d="M99 700h54v-649h394v-51h-448v700z" />
    <glyph glyph-name="M" unicode="M" horiz-adv-x="861" 
d="M709 0v622l-268 -410h-18l-270 410v-622h-54v700h64l268 -408l265 408h66v-700h-53z" />
    <glyph glyph-name="N" unicode="N" horiz-adv-x="745" 
d="M99 700h23l471 -579v579h53v-700h-21l-472 578v-578h-54v700z" />
    <glyph glyph-name="O" unicode="O" horiz-adv-x="814" 
d="M407 711c112 0 199.003 -35.165 261.003 -105.498c62 -70.334 92.667 -155.834 92 -256.5c0 -46.667 -7.66699 -91.334 -23 -134c-15.3359 -42.667 -37.1689 -81 -65.5 -115c-28.333 -34 -65.333 -61.167 -111 -81.5s-96.834 -30.5 -153.501 -30.5
s-107.834 10.167 -153.501 30.5s-82.834 47.666 -111.501 81.999s-50.5 72.833 -65.5 115.5s-22.5 87.667 -22.5 135c0 64.667 12.667 123.667 38 177s65.333 97.166 120 131.499s119.667 51.5 195 51.5zM407.003 661.002c-96 0 -170.168 -29.834 -222.501 -89.501
s-78.166 -133.5 -77.499 -221.5c0.666992 -85.333 27.334 -158.666 80.001 -219.999s126 -92 220 -92c64 0 119.333 15.333 165.999 46c46.668 30.667 80.835 69 102.5 115c21.667 46 32.5 96.333 32.5 151c0 86.667 -26.333 160.167 -79 220.5s-126.667 90.5 -222 90.5z
" />
    <glyph glyph-name="P" unicode="P" horiz-adv-x="670" 
d="M406 650h-253v-359h253c32 0 60.5 6.66699 85.5 20s44 30.5 57 51.5s22.5 44.167 28.5 69.5s6 50.833 0 76.5s-15.5 49 -28.5 70s-32 38.167 -57 51.5s-53.5 20 -85.5 20zM406 242h-253.001v-242h-54v700h307c36.667 0 69.834 -6.5 99.501 -19.5s53.667 -30.333 72 -52
s32.333 -46.167 42 -73.5c9.66699 -27.334 14.5 -55.334 14.5 -84c0 -28.667 -4.83301 -56.667 -14.5 -84s-23.667 -51.833 -42 -73.5s-42.333 -39 -72 -52s-62.834 -19.5 -99.5 -19.5z" />
    <glyph glyph-name="Q" unicode="Q" horiz-adv-x="815" 
d="M410 709c112.667 0 199.833 -34.5 261.499 -103.5c61.667 -69 92.167 -154.167 91.5 -255.5c0 -92.667 -27.333 -172.334 -82 -239.001l89 -86l-34 -35l-88 84c-61.333 -54 -140.666 -81 -237.999 -81c-113.333 0 -201 34.833 -263 104.5s-92.333 155.834 -91 258.501
c1.33301 99.333 32.833 183 94.5 251s148.167 102 259.5 102zM409.999 658c-88 0 -160.169 -28.667 -216.502 -86c-56.333 -57.334 -84.5 -129.334 -84.5 -216c-1.33301 -88 24.334 -162 77.001 -222s127.334 -90 224.001 -90c95.333 0 169.166 29.5 221.499 88.5
s78.5 131.5 78.5 217.5c0 87.333 -26.167 160.5 -78.5 219.5s-126.166 88.5 -221.499 88.5z" />
    <glyph glyph-name="R" unicode="R" horiz-adv-x="700" 
d="M410 268l247.001 -268h-71l-242 265h-191v-265h-54v700h308c72 0 128.167 -21.5 168.5 -64.5s60.833 -94.167 61.5 -153.5c0.666992 -60.667 -18.833 -111.5 -58.5 -152.5s-95.834 -61.5 -168.501 -61.5zM153.001 650v-334h248c58.667 0 102.667 15 132 45
s44.333 70.667 45 122c0.666992 44.667 -14 83.667 -44 117s-72.333 50 -127 50h-254z" />
    <glyph glyph-name="S" unicode="S" horiz-adv-x="657" 
d="M587 591l-44.0029 -26.002c-23.334 37.333 -52.501 62.333 -87.5 75c-35 12.668 -76.5 19.335 -124.5 20c-32 0 -62.833 -3.66699 -92.5 -11s-57 -22.333 -82 -45s-37.5 -51.334 -37.5 -86.001c0 -17.333 4 -32.666 12 -45.999s17.5 -24.166 28.5 -32.499
s27 -16.166 48 -23.499s40 -12.833 57 -16.5s39.833 -8.16699 68.5 -13.5c87.333 -16.667 147 -33 179 -49c64 -31.333 96 -82 96 -152c0 -37.333 -8.83301 -69.5 -26.5 -96.5s-40.834 -47.333 -69.501 -61s-57.834 -23.5 -87.5 -29.5c-29.667 -6 -60.834 -9 -93.5 -9
c-59.333 0 -115.666 12.833 -168.999 38.5s-92.666 63.5 -117.999 113.5l48 24c20 -40 53.167 -71.167 99.5 -93.5s92.833 -33.5 139.5 -33.5c24.667 0 48.667 2 72 6s47 11 71 21c24.001 10 43.334 25.333 58 46c14.667 20.667 22 45.667 22 75
c0 16.667 -2.66699 31.834 -8 45.5c-5.33496 13.667 -14.168 25.5 -26.499 35.5c-12.333 10 -24.333 18.333 -36 25s-28.167 13 -49.5 19s-38.666 10.5 -51.999 13.5s-32.666 6.83301 -57.999 11.5c-28 5.33594 -49.5 9.66895 -64.5 13c-15 3.33301 -34.5 8.5 -58.5 15.5
s-42.5 14.5 -55.5 22.5s-26.5 18 -40.5 30s-24.167 26.333 -30.5 43s-9.5 35.334 -9.5 56.001c-0.666992 35.333 7.16602 66.166 23.499 92.499s38.333 46.5 66 60.5s56.167 24.333 85.5 31c29.334 6.66699 59.667 10 91 10c58 0 107.167 -8 147.5 -24
s76.5 -47.667 108.5 -95z" />
    <glyph glyph-name="T" unicode="T" horiz-adv-x="590" 
d="M268 0v651h-253v48h560v-48h-253v-651h-54z" />
    <glyph glyph-name="U" unicode="U" horiz-adv-x="718" 
d="M574 700h52.998v-435c0 -44 -7.66699 -83.833 -23 -119.5s-35.5 -64.5 -60.5 -86.5s-53.667 -39 -86 -51s-65.166 -18 -98.499 -18s-66.166 5.83301 -98.499 17.5s-61 28.5 -86 50.5s-45.167 51 -60.5 87s-23 76 -23 120v435h53v-435c0 -36 6.16699 -68.667 18.5 -98
s28.5 -53 48.5 -71s43 -32 69 -42s52.333 -15 79 -15s53 5 79 15s49 24 69 42s36.167 41.667 48.5 71s18.5 62 18.5 98v435z" />
    <glyph glyph-name="V" unicode="V" horiz-adv-x="694" 
d="M606 700h58l-288 -702h-58l-288 702h58l259 -640z" />
    <glyph glyph-name="W" unicode="W" horiz-adv-x="1078" 
d="M309 60l215 640h30l214 -640l217 640h58l-247 -702h-58l-111 328l-88 277l-88 -275l-112 -330h-58l-245 702h57z" />
    <glyph glyph-name="X" unicode="X" horiz-adv-x="604" 
d="M302 400l213 299h58v-1l-238 -339l257 -358v-1h-64l-226 320l-226 -320h-64v1l257 358l-238 339v1h59z" />
    <glyph glyph-name="Y" unicode="Y" horiz-adv-x="659" 
d="M302 0v280l-273 419v1h63l237 -368l238 368h63v-1l-274 -419v-280h-54z" />
    <glyph glyph-name="Z" unicode="Z" horiz-adv-x="594" 
d="M50 650v50h507v-19l-451 -628h451v-53h-531v23l445 627h-421z" />
    <glyph glyph-name="bracketleft" unicode="[" horiz-adv-x="306" 
d="M91 -167v882h181v-48h-129v-786h129v-48h-181z" />
    <glyph glyph-name="backslash" unicode="\" horiz-adv-x="478" 
d="M451 -82h-52l-374 841h53z" />
    <glyph glyph-name="bracketright" unicode="]" horiz-adv-x="307" 
d="M216 716v-882h-181v48h129v786h-129v48h181z" />
    <glyph glyph-name="asciicircum" unicode="^" horiz-adv-x="580" 
d="M525 384l-2 -3h-52l-181 277l-181 -277h-52l-2 3l210 316h50z" />
    <glyph glyph-name="underscore" unicode="_" horiz-adv-x="614" 
d="M73 -72v46h468v-46h-468z" />
    <glyph glyph-name="grave" unicode="`" horiz-adv-x="234" 
d="M169 577h-48l-92 123v1h65l75 -120v-4z" />
    <glyph glyph-name="a" unicode="a" 
d="M501 494l49 -0.000976562v-494h-49v105c-46.667 -75.333 -114 -113 -202 -113c-70 0 -129.333 24 -178 72s-73 109 -73 183s24.167 134.667 72.5 182s107.833 71 178.5 71c42 0 81.167 -9.66699 117.5 -29s64.5 -47.666 84.5 -84.999v108zM299 452.999
c-57.333 0 -105.333 -19.166 -144 -57.499s-58 -87.833 -58 -148.5s19.333 -110.334 58 -149.001s86.667 -58 144 -58c38 0 71.667 7.66699 101 23c29.334 15.333 51.667 35 66.999 59c15.334 24 26.667 50.667 33.999 80c7.33301 29.333 7.33301 58.833 0 88.5
s-18.666 56.5 -33.999 80.5s-37.666 43.667 -66.999 59s-63 23 -101 23z" />
    <glyph glyph-name="b" unicode="b" 
d="M332 455c-58 0 -106.167 -19.333 -144.5 -58s-57.5 -88.334 -57.5 -149c0 -61.333 19 -111.333 57 -150s86.333 -58 145 -58c58 0 106.167 18 144.5 54s57.5 87 57.5 153c0 66.667 -19 118 -57 154s-86.333 54 -145 54zM81 700l48.001 -0.00292969v-314
c19.333 38.667 47.166 67.667 83.499 87s76.833 29 121.5 29c71.333 0 130.5 -22.667 177.5 -68s70.5 -107.666 70.5 -186.999s-23.333 -141.666 -70 -186.999s-105.667 -68 -177 -68c-42.667 0 -82.667 10.333 -120 31s-66 49.334 -86 86.001v-109h-48v700z" />
    <glyph glyph-name="c" unicode="c" horiz-adv-x="521" 
d="M449 99l33 -33.001c-49.333 -49.333 -109.333 -74 -180 -74c-71.333 0 -131.5 23.5 -180.5 70.5s-73.5 108.5 -73.5 184.5c0 76.667 24.167 138.334 72.5 185.001s108.833 70 181.5 70c69.333 0 129.333 -24.667 180 -74l-31 -31c-39.333 39.333 -89 59 -149 59
c-58 0 -106.833 -18.833 -146.5 -56.5s-59.5 -88.5 -59.5 -152.5s19.833 -114.833 59.5 -152.5s88.5 -56.5 146.5 -56.5c57.333 0 106.333 20.333 147 61z" />
    <glyph glyph-name="d" unicode="d" 
d="M299 455c-58.667 0 -107 -18.001 -145 -54.001s-57 -87.333 -57 -154c0 -66 19.167 -117 57.5 -153s86.5 -54 144.5 -54c58.667 0 107 19.333 145 58s57 88.667 57 150c0 60.667 -19.167 110.334 -57.5 149.001s-86.5 58 -144.5 58zM502 699.999l48 0.00292969v-700h-48
v109c-20 -36.667 -48.667 -65.334 -86 -86.001s-77.333 -31 -120 -31c-71.333 0 -130.333 22.667 -177 68s-70 107.666 -70 186.999s23.5 141.666 70.5 186.999s106.167 68 177.5 68c44.667 0 85.167 -9.66699 121.5 -29c36.334 -19.333 64.167 -48.333 83.5 -87v314z" />
    <glyph glyph-name="e" unicode="e" horiz-adv-x="587" 
d="M299 -8c-71.333 0 -131 23.334 -179 70.001s-72 108.334 -72 185.001c0 73.333 24.333 134.166 73 182.499s108 72.5 178 72.5c76 0 137.833 -23.667 185.5 -71s67.167 -116.333 58.5 -207h-445c4.66699 -56 26.167 -100.667 64.5 -134s83.833 -50 136.5 -50
c34 0 67.667 6.66699 101 20s59 31.666 77 54.999l35 -28c-23.333 -30.667 -54.333 -54.167 -93 -70.5s-78.667 -24.5 -120 -24.5zM98 267.001h401c-0.666992 60 -19 106.667 -55 140s-84.333 50 -145 50c-52.667 0 -98 -17 -136 -51s-59.667 -80.333 -65 -139z" />
    <glyph glyph-name="f" unicode="f" horiz-adv-x="358" 
d="M183 0h-48v447h-101v43h101v51c0 112.667 49.333 169 148 169c35.333 0 68 -11.333 98 -34l-24 -36c-28 16.667 -53.333 25 -76 25c-65.333 0 -98 -41.333 -98 -124v-51h163v-43h-163v-447z" />
    <glyph glyph-name="g" unicode="g" horiz-adv-x="606" 
d="M456 459l51.001 59.999l32 -28l-51 -60c22 -24 39 -48.333 51 -73s18 -57 18 -97c0 -47.333 -13.667 -91.833 -41 -133.5s-66.333 -68.5 -117 -80.5c46.667 -10.667 84 -29.667 112 -57s42 -62.666 42 -105.999c0 -56.667 -24.167 -101 -72.5 -133
s-107.166 -48 -176.499 -48c-68.667 0 -126.5 17.667 -173.5 53s-70.5 83.333 -70.5 144h49c0 -48 19.167 -85 57.5 -111s84.166 -39 137.499 -39c55.333 0 102.666 11.167 141.999 33.5s59 55.833 59 100.5s-20.333 78.5 -61 101.5s-87.334 34.5 -140.001 34.5
c-76 0 -137.5 21.333 -184.5 64s-70.5 101.667 -70.5 177c0 74.667 26 133.5 78 176.5s111 64.5 177 64.5c60.667 0 111.334 -14.333 152.001 -43zM304.001 455.999c-53.333 0 -101 -16.832 -143 -50.499s-63 -81.834 -63 -144.5c0 -64 19 -112.5 57 -145.5
s87.667 -49.5 149 -49.5c60.667 0 110 19.167 148 57.5s57 84.166 57 137.499c0 64 -20 112.5 -60 145.5s-88.333 49.5 -145 49.5z" />
    <glyph glyph-name="h" unicode="h" horiz-adv-x="588" 
d="M81 700h46.999v-298c36.667 64.667 96 97.667 178 99c67.334 0 118.667 -19.667 154 -59s53 -92.333 53 -159v-283h-48v283c0 53.334 -13.167 95.167 -39.5 125.5s-66.166 45.5 -119.499 45.5c-51.333 0 -93.5 -17.5 -126.5 -52.5s-49.5 -78.5 -49.5 -130.5v-271h-49v700
z" />
    <glyph glyph-name="i" unicode="i" horiz-adv-x="211" 
d="M130 496h-49v-496h49v496zM67 655c0 12 4.16699 21.5 12.5 28.5s17.333 10.5 27 10.5s18.667 -3.5 27 -10.5s12.5 -16.5 12.5 -28.5s-4.16699 -21.5 -12.5 -28.5s-17.333 -10.5 -27 -10.5s-18.667 3.5 -27 10.5s-12.5 16.5 -12.5 28.5z" />
    <glyph glyph-name="j" unicode="j" horiz-adv-x="210" 
d="M129 495h-47.999v-566c0 -40 -5.33301 -70.5 -16 -91.5s-33.334 -31.5 -68.001 -31.5c-26.667 0 -51.667 6.66699 -75 20l-14 -42c30 -16 59.667 -24 89 -24c50.667 0 85.5 14.667 104.5 44s28.167 71 27.5 125v566zM65.001 660c0 12 4.16699 21.5 12.5 28.5
s17.333 10.5 27 10.5s18.667 -3.5 27 -10.5s12.5 -16.5 12.5 -28.5s-4.16699 -21.5 -12.5 -28.5s-17.333 -10.5 -27 -10.5s-18.667 3.5 -27 10.5s-12.5 16.5 -12.5 28.5z" />
    <glyph glyph-name="k" unicode="k" horiz-adv-x="464" 
d="M81 700h48v-422l233 216h65v-2l-250 -231l279 -258v-3h-62l-265 242v-242h-48v700z" />
    <glyph glyph-name="l" unicode="l" horiz-adv-x="225" 
d="M88 700h49v-700h-49v700z" />
    <glyph glyph-name="m" unicode="m" horiz-adv-x="937" 
d="M862 0h-48.999v296c0 47.334 -14.667 86.167 -44 116.5s-67.333 45.5 -114 45.5s-84.834 -15.5 -114.501 -46.5s-44.5 -70.5 -44.5 -118.5v-293h-49v293c0 48 -14.833 87.333 -44.5 118s-67.834 46 -114.501 46s-84.667 -15.333 -114 -46s-44 -70 -44 -118v-293h-49v494
h46l1 -82c32 61.333 85.667 92 161 92c41.333 0 78.833 -10 112.5 -30s57.167 -50.667 70.5 -92c14.667 38.667 38.834 68.667 72.501 90s70.5 32 110.5 32c60.667 0 110.334 -19.333 149 -58c38.667 -38.667 58 -88.667 58 -150v-296z" />
    <glyph glyph-name="n" unicode="n" horiz-adv-x="603" 
d="M81 494h48v-88c35.333 63.334 94 95.667 176 97c66.667 0 120.5 -19.5 161.5 -58.5s61.5 -92.167 61.5 -159.5v-285h-49v284c0 55.333 -15.667 97.833 -47 127.5s-74.333 44.167 -129 43.5c-50.667 -0.666992 -92.167 -18 -124.5 -52s-48.5 -76.667 -48.5 -128v-275h-49
v494z" />
    <glyph glyph-name="o" unicode="o" horiz-adv-x="598" 
d="M299 -8c-71.333 0 -131 23 -179 69s-72 107.333 -72 184s24 138.667 72 186s107.667 71 179 71s131 -23.667 179 -71s72 -109.333 72 -186s-24 -138 -72 -184s-107.667 -69 -179 -69zM299 40c58 0 106.333 18.667 145 56s58 87 58 149c0 62.667 -19.5 113.5 -58.5 152.5
s-87.167 58.5 -144.5 58.5s-105.5 -19.5 -144.5 -58.5s-58.5 -89.833 -58.5 -152.5c0 -62 19.333 -111.667 58 -149s87 -56 145 -56z" />
    <glyph glyph-name="p" unicode="p" horiz-adv-x="632" 
d="M332 38c58.667 0 107 18.166 145 54.499s57 87.833 57 154.5s-19 117.834 -57 153.501s-86.333 53.5 -145 53.5c-57.333 0 -105 -19.5 -143 -58.5s-57 -88.833 -57 -149.5c0 -60 19.167 -109.667 57.5 -149s85.833 -59 142.5 -59zM128 -239.001h-47v733h48v-117
c20 38 48.833 68.167 86.5 90.5s80.167 33.5 127.5 33.5c70 -2.66699 127.5 -26.5 172.5 -71.5s67.5 -105.833 67.5 -182.5c0 -80 -23.667 -142.667 -71 -188s-107.333 -68 -180 -68c-43.333 0 -83 10.5 -119 31.5s-64.333 51.5 -85 91.5v-353z" />
    <glyph glyph-name="q" unicode="q" horiz-adv-x="632" 
d="M300 38c56.667 0 104.167 19.667 142.5 59s57.5 89 57.5 149c0 60.667 -19 110.5 -57 149.5s-85.667 58.5 -143 58.5c-58.667 0 -107 -17.833 -145 -53.5s-57 -86.834 -57 -153.5c0 -66.667 19 -118.167 57 -154.5s86.333 -54.5 145 -54.5zM551 -239h-47v353
c-20.667 -40 -49 -70.5 -85 -91.5s-75.667 -31.5 -119 -31.5c-72.667 0 -132.667 22.667 -180 68s-71 108 -71 188c0 76.667 22.5 137.5 67.5 182.5s102.5 68.833 172.5 71.5c47.333 0 89.833 -11.167 127.5 -33.5s66.5 -52.5 86.5 -90.5v117h48v-733z" />
    <glyph glyph-name="r" unicode="r" horiz-adv-x="403" 
d="M81 494l46 0.000976562l2 -88c14.667 31.333 37 54.666 67 69.999s62.333 23 97 23c37.334 1.33301 72.667 -8.33398 106 -29l-22 -40c-24.667 15.333 -52.667 23 -84 23c-46 -0.666992 -84.667 -17 -116 -49s-47 -70.667 -47 -116v-288h-49v494z" />
    <glyph glyph-name="s" unicode="s" horiz-adv-x="501" 
d="M437 436l-30.002 -32c-39.333 34.667 -90.666 52 -153.999 52c-42 0.666992 -77.5 -6.83301 -106.5 -22.5s-43.167 -38.5 -42.5 -68.5c0 -10.667 2.16699 -20.167 6.5 -28.5c4.33398 -8.33301 11.167 -15.666 20.5 -21.999s17.5 -11.333 24.5 -15
c7 -3.66895 18.167 -7.33594 33.5 -11c15.333 -3.66699 25.833 -6.16699 31.5 -7.5s16.834 -3.33301 33.5 -6c68 -11.333 114 -23.333 138 -36c46 -22.667 68 -59 66 -109c-0.667969 -34 -12.335 -61.833 -35 -83.5c-22.667 -21.667 -48.167 -36.167 -76.5 -43.5
s-58.833 -11 -91.5 -11c-45.333 0 -87.5 8.5 -126.5 25.5s-68.833 41.5 -89.5 73.5l36 32c19.333 -28 45.5 -49 78.5 -63s67.167 -21 102.5 -21c24 0 46.333 2.16699 67 6.5s40.167 14 58.5 29s27.833 34.5 28.5 58.5c0.666992 14 -2.33301 26.167 -9 36.5
s-14.167 18.666 -22.5 24.999s-21 12 -38 17s-31.167 8.66699 -42.5 11s-27.666 5.16602 -48.999 8.49902c-24.667 4 -44 7.5 -58 10.5s-30.667 7.83301 -50 14.5s-34.166 14.334 -44.499 23.001s-19.5 20.167 -27.5 34.5c-8 14.334 -12 31.167 -12 50.5
c-0.666992 45.333 18.166 79.833 56.499 103.5s84.833 35.167 139.5 34.5c76 0 137.333 -22 184 -66z" />
    <glyph glyph-name="t" unicode="t" horiz-adv-x="376" 
d="M138 638l48 5.00098v-149h168v-41h-168v-301c0 -38 6.16699 -66.5 18.5 -85.5s36.5 -28.5 72.5 -28.5c22.667 0 48 6.66699 76 20l17 -40c-34.667 -16.667 -65.667 -25 -93 -25c-50 0 -85.667 13.667 -107 41s-32 66.666 -32 117.999v301h-105v41h105v144z" />
    <glyph glyph-name="u" unicode="u" horiz-adv-x="602" 
d="M521 0l-48 -0.000976562v89c-35.333 -63.333 -94 -95.666 -176 -96.999c-66.667 0 -120.5 19.5 -161.5 58.5s-61.5 92.167 -61.5 159.5v285h49v-284c0 -55.333 15.667 -97.833 47 -127.5s74.333 -44.167 129 -43.5c50.667 0.666992 92.167 18 124.5 52
s48.5 76.667 48.5 128v275h49v-495z" />
    <glyph glyph-name="v" unicode="v" horiz-adv-x="542" 
d="M244 0l-207 494h54l180 -437l180 437h54l-207 -494h-54z" />
    <glyph glyph-name="w" unicode="w" horiz-adv-x="822" 
d="M781 494l-175 -494h-54l-80 216l-60 192l-62 -193l-80 -215h-54l-176 494h54l149 -437l151 437h35l150 -437l148 437h54z" />
    <glyph glyph-name="x" unicode="x" horiz-adv-x="474" 
d="M90 494l147 -202l147 202h59v-2l-177 -236l191 -254v-2h-58l-162 221l-162 -221h-58v2l191 254l-177 236v2h59z" />
    <glyph glyph-name="y" unicode="y" horiz-adv-x="533" 
d="M446 494h53l-314 -733h-52l104 245l-198 488h53l115 -292l58 -143l57 144z" />
    <glyph glyph-name="z" unicode="z" horiz-adv-x="456" 
d="M46 450v44h372v-19l-312 -429h312v-46h-388v17l315 433h-299z" />
    <glyph glyph-name="braceleft" unicode="{" horiz-adv-x="304" 
d="M268 -87l0.000976562 -37.998c-60 -8.66699 -100.333 -2.83398 -121 17.499s-31 59.833 -31 118.5v147c0 78.667 -26.333 118 -79 118v39c52.667 0 79 39.333 79 118v135c0 58 11.167 98 33.5 120s61.833 27.667 118.5 17v-34
c-42.667 6.66699 -71.334 2.66699 -86.001 -12s-22 -45 -22 -91v-135c0 -13.333 -0.333008 -24.5 -1 -33.5s-2.33398 -19.833 -5.00098 -32.5s-6.33398 -23 -11.001 -31s-11.667 -15.833 -21 -23.5s-20.666 -13.167 -33.999 -16.5c16 -4 29.333 -10.833 40 -20.5
s18 -21.667 22 -36s6.66699 -27.333 8 -39s2 -25.834 2 -42.501v-147c0 -45.333 7.33301 -74.833 22 -88.5c14.667 -13.666 43.334 -16.833 86.001 -9.5z" />
    <glyph glyph-name="bar" unicode="|" horiz-adv-x="236" 
d="M144 705v-823h-52v823h52z" />
    <glyph glyph-name="braceright" unicode="}" horiz-adv-x="303" 
d="M35 -131l0.00195312 37.9971c42.667 -7.33301 71.334 -4.16602 86.001 9.50098s22 43.167 22 88.5v147c0 16.667 0.666992 30.834 2 42.501s4 24.667 8 39s11.333 26.333 22 36s24 16.5 40 20.5c-13.334 3.33301 -24.667 8.83301 -34 16.5s-16.333 15.5 -21 23.5
s-8.33398 18.333 -11.001 31s-4.33398 23.5 -5.00098 32.5s-1 20.167 -1 33.5v135c0 46 -7.33301 76.333 -22 91s-43.334 18.667 -86.001 12v34c56.667 10.667 96.167 5 118.5 -17s33.5 -62 33.5 -120v-135c0 -78.667 26.333 -118 79 -118v-39
c-52.667 0 -79 -39.333 -79 -118v-147c0 -58.667 -10.333 -98.167 -31 -118.5s-61 -26.166 -121 -17.499z" />
    <glyph glyph-name="asciitilde" unicode="~" horiz-adv-x="645" 
d="M570 334c-17.334 -46 -42.668 -76.168 -76 -90.501c-33.333 -14.333 -72.333 -10.5 -117 11.5l-109 63c-34.667 16 -65.5 18.333 -92.5 7s-47.167 -32.333 -60.5 -63l-37 18c20 45.333 48.333 75.833 85 91.5s78.667 11.834 126 -11.499l102 -58
c68 -36.667 114 -20.667 138 48z" />
    <glyph glyph-name="exclamdown" unicode="&#xa1;" horiz-adv-x="220" 
d="M85 -201h51v559h-51v-559zM148 464c0 -12 -4.16699 -21.5 -12.5 -28.5s-17.333 -10.5 -27 -10.5s-18.667 3.5 -27 10.5s-12.5 16.5 -12.5 28.5s4.16699 21.5 12.5 28.5s17.333 10.5 27 10.5s18.667 -3.5 27 -10.5s12.5 -16.5 12.5 -28.5z" />
    <glyph glyph-name="cent" unicode="&#xa2;" horiz-adv-x="538" 
d="M328 -14l-0.00195312 -71.001h-48v71c-67.333 6 -122.666 31 -165.999 75s-65 102.667 -65 176c0 70.667 21.667 128.667 65 174s98.666 71 165.999 77v60h48v-60c60.667 -6.66699 112.667 -31 156 -73l-34 -31c-41.333 40 -90 60 -146 60
c-59.333 0 -108.666 -18.167 -147.999 -54.5s-59 -87.166 -59 -152.499c0 -66.667 19.5 -117.667 58.5 -153s88.5 -53 148.5 -53c54.667 0 103.334 20.667 146.001 62l34 -35c-44 -42.667 -96 -66.667 -156 -72z" />
    <glyph glyph-name="sterling" unicode="&#xa3;" horiz-adv-x="644" 
d="M59 308l0.000976562 43.002h80c-18 67.333 -27 119.333 -27 156c0 65.333 22.5 114.833 67.5 148.5s102.167 50.5 171.5 50.5c66 0 120 -14 162 -42s63.333 -74.333 64 -139h-46c0 34.667 -9.66699 62.5 -29 83.5s-41.333 34.833 -66 41.5s-53 10 -85 10
c-57.333 0 -103.333 -13.167 -138 -39.5c-34.667 -26.334 -52 -64.167 -52 -113.5c0 -12.667 1 -26.5 3 -41.5s4 -27.333 6 -37c2 -9.66797 5.16699 -23.335 9.5 -41c4.33301 -17.668 7.16602 -29.835 8.49902 -36.5h259v-43h-250c4.66699 -30.667 7 -59.834 7 -87.501
s-7 -56.5 -21 -86.5s-35.333 -58.667 -64 -86h465v-48h-525v45c33.333 34 58 66.667 74 98s24.167 59.666 24.5 84.999s-2.16699 52 -7.5 80h-91z" />
    <glyph glyph-name="currency" unicode="&#xa4;" horiz-adv-x="572" 
d="M505 514l-59.0029 -59.0029c28.667 -37.333 42.834 -80.666 42.501 -129.999s-14.833 -92.333 -43.5 -129l60 -60l-35 -35l-61 60c-33.333 -24.667 -74.333 -37 -123 -37s-90 12.333 -124 37l-60 -60l-35 35l60 60c-28.667 36.667 -43.167 79.834 -43.5 129.501
s13.834 92.834 42.501 129.501l-59 59l35 35l59 -60c34.667 26 76.334 39 125.001 39c48 0 89.333 -13 124 -39l60 60zM285.997 170.997c28 0 52.833 5.66699 74.5 17s38.167 26.166 49.5 44.499c11.335 18.333 19.668 38.5 25 60.5c5.33301 22 5.33301 44.167 0 66.5
c-5.33301 22.334 -13.666 42.667 -24.999 61c-11.333 18.334 -27.833 33.167 -49.5 44.499c-21.667 11.333 -46.5 17 -74.5 17s-53 -5.66699 -75 -17s-38.667 -26.166 -50 -44.499c-11.334 -18.333 -19.667 -38.5 -25 -60.5s-5.33301 -44.167 0 -66.5
s13.666 -42.666 24.999 -60.999c11.333 -18.334 28 -33.167 50 -44.5s47 -17 75 -17z" />
    <glyph glyph-name="yen" unicode="&#xa5;" horiz-adv-x="661" 
d="M149 167v41h154v63h-154v41h133l-252 387v1h61l239 -368l240 368h61v-1l-254 -387h139v-41h-160v-63h160v-41h-160v-167h-53v167h-154z" />
    <glyph glyph-name="brokenbar" unicode="&#xa6;" horiz-adv-x="238" 
d="M146 342h-54v364h54v-364zM92 275h54v-363h-54v363z" />
    <glyph glyph-name="section" unicode="&#xa7;" horiz-adv-x="540" 
d="M456 650l-30.0068 -31.0049c-39.333 34 -90.666 51 -153.999 51c-41.333 0.666992 -76.666 -6.83301 -105.999 -22.5s-43.666 -37.834 -42.999 -66.501c0.666992 -15.334 5.33398 -28.667 14.001 -39.999c8.66699 -11.333 21.834 -20.333 39.501 -27
s32.5 -11.5 44.5 -14.5s29 -6.5 51 -10.5c22.667 -3.33301 41.667 -6.66602 57 -9.99902s33.5 -8.66602 54.5 -15.999s37.667 -15.5 50 -24.5s22.833 -21.167 31.5 -36.5s12.667 -32.666 12 -51.999c-2 -58 -36 -95 -102 -111c70.667 -21.333 104.667 -61.666 102 -120.999
c-0.667969 -33.333 -12.335 -60.666 -35.001 -81.999c-22.667 -21.333 -48 -35.5 -76 -42.5s-58.667 -10.5 -92 -10.5c-45.333 0 -87.5 8.33301 -126.5 25s-68.833 40.667 -89.5 72l36 31c19.333 -27.333 45.5 -47.833 78.5 -61.5s67.167 -20.5 102.5 -20.5
c17.333 0 33.833 1.33301 49.5 4s31.834 7.16699 48.501 13.5s30.167 15.833 40.5 28.5s15.833 28 16.5 46c1.33301 36.667 -23 62 -73 76c-15.333 4 -45 9.66699 -89 17c-127.333 20 -191.666 64.667 -192.999 134c-0.666992 24.667 7.5 48.167 24.5 70.5
s39.833 38.5 68.5 48.5c-61.333 22 -92.333 59.667 -93 113c-0.666992 44.667 18.333 78.5 57 101.5s85.334 34.167 140.001 33.5c76.667 0 138 -21.667 184 -65zM429.993 352.995c-0.666992 21.333 -11.665 40.001 -32.998 56.001s-47.333 26.333 -78 31s-61 5.66699 -91 3
c-30 -2.66797 -55.333 -12.335 -76 -29c-20.667 -16.667 -30.334 -38.334 -29.001 -65.001c0.666992 -21.333 11.667 -39.833 33 -55.5s47.166 -25.5 77.499 -29.5s60.5 -4.33301 90.5 -1s55.333 13 76 29s30.667 36.333 30 61z" />
    <glyph glyph-name="dieresis" unicode="&#xa8;" horiz-adv-x="455" 
d="M64 678c0 12 4.16699 21.5 12.5 28.5s17.333 10.5 27 10.5s18.667 -3.5 27 -10.5s12.5 -16.5 12.5 -28.5s-4.16699 -21.5 -12.5 -28.5s-17.333 -10.5 -27 -10.5s-18.667 3.5 -27 10.5s-12.5 16.5 -12.5 28.5zM278 678c0 12 4.16699 21.5 12.5 28.5s17.333 10.5 27 10.5
s18.667 -3.5 27 -10.5s12.5 -16.5 12.5 -28.5s-4.16699 -21.5 -12.5 -28.5s-17.333 -10.5 -27 -10.5s-18.667 3.5 -27 10.5s-12.5 16.5 -12.5 28.5z" />
    <glyph glyph-name="copyright" unicode="&#xa9;" horiz-adv-x="836" 
d="M418 713c111.333 0 199.333 -34.832 264 -104.499s97 -156.5 97 -260.5c0 -103.333 -32.333 -190 -97 -260s-152.667 -105 -264 -105c-112 0 -200.167 35 -264.5 105s-96.5 156.667 -96.5 260c0 104 32.167 190.833 96.5 260.499c64.333 69.667 152.5 104.5 264.5 104.5z
M567 212.001l-35 36.998c-28.667 -28.667 -62.667 -43 -102 -43c-41.333 0 -75.833 14 -103.5 42s-41.5 62.333 -41.5 103s14 74.834 42 102.501s62.333 41.5 103 41.5c38.667 0 72.667 -14 102 -42l35 36c-36.667 38 -82.334 57 -137.001 57
c-55.333 0 -101.833 -18.667 -139.5 -56s-56.5 -83.666 -56.5 -138.999s18.833 -101.833 56.5 -139.5s84.167 -56.5 139.5 -56.5c54.667 0 100.334 19 137.001 57zM107 347.999c0 -92 27.833 -168.333 83.5 -229s131.5 -91 227.5 -91s171.667 30.333 227 91s83 137 83 229
c0 92.667 -27.667 169.334 -83 230.001s-131 91 -227 91s-171.833 -30.333 -227.5 -91s-83.5 -137.334 -83.5 -230.001z" />
    <glyph glyph-name="ordfeminine" unicode="&#xaa;" horiz-adv-x="500" 
d="M366 639v62h44v-324h-44v63c-30 -44.667 -72.333 -67 -127 -67c-46.667 0 -85.834 15.167 -117.501 45.5s-47.5 70.833 -47.5 121.5s15.833 91 47.5 121s70.834 45 117.501 45c56 0 98.333 -22.333 127 -67zM242 660c-33.333 0 -61.334 -11.1689 -84.001 -33.502
c-22.667 -22.334 -34 -51.167 -34 -86.499c0 -35.333 11.333 -64.333 34 -87s50.667 -34 84 -34c30 0 55.333 8.33301 76 25s33.334 36.834 38.001 60.501s4.66699 47.167 0 70.5s-17.334 43.333 -38 60c-20.667 16.667 -46 25 -76 25zM85.999 266.998v48h334v-48h-334z" />
    <glyph glyph-name="guillemotleft" unicode="&#xab;" horiz-adv-x="389" 
d="M50 297l138 219h52v-5l-135 -214l135 -214v-6h-52zM282 77l-138 220l138 219h52v-5l-135 -214l135 -214v-6h-52z" />
    <glyph glyph-name="logicalnot" unicode="&#xac;" horiz-adv-x="502" 
d="M424 362v-187h-50v136h-297v51h347z" />
    <glyph glyph-name="registered" unicode="&#xae;" horiz-adv-x="836" 
d="M418 713c112 0 200.167 -34.832 264.5 -104.499s96.5 -156.5 96.5 -260.5c0 -103.333 -32.167 -190 -96.5 -260s-152.5 -105 -264.5 -105c-111.333 0 -199.333 35 -264 105s-97 156.667 -97 260c0 104 32.333 190.833 97 260.499c64.667 69.667 152.667 104.5 264 104.5z
M108 348.001c0 -92 27.667 -168.333 83 -229s131 -91 227 -91s171.833 30.333 227.5 91s83.5 137 83.5 229c0 92.667 -27.833 169.334 -83.5 230.001s-131.5 91 -227.5 91s-171.667 -30.333 -227 -91s-83 -137.334 -83 -230.001zM472 306.001
c36 4.66699 63.834 19.832 83.501 45.499c19.6709 25.667 28.8379 52.834 27.5 81.501c-1.33301 28.667 -13.333 54.5 -36 77.5s-53.334 34.5 -92.001 34.5h-170v-383h47v144h83l125 -144h52v8zM332.001 347.999v151h123c20.667 0 37.834 -5.16699 51.501 -15.5
s22.167 -22.833 25.5 -37.5s3.16602 -29.5 -0.500977 -44.5s-12.667 -27.667 -27 -38s-31.833 -15.5 -52.5 -15.5h-120z" />
    <glyph glyph-name="macron" unicode="&#xaf;" horiz-adv-x="394" 
d="M35 656v46h314v-46h-314z" />
    <glyph glyph-name="degree" unicode="&#xb0;" horiz-adv-x="325" 
d="M163 529c-33.333 0 -59.5 10.167 -78.5 30.5s-28.5 42.833 -28.5 67.5s9.5 47.167 28.5 67.5s45.167 30.5 78.5 30.5s59.333 -10.167 78 -30.5s28 -42.833 28 -67.5s-9.33301 -47.167 -28 -67.5s-44.667 -30.5 -78 -30.5zM163 568c24.667 0 42 10 52 30s10 39.833 0 59.5
s-27.333 29.5 -52 29.5s-42.667 -9.83301 -54 -29.5s-11.833 -39.5 -1.5 -59.5s28.833 -30 55.5 -30z" />
    <glyph glyph-name="plusminus" unicode="&#xb1;" horiz-adv-x="526" 
d="M77 345v45h163v164h46v-164h162v-45h-162v-166h-46v166h-163zM85 47v47h358v-47h-358z" />
    <glyph glyph-name="twosuperior" unicode="&#xb2;" horiz-adv-x="358" 
d="M93 683h-46c0 70.667 45 106 135 106c37.333 0 68.833 -8 94.5 -24s38.5 -43.333 38.5 -82c0 -72 -44 -108 -132 -108c-22 0 -42.5 -5 -61.5 -15s-28.5 -27.667 -28.5 -53v-30h219v-49h-267v80c0 34.667 13.5 61.5 40.5 80.5s59.5 28.5 97.5 28.5c56.667 0 85 22 85 66
c0 42.667 -29 64 -87 64c-27.333 0 -48.833 -4.33301 -64.5 -13s-23.5 -25.667 -23.5 -51z" />
    <glyph glyph-name="threesuperior" unicode="&#xb3;" horiz-adv-x="356" 
d="M179 593l-55.002 0.000976562v43h51c22.667 0 42.667 4.5 60 13.5s26 23.167 26 42.5c0 14.6689 -7.66699 27.8359 -23 39.5c-15.333 11.667 -36.333 17.5 -63 17.5c-21.333 0 -41.166 -5 -59.499 -15s-27.5 -26.667 -27.5 -50h-43c0 35.333 12.5 61.666 37.5 78.999
s55.833 26 92.5 26s67.834 -8.5 93.501 -25.5s38.5 -41.167 38.5 -72.5c0 -20 -5.33301 -36.667 -16 -50s-24.667 -22.333 -42 -27c20 -5.33789 35.833 -15.6709 47.5 -31c11.667 -15.333 17.5 -31.333 17.5 -48c0 -73.333 -46.333 -110 -139 -110
c-38.667 0 -70.667 8.5 -96 25.5s-38.333 44.167 -39 81.5h48c0 -41.333 29.333 -62 88 -62c60.667 0 91 21.667 91 65c0 14 -7.33301 27.167 -22 39.5s-36.667 18.5 -66 18.5z" />
    <glyph glyph-name="acute" unicode="&#xb4;" horiz-adv-x="224" 
d="M87 577h-48v4l75 120h65v-1z" />
    <glyph glyph-name="mu" unicode="&#xb5;" horiz-adv-x="596" 
d="M489 70c-22.667 -40 -58.834 -67.167 -108.501 -81.5s-98.167 -13.5 -145.5 2.5s-79 43.333 -95 82v-299h-51v717h49v-298c0 -65.333 26.333 -114 79 -146c45.333 -28.667 94 -35.667 146 -21c54.667 15.333 91.334 50.333 110.001 105c8 22.667 12 48 12 76v284h49v-491
h-42z" />
    <glyph glyph-name="mu" unicode="&#x3bc;" horiz-adv-x="596" 
d="M489 70c-22.667 -40 -58.834 -67.167 -108.501 -81.5s-98.167 -13.5 -145.5 2.5s-79 43.333 -95 82v-299h-51v717h49v-298c0 -65.333 26.333 -114 79 -146c45.333 -28.667 94 -35.667 146 -21c54.667 15.333 91.334 50.333 110.001 105c8 22.667 12 48 12 76v284h49v-491
h-42z" />
    <glyph glyph-name="paragraph" unicode="&#xb6;" horiz-adv-x="782" 
d="M337 655v-871h-49v411c-45.333 0 -85.5 9.33301 -120.5 28s-61.5 42.667 -79.5 72s-31 62 -39 98s-7.5 72 1.5 108s22.833 68.667 41.5 98s45.5 53.333 80.5 72s74.833 28 119.5 28h467v-44h-106v-871h-47v871h-269z" />
    <glyph glyph-name="periodcentered" unicode="&#xb7;" horiz-adv-x="225" 
d="M73 290c0 12 4.16699 21.5 12.5 28.5s17.333 10.5 27 10.5s18.667 -3.5 27 -10.5s12.5 -16.5 12.5 -28.5s-4.16699 -21.5 -12.5 -28.5c-8.33398 -7 -17.334 -10.5 -27 -10.5c-9.66699 0 -18.667 3.5 -27 10.5s-12.5 16.5 -12.5 28.5z" />
    <glyph glyph-name="cedilla" unicode="&#xb8;" horiz-adv-x="296" 
d="M94 -71l-6.00098 4.99902l20 88h39l-13 -58c38 2 64.833 -7.5 80.5 -28.5s20.167 -45.167 13.5 -72.5c-6 -23.333 -18.667 -40.833 -38 -52.5s-41 -17.5 -65 -17.5c-49.333 0 -83.666 17.667 -102.999 53l28 27c18 -26 43 -39 75 -39c35.333 0 56.333 12.667 63 38
c6 20 0.5 36.333 -16.5 49s-42.833 15.334 -77.5 8.00098z" />
    <glyph glyph-name="onesuperior" unicode="&#xb9;" horiz-adv-x="241" 
d="M38 427v41h63v260l-55 -14v44l103 23v-313h65v-41h-176z" />
    <glyph glyph-name="ordmasculine" unicode="&#xba;" horiz-adv-x="485" 
d="M83 260v48h319v-48h-319zM242 373c-46.667 0 -85.835 15.167 -117.502 45.5s-47.5 70.833 -47.5 121.5s15.833 91 47.5 121s70.834 45 117.501 45s85.834 -15 117.501 -45s47.5 -70.333 47.5 -121s-15.833 -91.167 -47.5 -121.5s-70.834 -45.5 -117.5 -45.5zM241.999 419
c33.333 0 60.833 11.334 82.5 34.001s32.5 51.667 32.5 87s-10.833 64.166 -32.5 86.499s-49.167 33.5 -82.5 33.5s-60.833 -11.167 -82.5 -33.5c-21.667 -22.335 -32.5 -51.168 -32.5 -86.5c0 -35.333 10.833 -64.333 32.5 -87s49.167 -34 82.5 -34z" />
    <glyph glyph-name="guillemotright" unicode="&#xbb;" horiz-adv-x="389" 
d="M339 298l-138 -220h-52v6l135 214l-135 214v5h52zM245 298l-138 -220h-52v6l135 214l-135 214v5h52z" />
    <glyph glyph-name="onequarter" unicode="&#xbc;" horiz-adv-x="717" 
d="M574 356h65v-233h42v-44h-42v-78h-45v78h-192l-3 37zM455 123h139v189zM50 348v41h63v260l-55 -14v44l103 23v-313h65v-41h-176zM194 -2h-53l371 705h54z" />
    <glyph glyph-name="onehalf" unicode="&#xbd;" horiz-adv-x="776" 
d="M508 255h-46c0 70.667 45 106 135 106c37.333 0 68.833 -8 94.5 -24s38.5 -43.333 38.5 -82c0 -72 -44 -108 -132 -108c-22 0 -42.5 -5 -61.5 -15s-28.5 -27.667 -28.5 -53v-37h216v-42h-264v80c0 34.667 13.5 61.5 40.5 80.5s59.5 28.5 97.5 28.5c56.667 0 85 22 85 66
c0 42.667 -29 64 -87 64c-27.333 0 -48.833 -4.33301 -64.5 -13s-23.5 -25.667 -23.5 -51zM192 -2h-53l371 705h54zM50 349v41h63v260l-55 -14v44l103 23v-313h65v-41h-176z" />
    <glyph glyph-name="threequarters" unicode="&#xbe;" horiz-adv-x="755" 
d="M611 356h65v-233h42v-44h-42v-78h-45v78h-192l-3 37zM492 123h139v189zM181 520l-53.999 -0.000976562v42h50c22 0 41.667 4.33301 59 13s26 22.667 26 42c0 14.667 -7.66699 27.667 -23 39s-36 17 -62 17c-20.667 0 -40 -4.83301 -58 -14.5s-27 -26.167 -27 -49.5h-42
c0 34.667 12.167 60.5 36.5 77.5s54.5 25.5 90.5 25.5c36.667 0 67.5 -8.16699 92.5 -24.5c25 -16.335 37.5 -40.168 37.5 -71.5c0 -40 -19 -65.333 -57 -76c20 -4.66699 35.667 -14.667 47 -30s17 -31 17 -47c0 -39.333 -13 -67.166 -39 -83.499s-58.667 -24.5 -98 -24.5
c-37.333 0 -68.5 8.33301 -93.5 25s-37.833 43.334 -38.5 80.001h47c0 -40.667 28.667 -61 86 -61c60 0 90 21.333 90 64c0 13.335 -7.33301 26.168 -22 38.499c-14.667 12.333 -36.334 18.5 -65.001 18.5zM247.001 -2.00098h-53l371 705h54z" />
    <glyph glyph-name="questiondown" unicode="&#xbf;" horiz-adv-x="606" 
d="M574 -12l-52.001 0.000976562c0 -29.333 -6.83301 -54.833 -20.5 -76.5s-31.667 -38 -54 -49s-45.166 -18.833 -68.499 -23.5s-47.666 -7 -72.999 -7c-146 0 -219 51 -219 153c0 76 35.667 124.667 107 146c61.333 18 102.833 42.5 124.5 73.5s32.5 81.167 32.5 150.5
h-50c0 -62.667 -6.83301 -104.167 -20.5 -124.5s-46.834 -38.5 -99.501 -54.5c-40 -12 -74.167 -33.167 -102.5 -63.5s-42.5 -72.833 -42.5 -127.5c0 -30.667 5.33301 -58 16 -82s24.667 -43.333 42 -58s38 -26.667 62 -36s48.167 -15.833 72.5 -19.5
s50.166 -5.5 77.499 -5.5c26 0 51.333 2.16699 76 6.5s48.834 11.666 72.501 21.999s44.167 23 61.5 38s31.333 34.333 42 58s16 50.167 16 79.5zM360.999 460.001c0 -16.668 -6.5 -28.3359 -19.5 -35.001c-13 -6.66699 -26 -6.66699 -39 0s-19.5 18.334 -19.5 35.001
s6.5 28.334 19.5 35.001s26 6.66699 39 0c13 -6.66895 19.5 -18.3359 19.5 -35.001z" />
    <glyph glyph-name="Agrave" unicode="&#xc0;" horiz-adv-x="739" 
d="M713 0h-58l-77 172h-418l-76 -172h-58l314 700h59zM181 222h376l-188 426zM397 772h-48l-92 123v1h65l75 -120v-4z" />
    <glyph glyph-name="Aacute" unicode="&#xc1;" horiz-adv-x="739" 
d="M655 0h58l-314 700h-59l-314 -700h58l76 172h418zM557 222h-376l188 426zM385 771h-48v4l75 120h65v-1z" />
    <glyph glyph-name="Acircumflex" unicode="&#xc2;" horiz-adv-x="739" 
d="M655 0h58l-314 700h-59l-314 -700h58l76 172h418zM557 222h-376l188 426zM207 766l142 132h40l142 -132v-7h-53l-109 96l-109 -96h-53v7z" />
    <glyph glyph-name="Atilde" unicode="&#xc3;" horiz-adv-x="739" 
d="M713 0h-58l-77 172h-418l-76 -172h-58l314 700h59zM181 222h376l-188 426zM278 785l-34 11c3.33301 29.333 16.833 49.5 40.5 60.5s47.5 10.167 71.5 -2.5l41 -22c12 -6.66699 24.167 -8 36.5 -4s20.5 14 24.5 30l34 -11c-2.66699 -30 -16 -50.5 -40 -61.5
s-48 -9.83301 -72 3.5l-41 22c-12 6.67871 -24.167 7.8457 -36.5 3.5c-12.333 -4.33984 -20.5 -14.1729 -24.5 -29.5z" />
    <glyph glyph-name="Adieresis" unicode="&#xc4;" horiz-adv-x="739" 
d="M655 0h58l-314 700h-59l-314 -700h58l76 172h418zM557 222h-376l188 426zM224 811c0 12 4.16699 21.5 12.5 28.5s17.333 10.5 27 10.5s18.667 -3.5 27 -10.5s12.5 -16.5 12.5 -28.5s-4.16699 -21.5 -12.5 -28.5s-17.333 -10.5 -27 -10.5s-18.667 3.5 -27 10.5
s-12.5 16.5 -12.5 28.5zM438 811c0 12 4.16699 21.5 12.5 28.5s17.333 10.5 27 10.5s18.667 -3.5 27 -10.5s12.5 -16.5 12.5 -28.5s-4.16699 -21.5 -12.5 -28.5s-17.333 -10.5 -27 -10.5s-18.667 3.5 -27 10.5s-12.5 16.5 -12.5 28.5z" />
    <glyph glyph-name="Aring" unicode="&#xc5;" horiz-adv-x="739" 
d="M266 788c0 30 10.332 53.5 30.999 70.5s45.334 25.5 74.001 25.5s53.667 -8.5 75 -25.5s32 -40.5 32 -70.5c0 -24.667 -6.83301 -45.5 -20.5 -62.5s-32.167 -28.167 -55.5 -33.5l311 -692h-58l-77 172h-418l-76 -172h-58l311 693c-47.333 12 -71 43.667 -71 95z
M180.999 222h376l-188 426zM369.999 846c-24.667 0 -42.167 -10 -52.5 -30s-10.333 -39.833 0 -59.5s27.833 -29.5 52.5 -29.5c26 0 44.333 9.83301 55 29.5s10.667 39.5 0 59.5s-29 30 -55 30z" />
    <glyph glyph-name="AE" unicode="&#xc6;" horiz-adv-x="929" 
d="M498 651v-274h345v-49h-345v-277h379v-51h-429v248h-250l-147 -248h-62l426 700h448v-49h-365zM448 297v362h-5l-216 -362h221z" />
    <glyph glyph-name="Ccedilla" unicode="&#xc7;" horiz-adv-x="715" 
d="M371 -96l-6.00195 5l21 84c-104 6.66699 -184.833 43.334 -242.5 110.001s-86.834 147.667 -87.501 243c-0.666992 64 12 123 38 177s67 98.333 123 133s122.333 52 199 52c100 0 185 -35 255 -105l-37 -32c-59.333 59.333 -132 89 -218 89
c-98 0 -174 -29.833 -228 -89.5s-80.667 -133.834 -80 -222.5c1.33301 -86.667 28.833 -159.334 82.5 -218.001s128.834 -88 225.501 -88c85.333 0 158.333 29.667 219 89l36 -34c-68 -68 -150.333 -103 -247 -105l-12 -53c38 2 65 -7.5 81 -28.5s20.667 -45.167 14 -72.5
c-6 -23.333 -18.833 -41.166 -38.5 -53.5c-19.667 -12.333 -41.5 -18.5 -65.5 -18.5c-21.333 0 -41.666 4.66699 -60.999 14s-33.666 22.666 -42.999 39.999l29 28c18 -26 43 -39 75 -39c35.333 0 56.333 12.667 63 38c6 20 0.333008 36.333 -17 49
s-43.333 15.334 -78 8.00098z" />
    <glyph glyph-name="Egrave" unicode="&#xc8;" horiz-adv-x="649" 
d="M152 649v-272h410v-49h-410v-276h442v-52h-495v700h483v-51h-430zM400 781h-48l-92 123v1h65l75 -120v-4z" />
    <glyph glyph-name="Eacute" unicode="&#xc9;" horiz-adv-x="649" 
d="M152 377v272h430v51h-483v-700h495v52h-442v276h410v49h-410zM356 778h-48v4l75 120h65v-1z" />
    <glyph glyph-name="Ecircumflex" unicode="&#xca;" horiz-adv-x="649" 
d="M152 377v272h430v51h-483v-700h495v52h-442v276h410v49h-410zM188 780l142 132h40l142 -132v-7h-53l-109 96l-109 -96h-53v7z" />
    <glyph glyph-name="Edieresis" unicode="&#xcb;" horiz-adv-x="649" 
d="M152 377v272h430v51h-483v-700h495v52h-442v276h410v49h-410zM210 818c0 12 4.16699 21.5 12.5 28.5s17.333 10.5 27 10.5s18.667 -3.5 27 -10.5s12.5 -16.5 12.5 -28.5s-4.16699 -21.5 -12.5 -28.5s-17.333 -10.5 -27 -10.5s-18.667 3.5 -27 10.5s-12.5 16.5 -12.5 28.5
zM424 818c0 12 4.16699 21.5 12.5 28.5s17.333 10.5 27 10.5s18.667 -3.5 27 -10.5s12.5 -16.5 12.5 -28.5s-4.16699 -21.5 -12.5 -28.5s-17.333 -10.5 -27 -10.5s-18.667 3.5 -27 10.5s-12.5 16.5 -12.5 28.5z" />
    <glyph glyph-name="Igrave" unicode="&#xcc;" horiz-adv-x="251" 
d="M157 778h-48l-92 123v1h65l75 -120v-4zM152 0h-53v700h53v-700z" />
    <glyph glyph-name="Iacute" unicode="&#xcd;" horiz-adv-x="251" 
d="M99 0h53v700h-53v-700zM145 777h-48v4l75 120h65v-1z" />
    <glyph glyph-name="Icircumflex" unicode="&#xce;" horiz-adv-x="251" 
d="M99 0h53v700h-53v-700zM-24 767l128 131h36l127 -131v-7h-47l-98 95l-98 -95h-48v7z" />
    <glyph glyph-name="Idieresis" unicode="&#xcf;" horiz-adv-x="251" 
d="M6 810c0 12 4.16699 21.5 12.5 28.5s17.333 10.5 27 10.5s18.667 -3.5 27 -10.5s12.5 -16.5 12.5 -28.5s-4.16699 -21.5 -12.5 -28.5s-17.333 -10.5 -27 -10.5s-18.667 3.5 -27 10.5s-12.5 16.5 -12.5 28.5zM166 810c0 12 4.16699 21.5 12.5 28.5s17.333 10.5 27 10.5
s18.667 -3.5 27 -10.5s12.5 -16.5 12.5 -28.5s-4.16699 -21.5 -12.5 -28.5s-17.333 -10.5 -27 -10.5s-18.667 3.5 -27 10.5s-12.5 16.5 -12.5 28.5zM99 0h53v700h-53v-700z" />
    <glyph glyph-name="Eth" unicode="&#xd0;" horiz-adv-x="752" 
d="M38 317v48.999h67v334h237c57.333 0 108.833 -9.66699 154.5 -29s82.667 -45.333 111 -78s50 -69 65 -109s23.167 -82 24.5 -126c1.33301 -45.333 -5.16699 -89 -19.5 -131c-14.3359 -42 -35.6689 -80.167 -64 -114.5c-28.333 -34.333 -65.833 -61.666 -112.5 -81.999
s-99.667 -30.5 -159 -30.5h-237v317h-67zM342 648.999h-182.999v-283h163v-49h-163v-265h183c97.333 0 172.166 30.5 224.499 91.5s77.833 132.5 76.5 214.5c-1.33496 80 -28.168 148.5 -80.5 205.5c-52.333 57 -125.833 85.5 -220.5 85.5z" />
    <glyph glyph-name="Ntilde" unicode="&#xd1;" horiz-adv-x="745" 
d="M299 782l-34 11c3.33301 29.333 16.833 49.5 40.5 60.5s47.5 10.167 71.5 -2.5l41 -22c12 -6.66699 24.167 -8 36.5 -4s20.5 14 24.5 30l34 -11c-2.66699 -30 -16 -50.5 -40 -61.5s-48 -9.83301 -72 3.5l-41 22c-12 6.69141 -24.167 7.8584 -36.5 3.5
c-12.333 -4.33984 -20.5 -14.1729 -24.5 -29.5zM99 700h23l471 -579v579h53v-700h-21l-472 578v-578h-54v700z" />
    <glyph glyph-name="Ograve" unicode="&#xd2;" horiz-adv-x="814" 
d="M407 711c112 0 199.003 -35.165 261.003 -105.498c62 -70.334 92.667 -155.834 92 -256.5c0 -46.667 -7.66699 -91.334 -23 -134c-15.3359 -42.667 -37.1689 -81 -65.5 -115c-28.333 -34 -65.333 -61.167 -111 -81.5s-96.834 -30.5 -153.501 -30.5
s-107.834 10.167 -153.501 30.5s-82.834 47.666 -111.501 81.999s-50.5 72.833 -65.5 115.5s-22.5 87.667 -22.5 135c0 64.667 12.667 123.667 38 177s65.333 97.166 120 131.499s119.667 51.5 195 51.5zM407.003 661.002c-96 0 -170.168 -29.834 -222.501 -89.501
s-78.166 -133.5 -77.499 -221.5c0.666992 -85.333 27.334 -158.666 80.001 -219.999s126 -92 220 -92c64 0 119.333 15.333 165.999 46c46.668 30.667 80.835 69 102.5 115c21.667 46 32.5 96.333 32.5 151c0 86.667 -26.333 160.167 -79 220.5s-126.667 90.5 -222 90.5z
M441.002 783.001h-48l-92 123v1h65l75 -120v-4z" />
    <glyph glyph-name="Oacute" unicode="&#xd3;" horiz-adv-x="814" 
d="M407 711c-75.333 0 -140.335 -17.1689 -195.002 -51.502c-54.667 -34.334 -94.667 -78.167 -120 -131.5s-38 -112.333 -38 -177c0 -47.333 7.5 -92.333 22.5 -135s36.833 -81.167 65.5 -115.5s65.834 -61.666 111.501 -81.999s96.834 -30.5 153.501 -30.5
s107.834 10.167 153.501 30.5s82.667 47.5 111 81.5s50.166 72.333 65.499 115s23 87.334 23 134.001c0.666992 100.667 -30 186.167 -92 256.5s-149 105.5 -261 105.5zM406.998 660.998c95.333 0 169.336 -30.166 222.003 -90.499s79 -133.833 79 -220.5
c0 -54.667 -10.833 -105 -32.5 -151s-55.834 -84.333 -102.501 -115s-102 -46 -166 -46c-94 0 -167.333 30.667 -220 92s-79.334 134.666 -80.001 219.999c-0.666992 88 25.166 161.833 77.499 221.5s126.5 89.5 222.5 89.5zM427.001 782.999h-48v4l75 120h65v-1z" />
    <glyph glyph-name="Ocircumflex" unicode="&#xd4;" horiz-adv-x="814" 
d="M407 711c-75.333 0 -140.335 -17.1689 -195.002 -51.502c-54.667 -34.334 -94.667 -78.167 -120 -131.5s-38 -112.333 -38 -177c0 -47.333 7.5 -92.333 22.5 -135s36.833 -81.167 65.5 -115.5s65.834 -61.666 111.501 -81.999s96.834 -30.5 153.501 -30.5
s107.834 10.167 153.501 30.5s82.667 47.5 111 81.5s50.166 72.333 65.499 115s23 87.334 23 134.001c0.666992 100.667 -30 186.167 -92 256.5s-149 105.5 -261 105.5zM406.998 660.998c95.333 0 169.336 -30.166 222.003 -90.499s79 -133.833 79 -220.5
c0 -54.667 -10.833 -105 -32.5 -151s-55.834 -84.333 -102.501 -115s-102 -46 -166 -46c-94 0 -167.333 30.667 -220 92s-79.334 134.666 -80.001 219.999c-0.666992 88 25.166 161.833 77.499 221.5s126.5 89.5 222.5 89.5zM252.001 785.999l142 132h40l142 -132v-7h-53
l-109 96l-109 -96h-53v7z" />
    <glyph glyph-name="Otilde" unicode="&#xd5;" horiz-adv-x="814" 
d="M407 711c112 0 199.003 -35.165 261.003 -105.498c62 -70.334 92.667 -155.834 92 -256.5c0 -46.667 -7.66699 -91.334 -23 -134c-15.3359 -42.667 -37.1689 -81 -65.5 -115c-28.333 -34 -65.333 -61.167 -111 -81.5s-96.834 -30.5 -153.501 -30.5
s-107.834 10.167 -153.501 30.5s-82.834 47.666 -111.501 81.999s-50.5 72.833 -65.5 115.5s-22.5 87.667 -22.5 135c0 64.667 12.667 123.667 38 177s65.333 97.166 120 131.499s119.667 51.5 195 51.5zM407.003 661.002c-96 0 -170.168 -29.834 -222.501 -89.501
s-78.166 -133.5 -77.499 -221.5c0.666992 -85.333 27.334 -158.666 80.001 -219.999s126 -92 220 -92c64 0 119.333 15.333 165.999 46c46.668 30.667 80.835 69 102.5 115c21.667 46 32.5 96.333 32.5 151c0 86.667 -26.333 160.167 -79 220.5s-126.667 90.5 -222 90.5z
M317.002 798.001l-34 10.999c3.33301 29.333 16.833 49.5 40.5 60.5s47.5 10.167 71.5 -2.5l41 -22c12 -6.66699 24.167 -8 36.5 -4s20.5 14 24.5 30l34 -11c-2.66699 -30 -16 -50.5 -40 -61.5s-48 -9.83301 -72 3.5l-41 22c-12 6.69238 -24.167 7.85938 -36.5 3.50098
c-12.333 -4.33984 -20.5 -14.1729 -24.5 -29.5z" />
    <glyph glyph-name="Odieresis" unicode="&#xd6;" horiz-adv-x="814" 
d="M407 711c-75.333 0 -140.335 -17.1689 -195.002 -51.502c-54.667 -34.334 -94.667 -78.167 -120 -131.5s-38 -112.333 -38 -177c0 -47.333 7.5 -92.333 22.5 -135s36.833 -81.167 65.5 -115.5s65.834 -61.666 111.501 -81.999s96.834 -30.5 153.501 -30.5
s107.834 10.167 153.501 30.5s82.667 47.5 111 81.5s50.166 72.333 65.499 115s23 87.334 23 134.001c0.666992 100.667 -30 186.167 -92 256.5s-149 105.5 -261 105.5zM406.998 660.998c95.333 0 169.336 -30.166 222.003 -90.499s79 -133.833 79 -220.5
c0 -54.667 -10.833 -105 -32.5 -151s-55.834 -84.333 -102.501 -115s-102 -46 -166 -46c-94 0 -167.333 30.667 -220 92s-79.334 134.666 -80.001 219.999c-0.666992 88 25.166 161.833 77.499 221.5s126.5 89.5 222.5 89.5zM272.001 821.999c0 12 4.16699 21.5 12.5 28.5
s17.333 10.5 27 10.5s18.667 -3.5 27 -10.5s12.5 -16.5 12.5 -28.5s-4.16699 -21.5 -12.5 -28.5s-17.333 -10.5 -27 -10.5s-18.667 3.5 -27 10.5s-12.5 16.5 -12.5 28.5zM486.001 821.999c0 12 4.16699 21.5 12.5 28.5c8.33691 7 17.3369 10.5 27 10.5
c9.66699 0 18.667 -3.5 27 -10.5s12.5 -16.5 12.5 -28.5s-4.16699 -21.5 -12.5 -28.5s-17.333 -10.5 -27 -10.5s-18.667 3.5 -27 10.5s-12.5 16.5 -12.5 28.5z" />
    <glyph glyph-name="multiply" unicode="&#xd7;" horiz-adv-x="455" 
d="M73 447l31 31l124 -123l122 122l34 -33l-123 -123l124 -123l-31 -31l-124 123l-127 -127l-33 33l127 128z" />
    <glyph glyph-name="Oslash" unicode="&#xd8;" horiz-adv-x="814" 
d="M203 -79l-52.998 0.000976562l66 116c-52.667 32 -92.834 76 -120.501 132s-41.5 116.667 -41.5 182c0 64.667 12.667 123.667 38 177s65.333 97.166 120 131.499s119.667 51.5 195 51.5c64 0 120.667 -12.667 170 -38l50 88h54l-64 -111
c46.667 -32.667 82.167 -75.5 106.5 -128.5s36.5 -110.5 36.5 -172.5c0 -46.667 -7.66699 -91.334 -23 -134c-15.3359 -42.667 -37.1689 -81 -65.5 -115c-28.333 -34 -65.333 -61.167 -111 -81.5s-96.834 -30.5 -153.501 -30.5c-52.667 0 -102.667 9.33301 -150 28z
M407.002 661.001c-96 0 -170.167 -29.832 -222.5 -89.499s-78.166 -133.5 -77.499 -221.5c0 -54.667 11.667 -105.834 35 -153.501s56.666 -85.5 99.999 -113.5l310 546c-44 21.333 -92.333 32 -145 32zM407.002 38.002c64 0 119.334 15.332 166 45.999
c46.668 30.667 80.835 69 102.5 115c21.667 46 32.5 96.333 32.5 151c0 51.333 -10 99.333 -30 144c-20 44.668 -48.667 81.335 -86 110.001l-309 -543c36.667 -15.333 78 -23 124 -23z" />
    <glyph glyph-name="Ugrave" unicode="&#xd9;" horiz-adv-x="718" 
d="M574 700h52.998v-435c0 -44 -7.66699 -83.833 -23 -119.5s-35.5 -64.5 -60.5 -86.5s-53.667 -39 -86 -51s-65.166 -18 -98.499 -18s-66.166 5.83301 -98.499 17.5s-61 28.5 -86 50.5s-45.167 51 -60.5 87s-23 76 -23 120v435h53v-435c0 -36 6.16699 -68.667 18.5 -98
s28.5 -53 48.5 -71s43 -32 69 -42s52.333 -15 79 -15s53 5 79 15s49 24 69 42s36.167 41.667 48.5 71s18.5 62 18.5 98v435zM401.998 774h-48l-92 123v1h65l75 -120v-4z" />
    <glyph glyph-name="Uacute" unicode="&#xda;" horiz-adv-x="718" 
d="M627 700l-53 0.000976562v-435c0 -36 -6.16699 -68.667 -18.5 -98s-28.5 -53 -48.5 -71s-43 -32 -69 -42s-52.333 -15 -79 -15s-53 5 -79 15s-49 24 -69 42s-36.167 41.667 -48.5 71s-18.5 62 -18.5 98v435h-53v-435c0 -58.667 13.167 -109.334 39.5 -152.001
s59.5 -73.667 99.5 -93s83 -29 129 -29s89 9.66699 129 29s73.167 50.5 99.5 93.5s39.5 93.5 39.5 151.5v435zM366 775.001h-48v4l75 120h65v-1z" />
    <glyph glyph-name="Ucircumflex" unicode="&#xdb;" horiz-adv-x="718" 
d="M627 700l-53 0.000976562v-435c0 -36 -6.16699 -68.667 -18.5 -98s-28.5 -53 -48.5 -71s-43 -32 -69 -42s-52.333 -15 -79 -15s-53 5 -79 15s-49 24 -69 42s-36.167 41.667 -48.5 71s-18.5 62 -18.5 98v435h-53v-435c0 -58.667 13.167 -109.334 39.5 -152.001
s59.5 -73.667 99.5 -93s83 -29 129 -29s89 9.66699 129 29s73.167 50.5 99.5 93.5s39.5 93.5 39.5 151.5v435zM197 775.001l142 132h40l142 -132v-7h-53l-109 96l-109 -96h-53v7z" />
    <glyph glyph-name="Udieresis" unicode="&#xdc;" horiz-adv-x="718" 
d="M627 700l-53 0.000976562v-435c0 -36 -6.16699 -68.667 -18.5 -98s-28.5 -53 -48.5 -71s-43 -32 -69 -42s-52.333 -15 -79 -15s-53 5 -79 15s-49 24 -69 42s-36.167 41.667 -48.5 71s-18.5 62 -18.5 98v435h-53v-435c0 -58.667 13.167 -109.334 39.5 -152.001
s59.5 -73.667 99.5 -93s83 -29 129 -29s89 9.66699 129 29s73.167 50.5 99.5 93.5s39.5 93.5 39.5 151.5v435zM213 819.001c0 12 4.16699 21.5 12.5 28.5s17.333 10.5 27 10.5s18.667 -3.5 27 -10.5s12.5 -16.5 12.5 -28.5s-4.16699 -21.5 -12.5 -28.5
s-17.333 -10.5 -27 -10.5s-18.667 3.5 -27 10.5s-12.5 16.5 -12.5 28.5zM427 819.001c0 12 4.16699 21.5 12.5 28.5s17.333 10.5 27 10.5s18.667 -3.5 27 -10.5s12.5 -16.5 12.5 -28.5s-4.16699 -21.5 -12.5 -28.5s-17.333 -10.5 -27 -10.5s-18.667 3.5 -27 10.5
s-12.5 16.5 -12.5 28.5z" />
    <glyph glyph-name="Yacute" unicode="&#xdd;" horiz-adv-x="659" 
d="M302 280v-280h54v280l274 419v1h-63l-238 -368l-237 368h-63v-1zM337 777h-48v4l75 120h65v-1z" />
    <glyph glyph-name="Thorn" unicode="&#xde;" horiz-adv-x="673" 
d="M99 0l-0.000976562 699h50v-122h257c36.667 0 69.834 -6.5 99.501 -19.5s53.667 -30.333 72 -52s32.333 -46.167 42 -73.5s14.5 -55.333 14.5 -84s-4.83301 -56.667 -14.5 -84s-23.667 -51.833 -42 -73.5s-42.333 -39 -72 -52s-62.834 -19.5 -99.5 -19.5h-256v-119h-51z
M405.999 527h-256v-359h256c32 0 60.5 6.66699 85.5 20s44 30.5 57 51.5s22.5 44.333 28.5 70s6 51.167 0 76.5s-15.5 48.5 -28.5 69.5s-32 38.167 -57 51.5s-53.5 20 -85.5 20z" />
    <glyph glyph-name="germandbls" unicode="&#xdf;" horiz-adv-x="595" 
d="M201 357l-0.000976562 44.001h81c20 0 39 1.83301 57 5.5s36 10 54 19s32.5 22.5 43.5 40.5s16.5 39.667 16.5 65c0 90 -54.333 135 -163 135c-56 0 -96.333 -13.167 -121 -39.5s-38 -62.833 -40 -109.5v-517h-48v518c0 63.333 19.5 111.333 58.5 144s88.5 49 148.5 49
c62.667 0 113.834 -14.833 153.501 -44.5s59.5 -74.834 59.5 -135.501c0 -36 -10.167 -67.333 -30.5 -94s-47.5 -44.334 -81.5 -53c105.333 -22 158 -89 158 -201c0 -48 -11 -88 -33 -120s-50.333 -53.5 -85 -64.5s-71.834 -15.333 -111.5 -13
c-39.667 2.33301 -78.5 11.166 -116.5 26.499v46c50 -21.333 97.167 -31.5 141.5 -30.5c44.334 1 81.667 15.333 112 43s45.5 64.834 45.5 111.501c0 116.667 -71.333 175 -214 175h-85z" />
    <glyph glyph-name="agrave" unicode="&#xe0;" 
d="M501 494l49 -0.000976562v-494h-49v105c-46.667 -75.333 -114 -113 -202 -113c-70 0 -129.333 24 -178 72s-73 109 -73 183s24.167 134.667 72.5 182s107.833 71 178.5 71c42 0 81.167 -9.66699 117.5 -29s64.5 -47.666 84.5 -84.999v108zM299 452.999
c-57.333 0 -105.333 -19.166 -144 -57.499s-58 -87.833 -58 -148.5s19.333 -110.334 58 -149.001s86.667 -58 144 -58c38 0 71.667 7.66699 101 23c29.334 15.333 51.667 35 66.999 59c15.334 24 26.667 50.667 33.999 80c7.33301 29.333 7.33301 58.833 0 88.5
s-18.666 56.5 -33.999 80.5s-37.666 43.667 -66.999 59s-63 23 -101 23zM350 584h-48l-92 123v1h65l75 -120v-4z" />
    <glyph glyph-name="aacute" unicode="&#xe1;" 
d="M550 494h-49v-108c-20 37.334 -48.167 65.667 -84.5 85s-75.5 29 -117.5 29c-70.667 0 -130.167 -23.667 -178.5 -71s-72.5 -108 -72.5 -182s24.333 -135 73 -183s108 -72 178 -72c88 0 155.333 37.667 202 113v-105h49v494zM299 453c44 0 82 -10.167 114 -30.5
s55.333 -45.833 70 -76.5s22 -63.834 22 -99.5c0 -35.667 -7.33301 -68.834 -22 -99.501s-38 -56.167 -70 -76.5s-70 -30.5 -114 -30.5c-57.333 0 -105.333 19.333 -144 58s-58 88.334 -58 149.001s19.333 110.167 58 148.5s86.667 57.5 144 57.5zM316 582h-48v4l75 120h65
v-1z" />
    <glyph glyph-name="acircumflex" unicode="&#xe2;" 
d="M550 494h-49v-108c-20 37.334 -48.167 65.667 -84.5 85s-75.5 29 -117.5 29c-70.667 0 -130.167 -23.667 -178.5 -71s-72.5 -108 -72.5 -182s24.333 -135 73 -183s108 -72 178 -72c88 0 155.333 37.667 202 113v-105h49v494zM299 453c44 0 82 -10.167 114 -30.5
s55.333 -45.833 70 -76.5s22 -63.834 22 -99.5c0 -35.667 -7.33301 -68.834 -22 -99.501s-38 -56.167 -70 -76.5s-70 -30.5 -114 -30.5c-57.333 0 -105.333 19.333 -144 58s-58 88.334 -58 149.001s19.333 110.167 58 148.5s86.667 57.5 144 57.5zM147 571l142 132h40
l142 -132v-7h-53l-109 96l-109 -96h-53v7z" />
    <glyph glyph-name="atilde" unicode="&#xe3;" 
d="M501 494l49 -0.000976562v-494h-49v105c-46.667 -75.333 -114 -113 -202 -113c-70 0 -129.333 24 -178 72s-73 109 -73 183s24.167 134.667 72.5 182s107.833 71 178.5 71c42 0 81.167 -9.66699 117.5 -29s64.5 -47.666 84.5 -84.999v108zM299 452.999
c-57.333 0 -105.333 -19.166 -144 -57.499s-58 -87.833 -58 -148.5s19.333 -110.334 58 -149.001s86.667 -58 144 -58c38 0 71.667 7.66699 101 23c29.334 15.333 51.667 35 66.999 59c15.334 24 26.667 50.667 33.999 80c7.33301 29.333 7.33301 58.833 0 88.5
s-18.666 56.5 -33.999 80.5s-37.666 43.667 -66.999 59s-63 23 -101 23zM221 623l-34 10.999c3.33301 29.333 16.833 49.5 40.5 60.5s47.5 10.167 71.5 -2.5l41 -22c12 -6.66699 24.167 -8 36.5 -4s20.5 14 24.5 30l34 -11c-2.66699 -30 -16 -50.5 -40 -61.5
s-48 -9.83301 -72 3.5l-41 22c-12 6.66797 -24.167 7.83496 -36.5 3.5c-12.333 -4.33789 -20.5 -14.1709 -24.5 -29.499z" />
    <glyph glyph-name="adieresis" unicode="&#xe4;" 
d="M550 494h-49v-108c-20 37.334 -48.167 65.667 -84.5 85s-75.5 29 -117.5 29c-70.667 0 -130.167 -23.667 -178.5 -71s-72.5 -108 -72.5 -182s24.333 -135 73 -183s108 -72 178 -72c88 0 155.333 37.667 202 113v-105h49v494zM299 453c44 0 82 -10.167 114 -30.5
s55.333 -45.833 70 -76.5s22 -63.834 22 -99.5c0 -35.667 -7.33301 -68.834 -22 -99.501s-38 -56.167 -70 -76.5s-70 -30.5 -114 -30.5c-57.333 0 -105.333 19.333 -144 58s-58 88.334 -58 149.001s19.333 110.167 58 148.5s86.667 57.5 144 57.5zM172 668
c0 12 4.16699 21.5 12.5 28.5s17.333 10.5 27 10.5s18.667 -3.5 27 -10.5s12.5 -16.5 12.5 -28.5s-4.16699 -21.5 -12.5 -28.5s-17.333 -10.5 -27 -10.5s-18.667 3.5 -27 10.5s-12.5 16.5 -12.5 28.5zM386 668c0 12 4.16699 21.5 12.5 28.5s17.333 10.5 27 10.5
s18.667 -3.5 27 -10.5s12.5 -16.5 12.5 -28.5s-4.16699 -21.5 -12.5 -28.5s-17.333 -10.5 -27 -10.5s-18.667 3.5 -27 10.5s-12.5 16.5 -12.5 28.5z" />
    <glyph glyph-name="aring" unicode="&#xe5;" 
d="M501 494l49 -0.000976562v-494h-49v105c-46.667 -75.333 -114 -113 -202 -113c-70 0 -129.333 24 -178 72s-73 109 -73 183s24.167 134.667 72.5 182s107.833 71 178.5 71c42 0 81.167 -9.66699 117.5 -29s64.5 -47.666 84.5 -84.999v108zM299 452.999
c-57.333 0 -105.333 -19.166 -144 -57.499s-58 -87.833 -58 -148.5s19.333 -110.334 58 -149.001s86.667 -58 144 -58c38 0 71.667 7.66699 101 23c29.334 15.333 51.667 35 66.999 59c15.334 24 26.667 50.667 33.999 80c7.33301 29.333 7.33301 58.833 0 88.5
s-18.666 56.5 -33.999 80.5s-37.666 43.667 -66.999 59s-63 23 -101 23zM208 652c0 28.667 10.166 51 30.499 67s44.833 24 73.5 24s53.667 -8 75 -24s32 -38.333 32 -67c0 -29.333 -10.167 -52.333 -30.5 -69s-46.166 -25 -77.499 -25c-32 0 -57.167 8.33301 -75.5 25
s-27.5 39.667 -27.5 69zM310.999 707c-24.667 0 -42 -9.16602 -52 -27.499c-10 -18.3359 -10 -36.6689 0 -55c10 -18.333 27.333 -27.5 52 -27.5c26 0 44.333 9.16699 55 27.5s10.667 36.666 0 54.999s-29 27.5 -55 27.5z" />
    <glyph glyph-name="ae" unicode="&#xe6;" horiz-adv-x="1033" 
d="M746 -7c-44 0 -83.668 9.33398 -119.001 28.001s-63.333 45 -84 79v-100h-41v105c-46.667 -75.333 -114.334 -113 -203 -113c-70 0 -129.333 24 -178 72s-73 109 -73 183s24.167 134.667 72.5 182s107.833 71 178.5 71c42 0 81.833 -9.83301 119.5 -29.5
s66.167 -47.834 85.5 -84.5v108h41v-104c20.667 35.333 48.5 62.833 83.5 82.5s74.167 29.5 117.5 29.5c76 0 137.833 -23.667 185.5 -71s67.167 -116.333 58.5 -207h-447c4.66797 -56 26.335 -100.5 65.001 -133.5c38.667 -33 84.667 -49.5 138 -49.5
c34 0 67.667 6.66699 101 20s59 31.666 77 54.999l35 -28c-23.333 -30.667 -54.333 -54.167 -93 -70.5s-78.667 -24.5 -120 -24.5zM298.999 453.001c-57.333 0 -105.333 -19.1719 -144 -57.5049s-58 -87.833 -58 -148.5s19.333 -110.334 58 -149.001s86.667 -58 144 -58
c33.333 0 63.5 5.83301 90.5 17.5s48.667 27.334 65 47.001s29 41.834 38 66.501s13.5 49.834 13.5 75.501s-4.5 50.834 -13.5 75.501s-21.667 46.834 -38 66.501s-38 35.334 -65 47.001s-57.167 17.5 -90.5 17.5zM542.999 266.996h403.001
c-0.666992 60 -19 106.667 -55 140s-84.333 50 -145 50c-52.667 0 -98.334 -17 -137.001 -51s-60.667 -80.333 -66 -139z" />
    <glyph glyph-name="ccedilla" unicode="&#xe7;" horiz-adv-x="523" 
d="M251 -88l-6.00195 4.99707l18 81c-62 8 -113.167 34.333 -153.5 79s-60.5 101.334 -60.5 170.001c0 76.667 24 137.834 72 183.501s108.667 68.5 182 68.5c69.333 0 129.333 -24.667 180 -74l-32 -31c-39.333 39.333 -88.666 59 -147.999 59
c-58.667 0 -107.667 -18.333 -147 -55s-59 -87 -59 -151s19.667 -114.333 59 -151s88.333 -55 147 -55c57.333 0 106.333 20.333 147 61l33 -33c-49.333 -49.333 -109.333 -74 -180 -74h-1l-11 -48c38 2 64.833 -7.5 80.5 -28.5s20.167 -45.167 13.5 -72.5
c-6 -23.333 -18.667 -40.833 -38 -52.5s-41 -17.5 -65 -17.5c-49.333 0 -83.666 17.667 -102.999 53l28 27c18 -26 43 -39 75 -39c35.333 0 56.333 12.667 63 38c6 20 0.5 36.333 -16.5 49s-42.833 15.334 -77.5 8.00098z" />
    <glyph glyph-name="egrave" unicode="&#xe8;" horiz-adv-x="587" 
d="M299 -8c-71.333 0 -131 23.334 -179 70.001s-72 108.334 -72 185.001c0 73.333 24.333 134.166 73 182.499s108 72.5 178 72.5c76 0 137.833 -23.667 185.5 -71s67.167 -116.333 58.5 -207h-445c4.66699 -56 26.167 -100.667 64.5 -134s83.833 -50 136.5 -50
c34 0 67.667 6.66699 101 20s59 31.666 77 54.999l35 -28c-23.333 -30.667 -54.333 -54.167 -93 -70.5s-78.667 -24.5 -120 -24.5zM98 267.001h401c-0.666992 60 -19 106.667 -55 140s-84.333 50 -145 50c-52.667 0 -98 -17 -136 -51s-59.667 -80.333 -65 -139zM354 577.001
h-48l-92 123v1h65l75 -120v-4z" />
    <glyph glyph-name="eacute" unicode="&#xe9;" horiz-adv-x="587" 
d="M299 -8c41.333 0 81.333 8.16602 120 24.499s69.667 39.833 93 70.5l-35 28c-18 -23.333 -43.667 -41.666 -77 -54.999s-67 -20 -101 -20c-52.667 0 -98.167 16.667 -136.5 50s-59.833 78 -64.5 134h445c8.66699 90.667 -10.833 159.667 -58.5 207s-109.5 71 -185.5 71
c-70 0 -129.333 -24.167 -178 -72.5s-73 -109.166 -73 -182.499c0 -76.667 24 -138.334 72 -185.001s107.667 -70 179 -70zM98 266.999c5.33301 58.667 27 105 65 139s83.333 51 136 51c60.667 0 109 -16.667 145 -50s54.333 -80 55 -140h-401zM313 576.999h-48v4l75 120h65
v-1z" />
    <glyph glyph-name="ecircumflex" unicode="&#xea;" horiz-adv-x="587" 
d="M299 -8c41.333 0 81.333 8.16602 120 24.499s69.667 39.833 93 70.5l-35 28c-18 -23.333 -43.667 -41.666 -77 -54.999s-67 -20 -101 -20c-52.667 0 -98.167 16.667 -136.5 50s-59.833 78 -64.5 134h445c8.66699 90.667 -10.833 159.667 -58.5 207s-109.5 71 -185.5 71
c-70 0 -129.333 -24.167 -178 -72.5s-73 -109.166 -73 -182.499c0 -76.667 24 -138.334 72 -185.001s107.667 -70 179 -70zM98 266.999c5.33301 58.667 27 105 65 139s83.333 51 136 51c60.667 0 109 -16.667 145 -50s54.333 -80 55 -140h-401zM145 568.999l142 132h40
l142 -132v-7h-53l-109 96l-109 -96h-53v7z" />
    <glyph glyph-name="edieresis" unicode="&#xeb;" horiz-adv-x="587" 
d="M299 -8c41.333 0 81.333 8.16602 120 24.499s69.667 39.833 93 70.5l-35 28c-18 -23.333 -43.667 -41.666 -77 -54.999s-67 -20 -101 -20c-52.667 0 -98.167 16.667 -136.5 50s-59.833 78 -64.5 134h445c8.66699 90.667 -10.833 159.667 -58.5 207s-109.5 71 -185.5 71
c-70 0 -129.333 -24.167 -178 -72.5s-73 -109.166 -73 -182.499c0 -76.667 24 -138.334 72 -185.001s107.667 -70 179 -70zM98 266.999c5.33301 58.667 27 105 65 139s83.333 51 136 51c60.667 0 109 -16.667 145 -50s54.333 -80 55 -140h-401zM160 660.999
c0 12 4.16699 21.5 12.5 28.5s17.333 10.5 27 10.5s18.667 -3.5 27 -10.5s12.5 -16.5 12.5 -28.5s-4.16699 -21.5 -12.5 -28.5s-17.333 -10.5 -27 -10.5s-18.667 3.5 -27 10.5s-12.5 16.5 -12.5 28.5zM374 660.999c0 12 4.16699 21.5 12.5 28.5s17.333 10.5 27 10.5
s18.667 -3.5 27 -10.5s12.5 -16.5 12.5 -28.5s-4.16699 -21.5 -12.5 -28.5s-17.333 -10.5 -27 -10.5s-18.667 3.5 -27 10.5s-12.5 16.5 -12.5 28.5z" />
    <glyph glyph-name="igrave" unicode="&#xec;" horiz-adv-x="211" 
d="M132 580h-46l-66 120v1h56l56 -117v-4zM81 496h49v-496h-49v496z" />
    <glyph glyph-name="iacute" unicode="&#xed;" horiz-adv-x="211" 
d="M122 580h-46v4l56 117h56v-1zM130 496h-49v-496h49v496z" />
    <glyph glyph-name="icircumflex" unicode="&#xee;" horiz-adv-x="211" 
d="M-4 581l98 120h31l93 -120v-7h-42l-67 84l-70 -84h-43v7zM130 496h-49v-496h49v496z" />
    <glyph glyph-name="idieresis" unicode="&#xef;" horiz-adv-x="211" 
d="M-1 658c0 15.333 6.16699 26 18.5 32s24.833 6 37.5 0s19 -16.667 19 -32s-6.16699 -26 -18.5 -32s-24.833 -6 -37.5 0s-19 16.667 -19 32zM137 658c0 15.333 6.16797 26 18.501 32s24.666 6 36.999 0s18.5 -16.667 18.5 -32s-6.16699 -26 -18.5 -32
c-12.334 -6 -24.667 -6 -37 0s-18.5 16.667 -18.5 32zM130.001 496h-49v-496h49v496z" />
    <glyph glyph-name="eth" unicode="&#xf0;" horiz-adv-x="608" 
d="M393 716l31.999 -21.9971l-46 -65c124.667 -83.334 188 -208.667 190 -376c1.33301 -78.667 -21.167 -142.334 -67.5 -191.001s-108.5 -73 -186.5 -73c-46.667 0 -88.167 9.16699 -124.5 27.5s-64 42.166 -83 71.499s-32.833 61.666 -41.5 96.999
s-8.66699 70.833 0 106.5s22.5 68.167 41.5 97.5c19 29.334 46.667 53.167 83 71.5s77.833 27.5 124.5 27.5c68.667 0 130.334 -26 185.001 -78c-20.667 69.333 -69.667 130 -147 182l-42 -60l-32 22l41 59c-36 20 -70.667 34.333 -104 43l14 42
c45.333 -14.667 84 -31 116 -49zM314.999 35.0029c37.334 0 70.666 7.5 99.999 22.5s51.5 34.5 66.5 58.5s26 50.5 33 79.5s7 58 0 87s-18 55.5 -33 79.5s-37.167 43.5 -66.5 58.5s-62.666 22.5 -99.999 22.5s-70.666 -7.5 -99.999 -22.5s-51.5 -34.5 -66.5 -58.5
s-26 -50.5 -33 -79.5s-7 -58 0 -87s18 -55.5 33 -79.5s37.167 -43.5 66.5 -58.5s62.666 -22.5 99.999 -22.5z" />
    <glyph glyph-name="ntilde" unicode="&#xf1;" horiz-adv-x="603" 
d="M81 494h48v-88c35.333 63.334 94 95.667 176 97c66.667 0 120.5 -19.5 161.5 -58.5s61.5 -92.167 61.5 -159.5v-285h-49v284c0 55.333 -15.667 97.833 -47 127.5s-74.333 44.167 -129 43.5c-50.667 -0.666992 -92.167 -18 -124.5 -52s-48.5 -76.667 -48.5 -128v-275h-49
v494zM214 625l-34.001 10.001c3.33301 27.333 16.833 46.166 40.5 56.499s47.167 9.5 70.5 -2.5l41 -21c12 -6 24.167 -7.16699 36.5 -3.5c12.333 3.67188 20.5 12.8389 24.5 27.5l34 -10c-2.66699 -27.3359 -16 -46.1689 -40 -56.5c-24 -10.333 -48 -9.5 -72 2.5l-41 21
c-11.333 6 -23.166 7 -35.499 3s-20.5 -13 -24.5 -27z" />
    <glyph glyph-name="ograve" unicode="&#xf2;" horiz-adv-x="598" 
d="M299 -8c-71.333 0 -131 23 -179 69s-72 107.333 -72 184s24 138.667 72 186s107.667 71 179 71s131 -23.667 179 -71s72 -109.333 72 -186s-24 -138 -72 -184s-107.667 -69 -179 -69zM299 40c58 0 106.333 18.667 145 56s58 87 58 149c0 62.667 -19.5 113.5 -58.5 152.5
s-87.167 58.5 -144.5 58.5s-105.5 -19.5 -144.5 -58.5s-58.5 -89.833 -58.5 -152.5c0 -62 19.333 -111.667 58 -149s87 -56 145 -56zM340 586h-48l-92 119v1h65l75 -116v-4z" />
    <glyph glyph-name="oacute" unicode="&#xf3;" horiz-adv-x="598" 
d="M299 -8c71.333 0 131 23 179 69s72 107.333 72 184s-24 138.667 -72 186s-107.667 71 -179 71s-131 -23.667 -179 -71s-72 -109.333 -72 -186s24 -138 72 -184s107.667 -69 179 -69zM299 40c-58 0 -106.333 18.667 -145 56s-58 87 -58 149
c0 62.667 19.5 113.5 58.5 152.5s87.167 58.5 144.5 58.5s105.5 -19.5 144.5 -58.5s58.5 -89.833 58.5 -152.5c0 -62 -19.333 -111.667 -58 -149s-87 -56 -145 -56zM313 580h-46v4l72 112h63v-1z" />
    <glyph glyph-name="ocircumflex" unicode="&#xf4;" horiz-adv-x="598" 
d="M299 -8c71.333 0 131 23 179 69s72 107.333 72 184s-24 138.667 -72 186s-107.667 71 -179 71s-131 -23.667 -179 -71s-72 -109.333 -72 -186s24 -138 72 -184s107.667 -69 179 -69zM299 40c-58 0 -106.333 18.667 -145 56s-58 87 -58 149
c0 62.667 19.5 113.5 58.5 152.5s87.167 58.5 144.5 58.5s105.5 -19.5 144.5 -58.5s58.5 -89.833 58.5 -152.5c0 -62 -19.333 -111.667 -58 -149s-87 -56 -145 -56zM144 579l142 132h40l142 -132v-7h-53l-109 96l-109 -96h-53v7z" />
    <glyph glyph-name="otilde" unicode="&#xf5;" horiz-adv-x="598" 
d="M299 -8c-71.333 0 -131 23 -179 69s-72 107.333 -72 184s24 138.667 72 186s107.667 71 179 71s131 -23.667 179 -71s72 -109.333 72 -186s-24 -138 -72 -184s-107.667 -69 -179 -69zM299 40c58 0 106.333 18.667 145 56s58 87 58 149c0 62.667 -19.5 113.5 -58.5 152.5
s-87.167 58.5 -144.5 58.5s-105.5 -19.5 -144.5 -58.5s-58.5 -89.833 -58.5 -152.5c0 -62 19.333 -111.667 58 -149s87 -56 145 -56zM214 622l-34.001 10c3.33301 28 16.833 47.5 40.5 58.5s47.834 10.167 72.501 -2.5l41 -21c12 -6.66699 24.167 -8 36.5 -4
s20.5 13.667 24.5 29l34 -10c-2.66699 -28.667 -16 -48.5 -40 -59.5s-48 -9.83301 -72 3.5l-41 21c-12 6 -24.333 7 -37 3s-21 -13.333 -25 -28z" />
    <glyph glyph-name="odieresis" unicode="&#xf6;" horiz-adv-x="598" 
d="M299 -8c71.333 0 131 23 179 69s72 107.333 72 184s-24 138.667 -72 186s-107.667 71 -179 71s-131 -23.667 -179 -71s-72 -109.333 -72 -186s24 -138 72 -184s107.667 -69 179 -69zM299 40c-58 0 -106.333 18.667 -145 56s-58 87 -58 149
c0 62.667 19.5 113.5 58.5 152.5s87.167 58.5 144.5 58.5s105.5 -19.5 144.5 -58.5s58.5 -89.833 58.5 -152.5c0 -62 -19.333 -111.667 -58 -149s-87 -56 -145 -56zM158 643c0 12 4.16699 21.5 12.5 28.5s17.333 10.5 27 10.5s18.667 -3.5 27 -10.5s12.5 -16.5 12.5 -28.5
s-4.16699 -21.5 -12.5 -28.5s-17.333 -10.5 -27 -10.5s-18.667 3.5 -27 10.5s-12.5 16.5 -12.5 28.5zM372 643c0 12 4.16699 21.5 12.5 28.5s17.333 10.5 27 10.5s18.667 -3.5 27 -10.5s12.5 -16.5 12.5 -28.5s-4.16699 -21.5 -12.5 -28.5s-17.333 -10.5 -27 -10.5
s-18.667 3.5 -27 10.5s-12.5 16.5 -12.5 28.5z" />
    <glyph glyph-name="divide" unicode="&#xf7;" horiz-adv-x="559" 
d="M78 359v-50h404v50h-404zM243 179c0 12 4.16699 21.5 12.5 28.5s17.333 10.5 27 10.5s18.667 -3.5 27 -10.5s12.5 -16.5 12.5 -28.5s-4.16699 -21.5 -12.5 -28.5s-17.333 -10.5 -27 -10.5s-18.667 3.5 -27 10.5s-12.5 16.5 -12.5 28.5zM243 484
c0 12 4.16699 21.5 12.5 28.5s17.333 10.5 27 10.5s18.667 -3.5 27 -10.5s12.5 -16.5 12.5 -28.5s-4.16699 -21.5 -12.5 -28.5s-17.333 -10.5 -27 -10.5s-18.667 3.5 -27 10.5s-12.5 16.5 -12.5 28.5z" />
    <glyph glyph-name="oslash" unicode="&#xf8;" horiz-adv-x="599" 
d="M300 -7c-41.333 0 -78 7.33301 -110 22l-41 -69h-50l54 90c-69.333 46 -104 116 -104 210c0 76.667 24 138.667 72 186s107.667 71 179 71c41.333 0 80 -8.66699 116 -26l37 62h51l-51 -85c65.333 -48.667 98 -118 98 -208c0 -76.667 -24 -138 -72 -184
s-107.667 -69 -179 -69zM300 457c-57.333 0 -105.501 -19.5 -144.501 -58.5s-58.5 -89.833 -58.5 -152.5c0 -74.667 27 -130.667 81 -168l213 358c-29.333 14 -59.666 21 -90.999 21zM299.999 41c58 0 106.333 18.667 145 56s58 87 58 149c0 71.333 -25 127 -75 167
l-212 -356c24 -10.667 52 -16 84 -16z" />
    <glyph glyph-name="ugrave" unicode="&#xf9;" horiz-adv-x="602" 
d="M521 0l-48 -0.000976562v89c-35.333 -63.333 -94 -95.666 -176 -96.999c-66.667 0 -120.5 19.5 -161.5 58.5s-61.5 92.167 -61.5 159.5v285h49v-284c0 -55.333 15.667 -97.833 47 -127.5s74.333 -44.167 129 -43.5c50.667 0.666992 92.167 18 124.5 52
s48.5 76.667 48.5 128v275h49v-495zM345 576.999h-48l-92 123v1h65l75 -120v-4z" />
    <glyph glyph-name="uacute" unicode="&#xfa;" horiz-adv-x="602" 
d="M473 0l48 0.000976562v495h-49v-275c0 -51.333 -16.167 -94 -48.5 -128s-73.833 -51.333 -124.5 -52c-54.667 -0.666992 -97.667 13.833 -129 43.5s-47 72.167 -47 127.5v284h-49v-285c0 -67.333 20.5 -120.5 61.5 -159.5s94.833 -58.5 161.5 -58.5
c82 1.33301 140.667 33.666 176 96.999v-89zM315 577.001h-48v4l75 120h65v-1z" />
    <glyph glyph-name="ucircumflex" unicode="&#xfb;" horiz-adv-x="602" 
d="M473 0l48 0.000976562v495h-49v-275c0 -51.333 -16.167 -94 -48.5 -128s-73.833 -51.333 -124.5 -52c-54.667 -0.666992 -97.667 13.833 -129 43.5s-47 72.167 -47 127.5v284h-49v-285c0 -67.333 20.5 -120.5 61.5 -159.5s94.833 -58.5 161.5 -58.5
c82 1.33301 140.667 33.666 176 96.999v-89zM145 574.001l137 127h39l137 -127v-7h-51l-106 92l-105 -92h-51v7z" />
    <glyph glyph-name="udieresis" unicode="&#xfc;" horiz-adv-x="602" 
d="M473 0l48 0.000976562v495h-49v-275c0 -51.333 -16.167 -94 -48.5 -128s-73.833 -51.333 -124.5 -52c-54.667 -0.666992 -97.667 13.833 -129 43.5s-47 72.167 -47 127.5v284h-49v-285c0 -67.333 20.5 -120.5 61.5 -159.5s94.833 -58.5 161.5 -58.5
c82 1.33301 140.667 33.666 176 96.999v-89zM160 661.001c0 12 4.16699 21.5 12.5 28.5s17.333 10.5 27 10.5s18.667 -3.5 27 -10.5s12.5 -16.5 12.5 -28.5s-4.16699 -21.5 -12.5 -28.5s-17.333 -10.5 -27 -10.5s-18.667 3.5 -27 10.5s-12.5 16.5 -12.5 28.5zM374 661.001
c0 12 4.16699 21.5 12.5 28.5s17.333 10.5 27 10.5s18.667 -3.5 27 -10.5s12.5 -16.5 12.5 -28.5s-4.16699 -21.5 -12.5 -28.5s-17.333 -10.5 -27 -10.5s-18.667 3.5 -27 10.5s-12.5 16.5 -12.5 28.5z" />
    <glyph glyph-name="yacute" unicode="&#xfd;" horiz-adv-x="533" 
d="M499 494h-53l-124 -291l-57 -144l-58 143l-115 292h-53l198 -488l-104 -245h52zM280 584h-45v4l70 113h62v-1z" />
    <glyph glyph-name="thorn" unicode="&#xfe;" horiz-adv-x="632" 
d="M128 -206h-47v905h46l1 -322c20 38 49 68.167 87 90.5s80.667 33.5 128 33.5c70 -2.66699 127.5 -26.5 172.5 -71.5s67.5 -105.833 67.5 -182.5c0 -80 -23.667 -142.667 -71 -188s-107.333 -68 -180 -68c-43.333 0 -83 10.5 -119 31.5s-64.333 51.5 -85 91.5v-320z
M332 38c58.667 0 107 18.166 145 54.499s57 87.833 57 154.5s-19 117.834 -57 153.501s-86.333 53.5 -145 53.5c-57.333 0 -105 -19.5 -143 -58.5s-57 -88.833 -57 -149.5c0 -60 19.167 -109.667 57.5 -149s85.833 -59 142.5 -59z" />
    <glyph glyph-name="ydieresis" unicode="&#xff;" horiz-adv-x="533" 
d="M499 494h-53l-124 -291l-57 -144l-58 143l-115 292h-53l198 -488l-104 -245h52zM134 667c0 16 6.33301 27.167 19 33.5s25.167 6.33301 37.5 0s18.5 -17.5 18.5 -33.5c0 -15.3379 -6.16699 -26.1709 -18.5 -32.499c-12.333 -6.33301 -24.833 -6.33301 -37.5 0
s-19 17.166 -19 32.499zM338 667c0 16 6.33301 27.167 19 33.5s25.167 6.33301 37.5 0s18.5 -17.5 18.5 -33.5c0 -15.3379 -6.16699 -26.1709 -18.5 -32.499c-12.333 -6.33301 -24.833 -6.33301 -37.5 0s-19 17.166 -19 32.499z" />
    <glyph glyph-name="Amacron" unicode="&#x100;" horiz-adv-x="739" 
d="M713 0h-58l-77 172h-418l-76 -172h-58l314 700h59zM181 222h376l-188 426zM203 783v46h314v-46h-314z" />
    <glyph glyph-name="amacron" unicode="&#x101;" 
d="M501 494l49 -0.000976562v-494h-49v105c-46.667 -75.333 -114 -113 -202 -113c-70 0 -129.333 24 -178 72s-73 109 -73 183s24.167 134.667 72.5 182s107.833 71 178.5 71c42 0 81.167 -9.66699 117.5 -29s64.5 -47.666 84.5 -84.999v108zM299 452.999
c-57.333 0 -105.333 -19.166 -144 -57.499s-58 -87.833 -58 -148.5s19.333 -110.334 58 -149.001s86.667 -58 144 -58c38 0 71.667 7.66699 101 23c29.334 15.333 51.667 35 66.999 59c15.334 24 26.667 50.667 33.999 80c7.33301 29.333 7.33301 58.833 0 88.5
s-18.666 56.5 -33.999 80.5s-37.666 43.667 -66.999 59s-63 23 -101 23zM158 629v46h314v-46h-314z" />
    <glyph glyph-name="Abreve" unicode="&#x102;" horiz-adv-x="739" 
d="M713 0h-58l-77 172h-418l-76 -172h-58l314 700h59zM181 222h376l-188 426zM453 893l41.999 0.000976562c0 -38.667 -11.167 -68.834 -33.5 -90.501s-53.166 -32.5 -92.499 -32.5c-40 0 -71 10.833 -93 32.5c-22 21.6699 -33 51.8369 -33 90.5h40
c0 -55.333 28.667 -83 86 -83c31.334 0 53.167 8.16699 65.5 24.5s18.5 35.833 18.5 58.5z" />
    <glyph glyph-name="abreve" unicode="&#x103;" 
d="M501 494l49 -0.000976562v-494h-49v105c-46.667 -75.333 -114 -113 -202 -113c-70 0 -129.333 24 -178 72s-73 109 -73 183s24.167 134.667 72.5 182s107.833 71 178.5 71c42 0 81.167 -9.66699 117.5 -29s64.5 -47.666 84.5 -84.999v108zM299 452.999
c-57.333 0 -105.333 -19.166 -144 -57.499s-58 -87.833 -58 -148.5s19.333 -110.334 58 -149.001s86.667 -58 144 -58c38 0 71.667 7.66699 101 23c29.334 15.333 51.667 35 66.999 59c15.334 24 26.667 50.667 33.999 80c7.33301 29.333 7.33301 58.833 0 88.5
s-18.666 56.5 -33.999 80.5s-37.666 43.667 -66.999 59s-63 23 -101 23zM399 700l41.999 0.000976562c0 -38.667 -11.167 -68.834 -33.5 -90.501s-53.166 -32.5 -92.499 -32.5c-40 0 -71 10.833 -93 32.5c-22 21.668 -33 51.835 -33 90.5h40c0 -55.333 28.667 -83 86 -83
c31.334 0 53.167 8.16699 65.5 24.5s18.5 35.833 18.5 58.5z" />
    <glyph glyph-name="Aogonek" unicode="&#x104;" horiz-adv-x="739" 
d="M640 -115c16 0.666992 32.001 5.33203 48.001 13.999s28.667 20.667 38 36l32 -18c-19.335 -40.667 -57.668 -64 -115 -70c-50.667 -5.33301 -85.667 9.33398 -105 44.001c-16.667 29.333 -16 59.333 2 90c20 32 53 49.667 99 53l-61 138h-418l-76 -172h-58l314 700h59
l314 -700c-32 1.33301 -55 1 -69 -1c-30.667 -4.66699 -52.334 -16.5 -65.001 -35.5s-13 -37 -1 -54s32.667 -25.167 62 -24.5zM181.001 221.998h376l-188 426z" />
    <glyph glyph-name="aogonek" unicode="&#x105;" 
d="M299 453c-57.333 0 -105.333 -19.166 -144 -57.499s-58 -87.833 -58 -148.5s19.333 -110.334 58 -149.001s86.667 -58 144 -58c38 0 71.667 7.66699 101 23c29.334 15.333 51.667 35 66.999 59c15.334 24 26.667 50.667 33.999 80c7.33301 29.333 7.33301 58.833 0 88.5
s-18.666 56.5 -33.999 80.5s-37.666 43.667 -66.999 59s-63 23 -101 23zM550 494.001l0.000976562 -523.999c-50.667 4 -84.334 -8 -101 -36c-12.6602 -20.667 -11.3271 -39.334 4 -56.001c12 -14 30 -20.333 54 -19c16 0.666016 32 5.33301 48 14s28.667 20.667 38 36
l32 -18c-10 -21.333 -25.667 -38 -47 -50s-44 -18.667 -68 -20c-34.667 -1.33398 -61.834 6.33301 -81.5 23c-19.667 16.667 -30 35.5 -31 56.5s7.66699 41.667 26 62c18.334 20.333 44.167 33.166 77.499 38.499v104c-46.667 -75.333 -114 -113 -202 -113
c-70 0 -129.333 24 -178 72s-73 109 -73 183s24.167 134.667 72.5 182s107.833 71 178.5 71c42 0 81.167 -9.66699 117.5 -29s64.5 -47.666 84.5 -84.999v108h49z" />
    <glyph glyph-name="Cacute" unicode="&#x106;" horiz-adv-x="714" 
d="M670 97l-35.999 33.998c-60.667 -59.333 -133.667 -89 -219 -89c-96.667 0 -171.834 29.333 -225.501 88s-81.167 131.334 -82.5 218.001c-0.666992 88.667 26 162.834 80 222.501s130 89.5 228 89.5c86 0 158.667 -29.667 218 -89l37 32c-70 70 -155 105 -255 105
c-76.667 0 -143 -17.333 -199 -52s-97 -79 -123 -133s-38.667 -113 -38 -177c0.666992 -100 32.667 -184 96 -252s151.333 -102 264 -102c100 0 185 35 255 105zM422.001 782.998h-46v4l71 114h62v-1z" />
    <glyph glyph-name="cacute" unicode="&#x107;" horiz-adv-x="521" 
d="M482 66l-33 33c-40.667 -40.667 -89.667 -61 -147 -61c-58 0 -106.833 18.833 -146.5 56.5s-59.5 88.5 -59.5 152.5s19.833 114.833 59.5 152.5s88.5 56.5 146.5 56.5c60 0 109.667 -19.667 149 -59l31 31c-50.667 49.333 -110.667 74 -180 74
c-72.667 0 -133.167 -23.333 -181.5 -70s-72.5 -108.334 -72.5 -185c0 -76 24.5 -137.5 73.5 -184.5s109.167 -70.5 180.5 -70.5c70.667 0 130.667 24.667 180 74zM304 595h-42v4l65 102h55v-1z" />
    <glyph glyph-name="Ccircumflex" unicode="&#x108;" horiz-adv-x="714" 
d="M670 97l-35.999 33.998c-60.667 -59.333 -133.667 -89 -219 -89c-96.667 0 -171.834 29.333 -225.501 88s-81.167 131.334 -82.5 218.001c-0.666992 88.667 26 162.834 80 222.501s130 89.5 228 89.5c86 0 158.667 -29.667 218 -89l37 32c-70 70 -155 105 -255 105
c-76.667 0 -143 -17.333 -199 -52s-97 -79 -123 -133s-38.667 -113 -38 -177c0.666992 -100 32.667 -184 96 -252s151.333 -102 264 -102c100 0 185 35 255 105zM260.001 787.998l137 127h39l137 -127v-7h-51l-106 92l-105 -92h-51v7z" />
    <glyph glyph-name="ccircumflex" unicode="&#x109;" horiz-adv-x="521" 
d="M482 66l-33 33c-40.667 -40.667 -89.667 -61 -147 -61c-58 0 -106.833 18.833 -146.5 56.5s-59.5 88.5 -59.5 152.5s19.833 114.833 59.5 152.5s88.5 56.5 146.5 56.5c60 0 109.667 -19.667 149 -59l31 31c-50.667 49.333 -110.667 74 -180 74
c-72.667 0 -133.167 -23.333 -181.5 -70s-72.5 -108.334 -72.5 -185c0 -76 24.5 -137.5 73.5 -184.5s109.167 -70.5 180.5 -70.5c70.667 0 130.667 24.667 180 74zM151 587l132 123h38l131 -123v-6h-49l-101 89l-101 -89h-50v6z" />
    <glyph glyph-name="Cdotaccent" unicode="&#x10a;" horiz-adv-x="714" 
d="M670 97l-35.999 33.998c-60.667 -59.333 -133.667 -89 -219 -89c-96.667 0 -171.834 29.333 -225.501 88s-81.167 131.334 -82.5 218.001c-0.666992 88.667 26 162.834 80 222.501s130 89.5 228 89.5c86 0 158.667 -29.667 218 -89l37 32c-70 70 -155 105 -255 105
c-76.667 0 -143 -17.333 -199 -52s-97 -79 -123 -133s-38.667 -113 -38 -177c0.666992 -100 32.667 -184 96 -252s151.333 -102 264 -102c100 0 185 35 255 105zM375.001 823.998c0 12 4.16699 21.5 12.5 28.5s17.333 10.5 27 10.5s18.667 -3.5 27 -10.5
s12.5 -16.5 12.5 -28.5s-4.16699 -21.5 -12.5 -28.5s-17.333 -10.5 -27 -10.5s-18.667 3.5 -27 10.5s-12.5 16.5 -12.5 28.5z" />
    <glyph glyph-name="cdotaccent" unicode="&#x10b;" horiz-adv-x="521" 
d="M482 66l-33 33c-40.667 -40.667 -89.667 -61 -147 -61c-58 0 -106.833 18.833 -146.5 56.5s-59.5 88.5 -59.5 152.5s19.833 114.833 59.5 152.5s88.5 56.5 146.5 56.5c60 0 109.667 -19.667 149 -59l31 31c-50.667 49.333 -110.667 74 -180 74
c-72.667 0 -133.167 -23.333 -181.5 -70s-72.5 -108.334 -72.5 -185c0 -76 24.5 -137.5 73.5 -184.5s109.167 -70.5 180.5 -70.5c70.667 0 130.667 24.667 180 74zM261 652c0 15.333 6.16602 26.167 18.499 32.5c12.334 6.33301 24.667 6.33301 37 0
c12.333 -6.33398 18.5 -17.167 18.5 -32.5s-6.16699 -26 -18.5 -32s-24.666 -6 -36.999 0s-18.5 16.667 -18.5 32z" />
    <glyph glyph-name="Ccaron" unicode="&#x10c;" horiz-adv-x="714" 
d="M670 97l-35.999 33.998c-60.667 -59.333 -133.667 -89 -219 -89c-96.667 0 -171.834 29.333 -225.501 88s-81.167 131.334 -82.5 218.001c-0.666992 88.667 26 162.834 80 222.501s130 89.5 228 89.5c86 0 158.667 -29.667 218 -89l37 32c-70 70 -155 105 -255 105
c-76.667 0 -143 -17.333 -199 -52s-97 -79 -123 -133s-38.667 -113 -38 -177c0.666992 -100 32.667 -184 96 -252s151.333 -102 264 -102c100 0 185 35 255 105zM551.001 899.998l-131 -122h-38l-132 122v7h50l101 -90l101 90h49v-7z" />
    <glyph glyph-name="ccaron" unicode="&#x10d;" horiz-adv-x="521" 
d="M482 66l-33 33c-40.667 -40.667 -89.667 -61 -147 -61c-58 0 -106.833 18.833 -146.5 56.5s-59.5 88.5 -59.5 152.5s19.833 114.833 59.5 152.5s88.5 56.5 146.5 56.5c60 0 109.667 -19.667 149 -59l31 31c-50.667 49.333 -110.667 74 -180 74
c-72.667 0 -133.167 -23.333 -181.5 -70s-72.5 -108.334 -72.5 -185c0 -76 24.5 -137.5 73.5 -184.5s109.167 -70.5 180.5 -70.5c70.667 0 130.667 24.667 180 74zM443 694l-130 -121h-37l-130 121v7h49l99 -89l100 89h49v-7z" />
    <glyph glyph-name="Dcaron" unicode="&#x10e;" horiz-adv-x="746" 
d="M336 700l-236.999 0.000976562v-700h237c59.333 0 112.333 10.167 159 30.5s84.167 47.666 112.5 81.999s49.666 72.5 63.999 114.5s20.833 85.667 19.5 131c-1.33301 44 -9.5 86 -24.5 126s-36.667 76.333 -65 109s-65.333 58.667 -111 78s-97.167 29 -154.5 29z
M153.001 649.001h183c94.667 0 168.167 -28.5 220.5 -85.5s79.166 -125.5 80.499 -205.5c1.33301 -82 -24.167 -153.5 -76.5 -214.5s-127.166 -91.5 -224.499 -91.5h-183v597zM476.001 900.001l-135 -126h-39l-136 126v7h51l104 -92l105 92h50v-7z" />
    <glyph glyph-name="dcaron" unicode="&#x10f;" 
d="M299 455c-58.667 0 -107 -18.001 -145 -54.001s-57 -87.333 -57 -154c0 -66 19.167 -117 57.5 -153s86.5 -54 144.5 -54c58.667 0 107 19.333 145 58s57 88.667 57 150c0 60.667 -19.167 110.334 -57.5 149.001s-86.5 58 -144.5 58zM502 699.999l48 0.00292969v-700h-48
v109c-20 -36.667 -48.667 -65.334 -86 -86.001s-77.333 -31 -120 -31c-71.333 0 -130.333 22.667 -177 68s-70 107.666 -70 186.999s23.5 141.666 70.5 186.999s106.167 68 177.5 68c44.667 0 85.167 -9.66699 121.5 -29c36.334 -19.333 64.167 -48.333 83.5 -87v314z
M638 552.002h-39l40 149h50z" />
    <glyph glyph-name="Dcroat" unicode="&#x110;" horiz-adv-x="752" 
d="M40 327v46.999h65v326h237c57.333 0 108.833 -9.66699 154.5 -29s82.667 -45.333 111 -78s50 -69 65 -109s23.167 -82 24.5 -126c1.33301 -45.333 -5.16699 -89 -19.5 -131c-14.3359 -42 -35.6689 -80.167 -64 -114.5c-28.333 -34.333 -65.833 -61.666 -112.5 -81.999
s-99.667 -30.5 -159 -30.5h-237v327h-65zM342 648.999h-182.999v-275h145v-47h-145v-275h183c97.333 0 172.166 30.5 224.499 91.5s77.833 132.5 76.5 214.5c-1.33496 80 -28.168 148.5 -80.5 205.5c-52.333 57 -125.833 85.5 -220.5 85.5z" />
    <glyph glyph-name="dcroat" unicode="&#x111;" 
d="M502 700l48 0.00195312v-74h78v-40h-78v-586h-48v109c-20 -36.667 -48.667 -65.334 -86 -86.001s-77.333 -31 -120 -31c-71.333 0 -130.333 22.667 -177 68s-70 107.666 -70 186.999c0 79.334 23.5 141.667 70.5 187s106.167 68 177.5 68
c44.667 0 85.167 -9.66699 121.5 -29c36.334 -19.333 64.167 -48.333 83.5 -87v200h-110v40h110v74zM299 455.002c-58.667 0 -107 -18.001 -145 -54.001s-57 -87.333 -57 -154c0 -66 19.167 -117 57.5 -153s86.5 -54 144.5 -54c58.667 0 107 19.333 145 58s57 88.667 57 150
c0 60.667 -19.167 110.334 -57.5 149.001s-86.5 58 -144.5 58z" />
    <glyph glyph-name="Emacron" unicode="&#x112;" horiz-adv-x="649" 
d="M152 649v-272h410v-49h-410v-276h442v-52h-495v700h483v-51h-430zM185 787v46h314v-46h-314z" />
    <glyph glyph-name="emacron" unicode="&#x113;" horiz-adv-x="587" 
d="M299 -8c-71.333 0 -131 23.334 -179 70.001s-72 108.334 -72 185.001c0 73.333 24.333 134.166 73 182.499s108 72.5 178 72.5c76 0 137.833 -23.667 185.5 -71s67.167 -116.333 58.5 -207h-445c4.66699 -56 26.167 -100.667 64.5 -134s83.833 -50 136.5 -50
c34 0 67.667 6.66699 101 20s59 31.666 77 54.999l35 -28c-23.333 -30.667 -54.333 -54.167 -93 -70.5s-78.667 -24.5 -120 -24.5zM98 267.001h401c-0.666992 60 -19 106.667 -55 140s-84.333 50 -145 50c-52.667 0 -98 -17 -136 -51s-59.667 -80.333 -65 -139zM148 652.001
v42h307v-42h-307z" />
    <glyph glyph-name="Ebreve" unicode="&#x114;" horiz-adv-x="649" 
d="M152 649v-272h410v-49h-410v-276h442v-52h-495v700h483v-51h-430zM438 898l41.999 0.000976562c0 -38.667 -11.167 -68.834 -33.5 -90.501s-53.166 -32.5 -92.499 -32.5c-40 0 -71 10.833 -93 32.5c-22 21.668 -33 51.835 -33 90.5h40c0 -55.333 28.667 -83 86 -83
c31.334 0 53.167 8.16699 65.5 24.5s18.5 35.833 18.5 58.5z" />
    <glyph glyph-name="ebreve" unicode="&#x115;" horiz-adv-x="587" 
d="M299 -8c-71.333 0 -131 23.334 -179 70.001s-72 108.334 -72 185.001c0 73.333 24.333 134.166 73 182.499s108 72.5 178 72.5c76 0 137.833 -23.667 185.5 -71s67.167 -116.333 58.5 -207h-445c4.66699 -56 26.167 -100.667 64.5 -134s83.833 -50 136.5 -50
c34 0 67.667 6.66699 101 20s59 31.666 77 54.999l35 -28c-23.333 -30.667 -54.333 -54.167 -93 -70.5s-78.667 -24.5 -120 -24.5zM98 267.001h401c-0.666992 60 -19 106.667 -55 140s-84.333 50 -145 50c-52.667 0 -98 -17 -136 -51s-59.667 -80.333 -65 -139zM383 700.001
l41.999 0.000976562c0 -38.667 -11.167 -68.834 -33.5 -90.501s-53.166 -32.5 -92.499 -32.5c-40 0 -71 10.833 -93 32.5c-22 21.668 -33 51.835 -33 90.5h40c0 -55.333 28.667 -83 86 -83c31.334 0 53.167 8.16699 65.5 24.5s18.5 35.833 18.5 58.5z" />
    <glyph glyph-name="Edotaccent" unicode="&#x116;" horiz-adv-x="649" 
d="M152 377v272h430v51h-483v-700h495v52h-442v276h410v49h-410zM314 819c0 12 4.16699 21.5 12.5 28.5s17.333 10.5 27 10.5s18.667 -3.5 27 -10.5s12.5 -16.5 12.5 -28.5s-4.16699 -21.5 -12.5 -28.5s-17.333 -10.5 -27 -10.5s-18.667 3.5 -27 10.5s-12.5 16.5 -12.5 28.5
z" />
    <glyph glyph-name="edotaccent" unicode="&#x117;" horiz-adv-x="587" 
d="M299 -8c41.333 0 81.333 8.16602 120 24.499s69.667 39.833 93 70.5l-35 28c-18 -23.333 -43.667 -41.666 -77 -54.999s-67 -20 -101 -20c-52.667 0 -98.167 16.667 -136.5 50s-59.833 78 -64.5 134h445c8.66699 90.667 -10.833 159.667 -58.5 207s-109.5 71 -185.5 71
c-70 0 -129.333 -24.167 -178 -72.5s-73 -109.166 -73 -182.499c0 -76.667 24 -138.334 72 -185.001s107.667 -70 179 -70zM98 266.999c5.33301 58.667 27 105 65 139s83.333 51 136 51c60.667 0 109 -16.667 145 -50s54.333 -80 55 -140h-401zM265 666.999
c0 12 4.16699 21.5 12.5 28.5s17.333 10.5 27 10.5s18.667 -3.5 27 -10.5s12.5 -16.5 12.5 -28.5s-4.16699 -21.5 -12.5 -28.5s-17.333 -10.5 -27 -10.5s-18.667 3.5 -27 10.5s-12.5 16.5 -12.5 28.5z" />
    <glyph glyph-name="Eogonek" unicode="&#x118;" horiz-adv-x="649" 
d="M594 0c-68.667 -3.33301 -111.667 -21.333 -129 -54c-11.333 -20.667 -8 -38.667 10 -54c12 -10 28 -14.667 48 -14c40.667 1.33301 70.667 18.333 90 51l34 -18c-10.667 -23.333 -27.5 -42.333 -50.5 -57s-46.833 -22.667 -71.5 -24
c-38.667 -1.33398 -68.167 8.83301 -88.5 30.5s-26.833 46.5 -19.5 74.5s26.333 49.667 57 65h-375v700h483v-51h-430v-272h410v-49h-410v-276h442v-52z" />
    <glyph glyph-name="eogonek" unicode="&#x119;" horiz-adv-x="587" 
d="M299 -7c-71.333 0 -131.001 23.167 -179.001 69.5s-72 107.833 -72 184.5c0 73.333 24.333 134.166 73 182.499s108 72.5 178 72.5c76 0 137.833 -23.667 185.5 -71s67.167 -116.333 58.5 -207h-445c4.66699 -56 26.167 -100.5 64.5 -133.5s83.833 -49.5 136.5 -49.5
c34 0 67.667 6.66699 101 20s59 31.666 77 54.999l35 -28c-26 -34 -63.333 -60 -112 -78c-18.667 -9.33301 -29.834 -22.833 -33.5 -40.5c-3.66699 -17.667 1 -33.334 14 -47.001s31.167 -20.167 54.5 -19.5c16 0.666992 32 5.33398 48 14.001s28.667 20.667 38 36l32 -18
c-10 -21.333 -26.167 -38.833 -48.5 -52.5s-45.166 -21.167 -68.499 -22.5c-24.667 -1.33301 -46 2.16699 -64 10.5s-30.833 19.333 -38.5 33s-11.167 28.834 -10.5 45.501s6 32.334 16 47.001c-22 -2 -35.333 -3 -40 -3zM97.999 267h401c-0.666992 60 -19 106.667 -55 140
s-84.333 50 -145 50c-52.667 0 -98 -17 -136 -51s-59.667 -80.333 -65 -139z" />
    <glyph glyph-name="Ecaron" unicode="&#x11a;" horiz-adv-x="649" 
d="M152 377v272h430v51h-483v-700h495v52h-442v276h410v49h-410zM512 900l-137 -127h-39l-136 127v7h51l105 -93l105 93h51v-7z" />
    <glyph glyph-name="ecaron" unicode="&#x11b;" horiz-adv-x="587" 
d="M299 -8c41.333 0 81.333 8.16602 120 24.499s69.667 39.833 93 70.5l-35 28c-18 -23.333 -43.667 -41.666 -77 -54.999s-67 -20 -101 -20c-52.667 0 -98.167 16.667 -136.5 50s-59.833 78 -64.5 134h445c8.66699 90.667 -10.833 159.667 -58.5 207s-109.5 71 -185.5 71
c-70 0 -129.333 -24.167 -178 -72.5s-73 -109.166 -73 -182.499c0 -76.667 24 -138.334 72 -185.001s107.667 -70 179 -70zM98 266.999c5.33301 58.667 27 105 65 139s83.333 51 136 51c60.667 0 109 -16.667 145 -50s54.333 -80 55 -140h-401zM455 693.999l-135 -125h-38
l-135 125v7h51l103 -91l104 91h50v-7z" />
    <glyph glyph-name="Gcircumflex" unicode="&#x11c;" horiz-adv-x="744" 
d="M642 571l30.998 33.999c-71.334 70 -156.667 105 -256 105c-107.333 0 -194.5 -33.167 -261.5 -99.5c-67 -66.334 -100.167 -153.834 -99.5 -262.5c0 -65.333 13.167 -124.5 39.5 -177.5s67.333 -96.167 123 -129.5s121.834 -50 198.501 -50
c100.667 0 188.667 37.667 264 113v262h-295v-47h244v-196c-58.667 -54 -129.667 -81 -213 -81c-98 0 -174 29.333 -228 88s-81 131.667 -81 219c-0.666992 86.667 26.333 160.334 81 221.001s130.667 91 228 91c40.667 0 80.834 -7.66699 120.501 -23
c39.667 -15.3359 74.5 -37.6689 104.5 -67zM246.998 785.999l136 127h38l135 -127v-6h-50l-104 92l-104 -92h-51v6z" />
    <glyph glyph-name="gcircumflex" unicode="&#x11d;" horiz-adv-x="606" 
d="M456 459l51.001 59.999l32 -28l-51 -60c22 -24 39 -48.333 51 -73s18 -57 18 -97c0 -47.333 -13.667 -91.833 -41 -133.5s-66.333 -68.5 -117 -80.5c46.667 -10.667 84 -29.667 112 -57s42 -62.666 42 -105.999c0 -56.667 -24.167 -101 -72.5 -133
s-107.166 -48 -176.499 -48c-68.667 0 -126.5 17.667 -173.5 53s-70.5 83.333 -70.5 144h49c0 -48 19.167 -85 57.5 -111s84.166 -39 137.499 -39c55.333 0 102.666 11.167 141.999 33.5s59 55.833 59 100.5s-20.333 78.5 -61 101.5s-87.334 34.5 -140.001 34.5
c-76 0 -137.5 21.333 -184.5 64s-70.5 101.667 -70.5 177c0 74.667 26 133.5 78 176.5s111 64.5 177 64.5c60.667 0 111.334 -14.333 152.001 -43zM304.001 455.999c-53.333 0 -101 -16.832 -143 -50.499s-63 -81.834 -63 -144.5c0 -64 19 -112.5 57 -145.5
s87.667 -49.5 149 -49.5c60.667 0 110 19.167 148 57.5s57 84.166 57 137.499c0 64 -20 112.5 -60 145.5s-88.333 49.5 -145 49.5zM156.001 585l135 126h38l135 -126v-6h-50l-104 91l-103 -91h-51v6z" />
    <glyph glyph-name="Gbreve" unicode="&#x11e;" horiz-adv-x="744" 
d="M673 605l-30.999 -33.999c-30 29.333 -64.833 51.666 -104.5 66.999s-79.834 23 -120.5 23c-97.333 0 -173.333 -30.333 -228 -91s-81.667 -134.334 -81 -221c0 -87.333 27 -160.333 81 -219s130 -88 228 -88c83.333 0 154.333 27 213 81v196h-244v47h295v-262
c-75.333 -75.333 -163.333 -113 -264 -113c-76.667 0 -142.834 16.667 -198.501 50s-96.667 76.5 -123 129.5s-39.5 112.167 -39.5 177.5c-0.666992 108.667 32.5 196.167 99.5 262.5s154.167 99.5 261.5 99.5c100 0 185.333 -35 256 -105zM497.001 898.001h42
c0 -36 -11.333 -64.167 -34 -84.5s-53.667 -30.5 -93 -30.5c-40 0 -71.167 10.167 -93.5 30.5s-33.5 48.5 -33.5 84.5h41c0 -51.333 28.667 -77 86 -77c31.333 0 53.333 7.5 66 22.5s19 33.167 19 54.5z" />
    <glyph glyph-name="gbreve" unicode="&#x11f;" horiz-adv-x="606" 
d="M456 459l51.001 59.999l32 -28l-51 -60c22 -24 39 -48.333 51 -73s18 -57 18 -97c0 -47.333 -13.667 -91.833 -41 -133.5s-66.333 -68.5 -117 -80.5c46.667 -10.667 84 -29.667 112 -57s42 -62.666 42 -105.999c0 -56.667 -24.167 -101 -72.5 -133
s-107.166 -48 -176.499 -48c-68.667 0 -126.5 17.667 -173.5 53s-70.5 83.333 -70.5 144h49c0 -48 19.167 -85 57.5 -111s84.166 -39 137.499 -39c55.333 0 102.666 11.167 141.999 33.5s59 55.833 59 100.5s-20.333 78.5 -61 101.5s-87.334 34.5 -140.001 34.5
c-76 0 -137.5 21.333 -184.5 64s-70.5 101.667 -70.5 177c0 74.667 26 133.5 78 176.5s111 64.5 177 64.5c60.667 0 111.334 -14.333 152.001 -43zM304.001 455.999c-53.333 0 -101 -16.832 -143 -50.499s-63 -81.834 -63 -144.5c0 -64 19 -112.5 57 -145.5
s87.667 -49.5 149 -49.5c60.667 0 110 19.167 148 57.5s57 84.166 57 137.499c0 64 -20 112.5 -60 145.5s-88.333 49.5 -145 49.5zM392.001 710l42 0.000976562c0 -38.667 -11.167 -68.834 -33.5 -90.501s-53.166 -32.5 -92.499 -32.5c-40 0 -71 10.833 -93 32.5
c-22 21.668 -33 51.835 -33 90.5h40c0 -55.333 28.667 -83 86 -83c31.333 0 53.166 8.16699 65.499 24.5s18.5 35.833 18.5 58.5z" />
    <glyph glyph-name="Gdotaccent" unicode="&#x120;" horiz-adv-x="744" 
d="M642 571l30.998 33.999c-71.334 70 -156.667 105 -256 105c-107.333 0 -194.5 -33.167 -261.5 -99.5c-67 -66.334 -100.167 -153.834 -99.5 -262.5c0 -65.333 13.167 -124.5 39.5 -177.5s67.333 -96.167 123 -129.5s121.834 -50 198.501 -50
c100.667 0 188.667 37.667 264 113v262h-295v-47h244v-196c-58.667 -54 -129.667 -81 -213 -81c-98 0 -174 29.333 -228 88s-81 131.667 -81 219c-0.666992 86.667 26.333 160.334 81 221.001s130.667 91 228 91c40.667 0 80.834 -7.66699 120.501 -23
c39.667 -15.3359 74.5 -37.6689 104.5 -67zM374.998 816.999c0 16 6.66699 27.167 20 33.5s26.833 6.33301 40.5 0s20.5 -17.5 20.5 -33.5s-6.83301 -27.167 -20.5 -33.5s-27.167 -6.33301 -40.5 0s-20 17.5 -20 33.5z" />
    <glyph glyph-name="gdotaccent" unicode="&#x121;" horiz-adv-x="606" 
d="M456 459l51.001 59.999l32 -28l-51 -60c22 -24 39 -48.333 51 -73s18 -57 18 -97c0 -47.333 -13.667 -91.833 -41 -133.5s-66.333 -68.5 -117 -80.5c46.667 -10.667 84 -29.667 112 -57s42 -62.666 42 -105.999c0 -56.667 -24.167 -101 -72.5 -133
s-107.166 -48 -176.499 -48c-68.667 0 -126.5 17.667 -173.5 53s-70.5 83.333 -70.5 144h49c0 -48 19.167 -85 57.5 -111s84.166 -39 137.499 -39c55.333 0 102.666 11.167 141.999 33.5s59 55.833 59 100.5s-20.333 78.5 -61 101.5s-87.334 34.5 -140.001 34.5
c-76 0 -137.5 21.333 -184.5 64s-70.5 101.667 -70.5 177c0 74.667 26 133.5 78 176.5s111 64.5 177 64.5c60.667 0 111.334 -14.333 152.001 -43zM304.001 455.999c-53.333 0 -101 -16.832 -143 -50.499s-63 -81.834 -63 -144.5c0 -64 19 -112.5 57 -145.5
s87.667 -49.5 149 -49.5c60.667 0 110 19.167 148 57.5s57 84.166 57 137.499c0 64 -20 112.5 -60 145.5s-88.333 49.5 -145 49.5zM276.001 666c0 16 6.66699 27.167 20 33.5s26.833 6.33301 40.5 0s20.5 -17.5 20.5 -33.5s-6.83301 -27.167 -20.5 -33.5
s-27.167 -6.33301 -40.5 0s-20 17.5 -20 33.5z" />
    <glyph glyph-name="Gcommaaccent" unicode="&#x122;" horiz-adv-x="744" 
d="M385 -123c0 12 4.16699 21.5 12.5 28.5s17.333 10.5 27 10.5s18.667 -3.5 27 -10.5s12.5 -16.5 12.5 -28.5c0 -5.33301 -1 -11 -3 -17l-36 -90h-43l27 71c-16 6 -24 18 -24 36zM673 605l-30.999 -33.999c-30 29.333 -64.833 51.666 -104.5 66.999s-79.834 23 -120.5 23
c-97.333 0 -173.333 -30.333 -228 -91s-81.667 -134.334 -81 -221c0 -87.333 27 -160.333 81 -219s130 -88 228 -88c83.333 0 154.333 27 213 81v196h-244v47h295v-262c-75.333 -75.333 -163.333 -113 -264 -113c-76.667 0 -142.834 16.667 -198.501 50
s-96.667 76.5 -123 129.5s-39.5 112.167 -39.5 177.5c-0.666992 108.667 32.5 196.167 99.5 262.5s154.167 99.5 261.5 99.5c100 0 185.333 -35 256 -105z" />
    <glyph glyph-name="gcommaaccent" unicode="&#x123;" horiz-adv-x="606" 
d="M360 618c0 -12 -4.16699 -21.5 -12.5 -28.5s-17.333 -10.5 -27 -10.5s-18.667 3.5 -27 10.5s-12.5 16.5 -12.5 28.5c0 5.33301 1 11 3 17l36 90h43l-27 -71c16 -6 24 -18 24 -36zM456 459l51.001 59.999l32 -28l-51 -60c22 -24 39 -48.333 51 -73s18 -57 18 -97
c0 -47.333 -13.667 -91.833 -41 -133.5s-66.333 -68.5 -117 -80.5c46.667 -10.667 84 -29.667 112 -57s42 -62.666 42 -105.999c0 -56.667 -24.167 -101 -72.5 -133s-107.166 -48 -176.499 -48c-68.667 0 -126.5 17.667 -173.5 53s-70.5 83.333 -70.5 144h49
c0 -48 19.167 -85 57.5 -111s84.166 -39 137.499 -39c55.333 0 102.666 11.167 141.999 33.5s59 55.833 59 100.5s-20.333 78.5 -61 101.5s-87.334 34.5 -140.001 34.5c-76 0 -137.5 21.333 -184.5 64s-70.5 101.667 -70.5 177c0 74.667 26 133.5 78 176.5
s111 64.5 177 64.5c60.667 0 111.334 -14.333 152.001 -43zM304.001 455.999c-53.333 0 -101 -16.832 -143 -50.499s-63 -81.834 -63 -144.5c0 -64 19 -112.5 57 -145.5s87.667 -49.5 149 -49.5c60.667 0 110 19.167 148 57.5s57 84.166 57 137.499
c0 64 -20 112.5 -60 145.5s-88.333 49.5 -145 49.5z" />
    <glyph glyph-name="Hcircumflex" unicode="&#x124;" horiz-adv-x="752" 
d="M599 0h54v700h-54v-333h-446v333h-54v-700h54v318h446v-318zM226 778l138 129h39l138 -129v-7h-52l-106 94l-105 -94h-52v7z" />
    <glyph glyph-name="hcircumflex" unicode="&#x125;" horiz-adv-x="588" 
d="M128 700l-47.001 -0.000976562v-700h49v271c0 52 16.5 95.5 49.5 130.5s75.167 52.5 126.5 52.5c53.334 0 93.167 -15.167 119.5 -45.5s39.5 -72.166 39.5 -125.499v-283h48v283c0 66.667 -17.667 119.667 -53 159s-86.666 59 -153.999 59
c-82 -1.33301 -141.333 -34.333 -178 -99v298zM134.999 771.999l136 127h38l137 -127v-7h-51l-105 92l-105 -92h-50v7z" />
    <glyph glyph-name="Hbar" unicode="&#x126;" horiz-adv-x="764" 
d="M659 0h-54v318h-446v-318h-54v531h-74v41h74v128h54v-128h446v128h54v-128h74v-41h-74v-531zM159 367h446v164h-446v-164z" />
    <glyph glyph-name="hbar" unicode="&#x127;" horiz-adv-x="588" 
d="M16 578l-0.000976562 41h65v81h47v-81h127v-41h-127v-176c36.667 64.667 96 97.667 178 99c67.334 0 118.667 -19.667 154 -59s53 -92.333 53 -159v-283h-48v283c0 53.334 -13.167 95.167 -39.5 125.5s-66.166 45.5 -119.499 45.5c-51.333 0 -93.5 -17.5 -126.5 -52.5
s-49.5 -78.5 -49.5 -130.5v-271h-49v578h-65z" />
    <glyph glyph-name="Itilde" unicode="&#x128;" horiz-adv-x="251" 
d="M152 0h-53v700h53v-700zM32 782l-33 11c3.33301 28 16.666 47.5 39.999 58.5s46.666 10.167 69.999 -2.5l40 -21c11.333 -6.66699 23 -8 35 -4s20 13.667 24 29l33 -10c-2.66699 -29.333 -15.667 -49.333 -39 -60s-46.666 -9.66699 -69.999 3l-40 22
c-11.333 6 -23.166 6.83301 -35.499 2.5s-20.5 -13.833 -24.5 -28.5z" />
    <glyph glyph-name="itilde" unicode="&#x129;" horiz-adv-x="211" 
d="M81 496h49v-496h-49v496zM32 638l-29 10.001c2.66699 26 14 44 34 54s40.333 9.33301 61 -2l35 -20c10 -6 20.333 -7.16699 31 -3.5c10.667 3.67188 17.334 12.8389 20 27.5l29 -10c-2.66699 -26.667 -14 -45 -34 -55s-40.333 -9 -61 3l-34 20
c-10 5.33301 -20.333 6.16602 -31 2.49902s-17.667 -12.5 -21 -26.5z" />
    <glyph glyph-name="Imacron" unicode="&#x12a;" horiz-adv-x="251" 
d="M152 0h-53v700h53v-700zM8 777v45h235v-45h-235z" />
    <glyph glyph-name="imacron" unicode="&#x12b;" horiz-adv-x="211" 
d="M81 496h49v-496h-49v496zM5 655v43h200v-43h-200z" />
    <glyph glyph-name="Ibreve" unicode="&#x12c;" horiz-adv-x="251" 
d="M207 885h39.001c2 -72 -37 -108 -117 -108c-39.333 0 -69 9.33301 -89 28s-29.333 45.667 -28 81h39c0 -21.333 5.16699 -38.333 15.5 -51s31.166 -19 62.499 -19c30.667 0 51.334 6.33301 62 19c10.667 12.6699 16 29.3369 16 50zM154.001 0h-53v700h53v-700z" />
    <glyph glyph-name="ibreve" unicode="&#x12d;" horiz-adv-x="211" 
d="M81 496h49v-496h-49v496zM180 700h37c0 -36 -9.83301 -64.333 -29.5 -85s-46.834 -31 -81.501 -31c-35.333 0 -62.666 10.333 -81.999 31s-29 49 -29 85h36c0 -52 25 -78 75 -78c49.333 0 74 26 74 78z" />
    <glyph glyph-name="Iogonek" unicode="&#x12e;" horiz-adv-x="254" 
d="M158 700v-699.999c-44.667 -0.666992 -71.334 -15 -80.001 -43c-7.33301 -22 -1.33301 -40.667 18 -56c12 -10 27.333 -14.667 46 -14c38.667 1.33301 67 16.666 85 45.999l32 -18c-10 -21.333 -25.667 -38 -47 -50s-44 -18.667 -68 -20
c-32 -1.33398 -58 5.83301 -78 21.5s-31.5 33.667 -34.5 54s1.83301 40.833 14.5 61.5s32.334 34.667 59.001 42v676h53z" />
    <glyph glyph-name="iogonek" unicode="&#x12f;" horiz-adv-x="214" 
d="M78 655c0 12 4.16699 21.5 12.5 28.5s17.333 10.5 27 10.5s18.667 -3.5 27 -10.5s12.5 -16.5 12.5 -28.5s-4.16699 -21.5 -12.5 -28.5s-17.333 -10.5 -27 -10.5s-18.667 3.5 -27 10.5s-12.5 16.5 -12.5 28.5zM141 496l-48.999 -0.000976562v-473
c-26.667 -8 -46 -22 -58 -42s-15.333 -40.833 -10 -62.5s17.666 -40.167 36.999 -55.5c24.667 -20 54.334 -26.167 89.001 -18.5s59.667 26.167 75 55.5l-30 17c-13.333 -17.333 -30.833 -28.166 -52.5 -32.499s-41.834 0.166992 -60.501 13.5
c-12 10 -18.5 22.833 -19.5 38.5s5.5 30 19.5 43s33.667 19.833 59 20.5v496z" />
    <glyph glyph-name="Idotaccent" unicode="&#x130;" horiz-adv-x="251" 
d="M99 0h53v700h-53v-700zM87 814c0 12 4.16699 21.5 12.5 28.5s17.333 10.5 27 10.5s18.667 -3.5 27 -10.5s12.5 -16.5 12.5 -28.5s-4.16699 -21.5 -12.5 -28.5s-17.333 -10.5 -27 -10.5s-18.667 3.5 -27 10.5s-12.5 16.5 -12.5 28.5z" />
    <glyph glyph-name="dotlessi" unicode="&#x131;" horiz-adv-x="211" 
d="M81 496h49v-496h-49v496z" />
    <glyph glyph-name="IJ" unicode="&#x132;" horiz-adv-x="924" 
d="M780 264v388.999h-268v47h321v-436c0 -84.667 -25.833 -151.667 -77.5 -201s-118.167 -74 -199.5 -74c-80 0 -146 25.667 -198 77s-78 117.333 -78 198h50c0 -66 21.333 -120 64 -162s96.667 -63 162 -63c66.667 0 120.667 19.833 162 59.5s62 94.834 62 165.501z
M152 -0.000976562h-53v700h53v-700z" />
    <glyph glyph-name="ij" unicode="&#x133;" horiz-adv-x="421" 
d="M340 495h-47.999v-566c0 -40 -5.33301 -70.5 -16 -91.5s-33.334 -31.5 -68.001 -31.5c-26.667 0 -51.667 6.66699 -75 20l-14 -42c30 -16 59.667 -24 89 -24c50.667 0 85.5 14.667 104.5 44s28.167 71 27.5 125v566zM276.001 660c0 12 4.16699 21.5 12.5 28.5
s17.333 10.5 27 10.5s18.667 -3.5 27 -10.5s12.5 -16.5 12.5 -28.5s-4.16699 -21.5 -12.5 -28.5s-17.333 -10.5 -27 -10.5s-18.667 3.5 -27 10.5s-12.5 16.5 -12.5 28.5zM130.001 496h-49v-496h49v496zM67.001 655c0 12 4.16699 21.5 12.5 28.5s17.333 10.5 27 10.5
s18.667 -3.5 27 -10.5s12.5 -16.5 12.5 -28.5s-4.16699 -21.5 -12.5 -28.5s-17.333 -10.5 -27 -10.5s-18.667 3.5 -27 10.5s-12.5 16.5 -12.5 28.5z" />
    <glyph glyph-name="Jcircumflex" unicode="&#x134;" horiz-adv-x="673" 
d="M529 653v-388.999c0 -70.667 -20.667 -125.834 -62 -165.501s-95.333 -59.5 -162 -59.5c-65.333 0 -119.333 21 -162 63s-64 96 -64 162h-50c0 -80.667 26 -146.667 78 -198s118 -77 198 -77c81.333 0 147.833 24.667 199.5 74s77.5 116.333 77.5 201v436h-321v-47h268z
M240 779.001l138 128h39l138 -128v-7h-52l-106 93l-105 -93h-52v7z" />
    <glyph glyph-name="jcircumflex" unicode="&#x135;" horiz-adv-x="210" 
d="M129 495h-47.999v-570c0 -40 -5.33301 -70.5 -16 -91.5s-33.334 -31.5 -68.001 -31.5c-26.667 0 -51.667 6.66699 -75 20l-14 -42c30 -16 59.667 -24 89 -24c50.667 0 85.5 14.667 104.5 44s28.167 71 27.5 125v570zM-18.999 575l112 126h31l111 -126v-6h-41l-86 91
l-85 -91h-42v6z" />
    <glyph glyph-name="Kcommaaccent" unicode="&#x136;" horiz-adv-x="590" 
d="M285 -107c0 12 4.16699 21.5 12.5 28.5s17.333 10.5 27 10.5s18.667 -3.5 27 -10.5s12.5 -16.5 12.5 -28.5c0 -5.33301 -1 -11 -3 -17l-36 -90h-43l27 71c-16 6 -24 18 -24 36zM588 4v-4h-68l-369 345v-344h-54v699h54v-319l340 319h65v-5l-352 -330z" />
    <glyph glyph-name="kcommaaccent" unicode="&#x137;" horiz-adv-x="464" 
d="M223 -109c0 15.333 6.16699 26.166 18.5 32.499s24.833 6.33301 37.5 0s19 -17.166 19 -32.499c0 -6 -1 -11.333 -3 -16l-34 -86h-41l26 68c-15.333 4.66699 -23 16 -23 34zM81 700h48v-422l233 216h65v-2l-250 -231l279 -258v-3h-62l-265 242v-242h-48v700z" />
    <glyph glyph-name="kgreenlandic" unicode="&#x138;" horiz-adv-x="464" 
d="M81 495h48v-217l233 216h65v-2l-250 -231l279 -258v-3h-62l-265 242v-242h-48v495z" />
    <glyph glyph-name="Lacute" unicode="&#x139;" horiz-adv-x="564" 
d="M153 700h-54v-700h448v51h-394v649zM165 783h-45v4l71 112h60v-1z" />
    <glyph glyph-name="lacute" unicode="&#x13a;" horiz-adv-x="225" 
d="M137 700h-49v-700h49v700zM130 769h-42v4l66 105h57v-1z" />
    <glyph glyph-name="Lcommaaccent" unicode="&#x13b;" horiz-adv-x="564" 
d="M296 -118c0 12 4.16699 21.5 12.5 28.5s17.333 10.5 27 10.5s18.667 -3.5 27 -10.5s12.5 -16.5 12.5 -28.5c0 -5.33301 -1 -11 -3 -17l-36 -90h-43l27 71c-16 6 -24 18 -24 36zM99 700h54v-649h394v-51h-448v700z" />
    <glyph glyph-name="lcommaaccent" unicode="&#x13c;" horiz-adv-x="225" 
d="M75 -118c0 15.333 6.16797 26.166 18.501 32.499s24.666 6.33301 36.999 0s18.5 -17.166 18.5 -32.499c0 -4.66699 -1 -10 -3 -16l-34 -84h-40l25 67c-14.667 4.66699 -22 15.667 -22 33zM88.001 700h49v-700h-49v700z" />
    <glyph glyph-name="Lcaron" unicode="&#x13d;" horiz-adv-x="565" 
d="M99 700h54v-649h394v-51h-448v700zM416 545h-40l41 153h52z" />
    <glyph glyph-name="lcaron" unicode="&#x13e;" horiz-adv-x="218" 
d="M88 700h49v-700h-49v700zM226 547h-40l41 154h52z" />
    <glyph glyph-name="Ldot" unicode="&#x13f;" horiz-adv-x="564" 
d="M99 700h54v-649h394v-51h-448v700zM309 297c0 12 4.16699 21.5 12.5 28.5s17.333 10.5 27 10.5s18.667 -3.5 27 -10.5s12.5 -16.5 12.5 -28.5s-4.16699 -21.5 -12.5 -28.5s-17.333 -10.5 -27 -10.5s-18.667 3.5 -27 10.5s-12.5 16.5 -12.5 28.5z" />
    <glyph glyph-name="ldot" unicode="&#x140;" horiz-adv-x="298" 
d="M221 295c0 12 4.16699 21.5 12.5 28.5s17.333 10.5 27 10.5s18.667 -3.5 27 -10.5s12.5 -16.5 12.5 -28.5s-4.16699 -21.5 -12.5 -28.5s-17.333 -10.5 -27 -10.5s-18.667 3.5 -27 10.5s-12.5 16.5 -12.5 28.5zM88 700h49v-700h-49v700z" />
    <glyph glyph-name="Lslash" unicode="&#x141;" horiz-adv-x="570" 
d="M105 700h54v-330l116 49v-50l-116 -48v-270h394v-51h-448v299l-70 -28v48l70 29v352z" />
    <glyph glyph-name="lslash" unicode="&#x142;" horiz-adv-x="255" 
d="M102 700h49v-333l81 33v-50l-81 -32v-318h-49v299l-72 -28v48l72 29v352z" />
    <glyph glyph-name="Nacute" unicode="&#x143;" horiz-adv-x="745" 
d="M122 700h-23v-700h54v578l472 -578h21v700h-53v-579zM382 777h-47v4l73 116h63v-1z" />
    <glyph glyph-name="nacute" unicode="&#x144;" horiz-adv-x="603" 
d="M129 494l-48 -0.000976562v-494h49v275c0 51.333 16.167 94 48.5 128s73.833 51.333 124.5 52c54.667 0.666992 97.667 -13.833 129 -43.5s47 -72.167 47 -127.5v-284h49v285c0 67.333 -20.5 120.5 -61.5 159.5s-94.833 58.5 -161.5 58.5
c-82 -1.33301 -140.667 -33.666 -176 -96.999v88zM306 583.999h-45v4l70 113h62v-1z" />
    <glyph glyph-name="Ncommaaccent" unicode="&#x145;" horiz-adv-x="745" 
d="M339 -115c0 12 4.16699 21.5 12.5 28.5s17.333 10.5 27 10.5s18.667 -3.5 27 -10.5s12.5 -16.5 12.5 -28.5c0 -5.33301 -1 -11 -3 -17l-36 -90h-43l27 71c-16 6 -24 18 -24 36zM99 700h23l471 -579v579h53v-700h-21l-472 578v-578h-54v700z" />
    <glyph glyph-name="ncommaaccent" unicode="&#x146;" horiz-adv-x="603" 
d="M273 -110c0 15.333 6.16699 26 18.5 32s24.5 6 36.5 0s18 -16.667 18 -32c0 -6 -1 -11.333 -3 -16l-33 -84h-40l25 66c-14.667 6 -22 17.333 -22 34zM81 494h48v-88c35.333 63.334 94 95.667 176 97c66.667 0 120.5 -19.5 161.5 -58.5s61.5 -92.167 61.5 -159.5v-285h-49
v284c0 55.333 -15.667 97.833 -47 127.5s-74.333 44.167 -129 43.5c-50.667 -0.666992 -92.167 -18 -124.5 -52s-48.5 -76.667 -48.5 -128v-275h-49v494z" />
    <glyph glyph-name="Ncaron" unicode="&#x147;" horiz-adv-x="745" 
d="M122 700h-23v-700h54v578l472 -578h21v700h-53v-579zM530 900l-135 -125h-38l-135 125v7h51l103 -91l104 91h50v-7z" />
    <glyph glyph-name="ncaron" unicode="&#x148;" horiz-adv-x="603" 
d="M129 494l-48 -0.000976562v-494h49v275c0 51.333 16.167 94 48.5 128s73.833 51.333 124.5 52c54.667 0.666992 97.667 -13.833 129 -43.5s47 -72.167 47 -127.5v-284h49v285c0 67.333 -20.5 120.5 -61.5 159.5s-94.833 58.5 -161.5 58.5
c-82 -1.33301 -140.667 -33.666 -176 -96.999v88zM454 698.999l-133 -123h-38l-132 123v7h49l102 -90l102 90h50v-7z" />
    <glyph glyph-name="napostrophe" unicode="&#x149;" horiz-adv-x="603" 
d="M81 494h48v-88c35.333 63.334 94 95.667 176 97c66.667 0 120.5 -19.5 161.5 -58.5s61.5 -92.167 61.5 -159.5v-285h-49v284c0 55.333 -15.667 97.833 -47 127.5s-74.333 44.167 -129 43.5c-50.667 -0.666992 -92.167 -18 -124.5 -52s-48.5 -76.667 -48.5 -128v-275h-49
v494z" />
    <glyph glyph-name="Eng" unicode="&#x14a;" horiz-adv-x="745" 
d="M99 700h23l471 -583v583h53v-728c0.666992 -54 -8.5 -95.667 -27.5 -125s-53.833 -44 -104.5 -44c-26 0 -54 8 -84 24l14 42c23.334 -13.333 46.667 -20 70 -20c34.667 0 57.667 10.5 69 31.5s17 51.5 17 91.5v58l-447 548v-578h-54v700z" />
    <glyph glyph-name="eng" unicode="&#x14b;" horiz-adv-x="603" 
d="M528 285v-306.001c0.666992 -54 -8.5 -95.667 -27.5 -125s-53.833 -44 -104.5 -44c-23.333 0 -50 8 -80 24l14 42c23.333 -13.333 45.333 -20 66 -20c18 0 32.833 3 44.5 9s20.167 15.333 25.5 28s8.83301 25.334 10.5 38.001s2.5 28.667 2.5 48v305
c0 55.333 -15.667 97.833 -47 127.5s-74.333 44.167 -129 43.5c-50.667 -0.666992 -92.167 -18 -124.5 -52s-48.5 -76.667 -48.5 -128v-275h-49v494h48v-88c35.333 63.334 94 95.667 176 97c66.667 0 120.5 -19.5 161.5 -58.5s61.5 -92.167 61.5 -159.5z" />
    <glyph glyph-name="Omacron" unicode="&#x14c;" horiz-adv-x="814" 
d="M407 711c112 0 199.003 -35.165 261.003 -105.498c62 -70.334 92.667 -155.834 92 -256.5c0 -46.667 -7.66699 -91.334 -23 -134c-15.3359 -42.667 -37.1689 -81 -65.5 -115c-28.333 -34 -65.333 -61.167 -111 -81.5s-96.834 -30.5 -153.501 -30.5
s-107.834 10.167 -153.501 30.5s-82.834 47.666 -111.501 81.999s-50.5 72.833 -65.5 115.5s-22.5 87.667 -22.5 135c0 64.667 12.667 123.667 38 177s65.333 97.166 120 131.499s119.667 51.5 195 51.5zM407.003 661.002c-96 0 -170.168 -29.834 -222.501 -89.501
s-78.166 -133.5 -77.499 -221.5c0.666992 -85.333 27.334 -158.666 80.001 -219.999s126 -92 220 -92c64 0 119.333 15.333 165.999 46c46.668 30.667 80.835 69 102.5 115c21.667 46 32.5 96.333 32.5 151c0 86.667 -26.333 160.167 -79 220.5s-126.667 90.5 -222 90.5z
M247.002 799.001v46h314v-46h-314z" />
    <glyph glyph-name="omacron" unicode="&#x14d;" horiz-adv-x="598" 
d="M299 -8c-71.333 0 -131 23 -179 69s-72 107.333 -72 184s24 138.667 72 186s107.667 71 179 71s131 -23.667 179 -71s72 -109.333 72 -186s-24 -138 -72 -184s-107.667 -69 -179 -69zM299 40c58 0 106.333 18.667 145 56s58 87 58 149c0 62.667 -19.5 113.5 -58.5 152.5
s-87.167 58.5 -144.5 58.5s-105.5 -19.5 -144.5 -58.5s-58.5 -89.833 -58.5 -152.5c0 -62 19.333 -111.667 58 -149s87 -56 145 -56zM154 644v42h287v-42h-287z" />
    <glyph glyph-name="Obreve" unicode="&#x14e;" horiz-adv-x="814" 
d="M407 711c112 0 199.003 -35.165 261.003 -105.498c62 -70.334 92.667 -155.834 92 -256.5c0 -46.667 -7.66699 -91.334 -23 -134c-15.3359 -42.667 -37.1689 -81 -65.5 -115c-28.333 -34 -65.333 -61.167 -111 -81.5s-96.834 -30.5 -153.501 -30.5
s-107.834 10.167 -153.501 30.5s-82.834 47.666 -111.501 81.999s-50.5 72.833 -65.5 115.5s-22.5 87.667 -22.5 135c0 64.667 12.667 123.667 38 177s65.333 97.166 120 131.499s119.667 51.5 195 51.5zM407.003 661.002c-96 0 -170.168 -29.834 -222.501 -89.501
s-78.166 -133.5 -77.499 -221.5c0.666992 -85.333 27.334 -158.666 80.001 -219.999s126 -92 220 -92c64 0 119.333 15.333 165.999 46c46.668 30.667 80.835 69 102.5 115c21.667 46 32.5 96.333 32.5 151c0 86.667 -26.333 160.167 -79 220.5s-126.667 90.5 -222 90.5z
M488.002 894.001l41.999 0.00195312c0 -34.667 -11.167 -61.834 -33.5 -81.501s-53.166 -29.5 -92.499 -29.5c-40 0 -70.833 9.66699 -92.5 29s-32.5 46.666 -32.5 81.999h40c0 -50 28.333 -75 85 -75c56 0 84 25 84 75z" />
    <glyph glyph-name="obreve" unicode="&#x14f;" horiz-adv-x="598" 
d="M299 -8c-71.333 0 -131 23 -179 69s-72 107.333 -72 184s24 138.667 72 186s107.667 71 179 71s131 -23.667 179 -71s72 -109.333 72 -186s-24 -138 -72 -184s-107.667 -69 -179 -69zM299 40c58 0 106.333 18.667 145 56s58 87 58 149c0 62.667 -19.5 113.5 -58.5 152.5
s-87.167 58.5 -144.5 58.5s-105.5 -19.5 -144.5 -58.5s-58.5 -89.833 -58.5 -152.5c0 -62 19.333 -111.667 58 -149s87 -56 145 -56zM383 700h42c0 -36.667 -11.167 -65.5 -33.5 -86.5s-52.833 -31.5 -91.5 -31.5c-40 0 -70.667 10.333 -92 31s-32 49.667 -32 87h39
c0 -53.333 28.333 -80 85 -80c30.667 0 52.167 7.83301 64.5 23.5s18.5 34.5 18.5 56.5z" />
    <glyph glyph-name="Ohungarumlaut" unicode="&#x150;" horiz-adv-x="814" 
d="M407 711c-75.333 0 -140.335 -17.1689 -195.002 -51.502c-54.667 -34.334 -94.667 -78.167 -120 -131.5s-38 -112.333 -38 -177c0 -47.333 7.5 -92.333 22.5 -135s36.833 -81.167 65.5 -115.5s65.834 -61.666 111.501 -81.999s96.834 -30.5 153.501 -30.5
s107.834 10.167 153.501 30.5s82.667 47.5 111 81.5s50.166 72.333 65.499 115s23 87.334 23 134.001c0.666992 100.667 -30 186.167 -92 256.5s-149 105.5 -261 105.5zM406.998 660.998c95.333 0 169.336 -30.166 222.003 -90.499s79 -133.833 79 -220.5
c0 -54.667 -10.833 -105 -32.5 -151s-55.834 -84.333 -102.501 -115s-102 -46 -166 -46c-94 0 -167.333 30.667 -220 92s-79.334 134.666 -80.001 219.999c-0.666992 88 25.166 161.833 77.499 221.5s126.5 89.5 222.5 89.5zM358.001 785.999h-46v4l69 104h62v-1z
M484.001 785.999h-46v4l69 104h63v-1z" />
    <glyph glyph-name="ohungarumlaut" unicode="&#x151;" horiz-adv-x="598" 
d="M299 -8c71.333 0 131 23 179 69s72 107.333 72 184s-24 138.667 -72 186s-107.667 71 -179 71s-131 -23.667 -179 -71s-72 -109.333 -72 -186s24 -138 72 -184s107.667 -69 179 -69zM299 40c-58 0 -106.333 18.667 -145 56s-58 87 -58 149
c0 62.667 19.5 113.5 58.5 152.5s87.167 58.5 144.5 58.5s105.5 -19.5 144.5 -58.5s58.5 -89.833 58.5 -152.5c0 -62 -19.333 -111.667 -58 -149s-87 -56 -145 -56zM247 595h-45v3l67 91h59v-1zM368 595h-44v3l66 91h59v-1z" />
    <glyph glyph-name="OE" unicode="&#x152;" horiz-adv-x="950" 
d="M522 652l0.00292969 -275h340v-49h-340v-280h377v-48h-423c-24.667 -3.33301 -47.667 -5 -69 -5c-56.667 0 -107.834 9.83301 -153.501 29.5s-82.834 46.167 -111.501 79.5s-50.5 71 -65.5 113s-22.5 86.667 -22.5 134c0 64.667 12.667 123.167 38 175.5
s65.166 95.333 119.499 129s119.5 50.5 195.5 50.5c25.333 0 49 -2 71 -6h406v-48h-362zM407.003 664c-64.667 0 -120.168 -14.832 -166.501 -44.499s-80.333 -67.834 -102 -114.501s-32.167 -98.334 -31.5 -155c0.666992 -85.333 27.334 -158.333 80.001 -219
s126 -91 220 -91c24 0 47 2 69 6v612c-22 4 -45 6 -69 6z" />
    <glyph glyph-name="oe" unicode="&#x153;" horiz-adv-x="1025" 
d="M742 -7c-50.667 0 -95.667 13.333 -135 40c-39.335 26.667 -67.668 62 -84.999 106c-18 -46.667 -46.5 -82.667 -85.5 -108s-84.5 -38 -136.5 -38c-71.333 0 -131 23 -179 69s-72 107.333 -72 184s24 138.667 72 186s107.667 71 179 71c52 0 97.5 -13.333 136.5 -40
s67.5 -63.667 85.5 -111c18 44.667 46.667 80.834 86 108.501s84 41.5 134 41.5c75.333 0 136.333 -23.5 183 -70.5s65.667 -116.167 57 -207.5c-193.333 0 -339.333 -0.333008 -438 -1c4.66699 -56 25.667 -100.333 63 -133s82.333 -49 135 -49c34 0 67 6.66699 99 20
s57 31.666 75 54.999l35 -28c-23.333 -30.667 -53.833 -54.167 -91.5 -70.5s-76.834 -24.5 -117.501 -24.5zM300 41c57.333 0 105.166 18.5 143.499 55.5s57.5 86.833 57.5 149.5s-19.167 113.5 -57.5 152.5s-86.166 58.5 -143.499 58.5s-105.5 -19.5 -144.5 -58.5
s-58.5 -89.833 -58.5 -152.5c0 -62 19.333 -111.667 58 -149s87 -56 145 -56zM544 267h394c-0.666992 60 -18.5 106.667 -53.5 140s-82.5 50 -142.5 50c-52.667 0 -97.5 -17 -134.5 -51s-58.167 -80.333 -63.5 -139z" />
    <glyph glyph-name="Racute" unicode="&#x154;" horiz-adv-x="700" 
d="M410 268c72.667 0 128.834 20.5 168.501 61.5s59.167 91.833 58.5 152.5c-0.666992 59.333 -21.167 110.5 -61.5 153.5c-40.334 43 -96.501 64.5 -168.501 64.5h-308v-700h54v265h191l242 -265h71zM153 316v334h254c54.667 0 97 -16.667 127 -50s44.667 -72.333 44 -117
c-0.666992 -51.333 -15.667 -92 -45 -122s-73.333 -45 -132 -45h-248zM350 783h-46v4l72 115h62v-1z" />
    <glyph glyph-name="racute" unicode="&#x155;" horiz-adv-x="403" 
d="M127 494l-46.001 -0.00195312v-494h49v288c0 45.333 15.667 84 47 116s70 48.333 116 49c31.333 0 59.333 -7.66699 84 -23l22 40c-33.333 20.667 -68.666 30.334 -105.999 29.001c-34.667 0 -67 -7.66699 -97 -23s-52.333 -38.666 -67 -69.999zM240.999 590.998h-42v3
l66 107h58v-1z" />
    <glyph glyph-name="Rcommaaccent" unicode="&#x156;" horiz-adv-x="700" 
d="M319 -115c0 12 4.16699 21.5 12.5 28.5s17.333 10.5 27 10.5s18.667 -3.5 27 -10.5s12.5 -16.5 12.5 -28.5c0 -5.33301 -1 -11 -3 -17l-36 -90h-43l27 71c-16 6 -24 18 -24 36zM410 268l247.001 -268h-71l-242 265h-191v-265h-54v700h308c72 0 128.167 -21.5 168.5 -64.5
s60.833 -94.167 61.5 -153.5c0.666992 -60.667 -18.833 -111.5 -58.5 -152.5s-95.834 -61.5 -168.501 -61.5zM153.001 650v-334h248c58.667 0 102.667 15 132 45s44.333 70.667 45 122c0.666992 44.667 -14 83.667 -44 117s-72.333 50 -127 50h-254z" />
    <glyph glyph-name="rcommaaccent" unicode="&#x157;" horiz-adv-x="403" 
d="M70 -113c0 15.333 6.16797 26.166 18.501 32.499s24.666 6.33301 36.999 0s18.5 -17.166 18.5 -32.499c0 -2.66699 -0.666992 -8 -2 -16l-34 -85h-41l25 67c-14.667 6 -22 17.333 -22 34zM81.001 494l46 0.000976562l2 -88c14.667 31.333 37 54.666 67 69.999
s62.333 23 97 23c37.334 1.33301 72.667 -8.33398 106 -29l-22 -40c-24.667 15.333 -52.667 23 -84 23c-46 -0.666992 -84.667 -17 -116 -49s-47 -70.667 -47 -116v-288h-49v494z" />
    <glyph glyph-name="Rcaron" unicode="&#x158;" horiz-adv-x="700" 
d="M410 268c72.667 0 128.834 20.5 168.501 61.5s59.167 91.833 58.5 152.5c-0.666992 59.333 -21.167 110.5 -61.5 153.5c-40.334 43 -96.501 64.5 -168.501 64.5h-308v-700h54v265h191l242 -265h71zM153 316v334h254c54.667 0 97 -16.667 127 -50s44.667 -72.333 44 -117
c-0.666992 -51.333 -15.667 -92 -45 -122s-73.333 -45 -132 -45h-248zM491 900l-135 -125h-38l-135 125v7h51l103 -91l104 91h50v-7z" />
    <glyph glyph-name="rcaron" unicode="&#x159;" horiz-adv-x="403" 
d="M127 494l-46.001 -0.00195312v-494h49v288c0 45.333 15.667 84 47 116s70 48.333 116 49c31.333 0 59.333 -7.66699 84 -23l22 40c-33.333 20.667 -68.666 30.334 -105.999 29.001c-34.667 0 -67 -7.66699 -97 -23s-52.333 -38.666 -67 -69.999zM383.999 696.998
l-126 -123h-36l-126 123v7h47l97 -90l97 90h47v-7z" />
    <glyph glyph-name="Sacute" unicode="&#x15a;" horiz-adv-x="657" 
d="M543 565l43.999 26.002c-32 47.333 -68.167 79 -108.5 95s-89.5 24 -147.5 24c-31.333 0 -61.666 -3.33301 -90.999 -10s-57.833 -17 -85.5 -31s-49.667 -34.167 -66 -60.5c-16.333 -26.334 -24.166 -57.167 -23.499 -92.499c0 -20.668 3.16699 -39.335 9.5 -56.001
c6.33301 -16.667 16.5 -31 30.5 -43s27.5 -22 40.5 -30s31.5 -15.5 55.5 -22.5s43.5 -12.167 58.5 -15.5s36.5 -7.66602 64.5 -12.999c25.334 -4.66699 44.667 -8.5 58 -11.5c13.334 -3 30.667 -7.5 52 -13.5s37.833 -12.333 49.5 -19s23.667 -15 36 -25
s21.166 -21.833 26.499 -35.5s8 -28.834 8 -45.501c0 -29.333 -7.33301 -54.333 -22 -75s-34 -36 -58 -46s-47.667 -17 -71 -21s-47.333 -6 -72 -6c-46.667 0 -93.167 11.167 -139.5 33.5s-79.5 53.5 -99.5 93.5l-48 -24c25.333 -50 64.666 -87.833 117.999 -113.5
s109.666 -38.5 168.999 -38.5c32.667 0 63.834 3 93.501 9s58.834 15.833 87.501 29.5c28.6689 13.667 51.8359 34 69.5 61c17.667 27 26.5 59.167 26.5 96.5c0 28.667 -5 53.667 -15 75c-10 21.334 -23.5 38.667 -40.5 52c-17 13.335 -37.167 24.668 -60.5 34
c-23.333 9.33301 -47.5 16.833 -72.5 22.5s-51.167 11.167 -78.5 16.5c-3.33301 0.666992 -6 1 -8 1c-28.667 5.33301 -51.5 9.83301 -68.5 13.5s-36 9.16699 -57 16.5c-21 7.33496 -37 15.168 -48 23.5c-11 8.33496 -20.5 19.168 -28.5 32.5
c-8 13.334 -12 28.667 -12 45.999c0 34.6689 12.5 63.3359 37.5 86c25 22.667 52.333 37.667 82 45s60.5 11 92.5 11c48 -0.666992 89.5 -7.33398 124.5 -20.001s64.167 -37.667 87.5 -75zM346.999 783.002h-47v4l74 119h65v-1z" />
    <glyph glyph-name="sacute" unicode="&#x15b;" horiz-adv-x="501" 
d="M407 404l29.999 31.9971c-46.667 44 -108 66 -184 66c-54.667 0.666992 -101.167 -10.833 -139.5 -34.5s-57.166 -58.167 -56.499 -103.5c0 -19.333 4 -36.166 12 -50.499s17.167 -25.833 27.5 -34.5c10.333 -8.66797 25.166 -16.335 44.499 -23.001
c19.333 -6.66699 36 -11.5 50 -14.5s33.333 -6.5 58 -10.5c21.334 -3.33398 37.667 -6.16699 49 -8.49902c11.333 -2.33301 25.5 -6 42.5 -11s29.667 -10.667 38 -17c8.33301 -6.33398 15.833 -14.667 22.5 -25s9.66699 -22.5 9 -36.5
c-0.666992 -24 -10.167 -43.5 -28.5 -58.5s-37.833 -24.667 -58.5 -29s-43 -6.5 -67 -6.5c-35.333 0 -69.5 7 -102.5 21s-59.167 35 -78.5 63l-36 -32c20.667 -32 50.5 -56.5 89.5 -73.5s81.167 -25.5 126.5 -25.5c32.667 0 63.167 3.66699 91.5 11s53.833 21.833 76.5 43.5
s34.334 49.5 35.001 83.5c0.666992 21.333 -3 40 -11 56s-17.5 28.5 -28.5 37.5s-26.833 17.167 -47.5 24.5s-37.5 12.333 -50.5 15s-31.167 6 -54.5 10c-5.33301 0.666992 -9.33301 1.33398 -12 2.00098c-16.667 2.66699 -27.834 4.66699 -33.501 6
s-16.167 3.83301 -31.5 7.5s-26.5 7.33398 -33.5 11.001s-15.167 8.66699 -24.5 15c-9.33301 6.33496 -16.166 13.668 -20.499 22c-4.33301 8.33301 -6.5 17.833 -6.5 28.5c-0.666992 30 13.5 52.833 42.5 68.5s64.5 23.167 106.5 22.5c63.334 0 114.667 -17.333 154 -52z
M260.999 586.997h-44v4l69 110h60z" />
    <glyph glyph-name="Scircumflex" unicode="&#x15c;" horiz-adv-x="657" 
d="M543 565l43.999 26.002c-32 47.333 -68.167 79 -108.5 95s-89.5 24 -147.5 24c-31.333 0 -61.666 -3.33301 -90.999 -10s-57.833 -17 -85.5 -31s-49.667 -34.167 -66 -60.5c-16.333 -26.334 -24.166 -57.167 -23.499 -92.499c0 -20.668 3.16699 -39.335 9.5 -56.001
c6.33301 -16.667 16.5 -31 30.5 -43s27.5 -22 40.5 -30s31.5 -15.5 55.5 -22.5s43.5 -12.167 58.5 -15.5s36.5 -7.66602 64.5 -12.999c25.334 -4.66699 44.667 -8.5 58 -11.5c13.334 -3 30.667 -7.5 52 -13.5s37.833 -12.333 49.5 -19s23.667 -15 36 -25
s21.166 -21.833 26.499 -35.5s8 -28.834 8 -45.501c0 -29.333 -7.33301 -54.333 -22 -75s-34 -36 -58 -46s-47.667 -17 -71 -21s-47.333 -6 -72 -6c-46.667 0 -93.167 11.167 -139.5 33.5s-79.5 53.5 -99.5 93.5l-48 -24c25.333 -50 64.666 -87.833 117.999 -113.5
s109.666 -38.5 168.999 -38.5c32.667 0 63.834 3 93.501 9s58.834 15.833 87.501 29.5c28.6689 13.667 51.8359 34 69.5 61c17.667 27 26.5 59.167 26.5 96.5c0 28.667 -5 53.667 -15 75c-10 21.334 -23.5 38.667 -40.5 52c-17 13.335 -37.167 24.668 -60.5 34
c-23.333 9.33301 -47.5 16.833 -72.5 22.5s-51.167 11.167 -78.5 16.5c-3.33301 0.666992 -6 1 -8 1c-28.667 5.33301 -51.5 9.83301 -68.5 13.5s-36 9.16699 -57 16.5c-21 7.33496 -37 15.168 -48 23.5c-11 8.33496 -20.5 19.168 -28.5 32.5
c-8 13.334 -12 28.667 -12 45.999c0 34.6689 12.5 63.3359 37.5 86c25 22.667 52.333 37.667 82 45s60.5 11 92.5 11c48 -0.666992 89.5 -7.33398 124.5 -20.001s64.167 -37.667 87.5 -75zM179.999 790.002l142 132h40l142 -132v-7h-53l-109 96l-109 -96h-53v7z" />
    <glyph glyph-name="scircumflex" unicode="&#x15d;" horiz-adv-x="501" 
d="M407 404l29.999 31.9971c-46.667 44 -108 66 -184 66c-54.667 0.666992 -101.167 -10.833 -139.5 -34.5s-57.166 -58.167 -56.499 -103.5c0 -19.333 4 -36.166 12 -50.499s17.167 -25.833 27.5 -34.5c10.333 -8.66797 25.166 -16.335 44.499 -23.001
c19.333 -6.66699 36 -11.5 50 -14.5s33.333 -6.5 58 -10.5c21.334 -3.33398 37.667 -6.16699 49 -8.49902c11.333 -2.33301 25.5 -6 42.5 -11s29.667 -10.667 38 -17c8.33301 -6.33398 15.833 -14.667 22.5 -25s9.66699 -22.5 9 -36.5
c-0.666992 -24 -10.167 -43.5 -28.5 -58.5s-37.833 -24.667 -58.5 -29s-43 -6.5 -67 -6.5c-35.333 0 -69.5 7 -102.5 21s-59.167 35 -78.5 63l-36 -32c20.667 -32 50.5 -56.5 89.5 -73.5s81.167 -25.5 126.5 -25.5c32.667 0 63.167 3.66699 91.5 11s53.833 21.833 76.5 43.5
s34.334 49.5 35.001 83.5c0.666992 21.333 -3 40 -11 56s-17.5 28.5 -28.5 37.5s-26.833 17.167 -47.5 24.5s-37.5 12.333 -50.5 15s-31.167 6 -54.5 10c-5.33301 0.666992 -9.33301 1.33398 -12 2.00098c-16.667 2.66699 -27.834 4.66699 -33.501 6
s-16.167 3.83301 -31.5 7.5s-26.5 7.33398 -33.5 11.001s-15.167 8.66699 -24.5 15c-9.33301 6.33496 -16.166 13.668 -20.499 22c-4.33301 8.33301 -6.5 17.833 -6.5 28.5c-0.666992 30 13.5 52.833 42.5 68.5s64.5 23.167 106.5 22.5c63.334 0 114.667 -17.333 154 -52z
M106.999 577.997l132 123h38l131 -123v-6h-49l-101 89l-101 -89h-50v6z" />
    <glyph glyph-name="Scedilla" unicode="&#x15e;" horiz-adv-x="657" 
d="M309 -96l-6.00098 4.99609l18 80c-58.667 1.33301 -113.334 14.833 -164.001 40.5s-88.334 62.834 -113.001 111.501l48 24c20 -40 53.167 -71.167 99.5 -93.5s92.833 -33.5 139.5 -33.5c24.667 0 48.667 2 72 6s47 11 71 21c24.001 10 43.334 25.333 58 46
c14.667 20.667 22 45.667 22 75c0 16.667 -2.66699 31.834 -8 45.5c-5.33496 13.667 -14.168 25.5 -26.499 35.5c-12.333 10 -24.333 18.333 -36 25s-28.167 13 -49.5 19s-38.666 10.5 -51.999 13.5s-32.666 6.83301 -57.999 11.5c-28 5.33594 -49.5 9.66895 -64.5 13
c-15 3.33301 -34.5 8.5 -58.5 15.5s-42.5 14.5 -55.5 22.5s-26.5 18 -40.5 30s-24.167 26.333 -30.5 43s-9.5 35.334 -9.5 56.001c-0.666992 35.333 7.16602 66.166 23.499 92.499s38.333 46.5 66 60.5s56.167 24.333 85.5 31c29.334 6.66699 59.667 10 91 10
c58 0 107.167 -8 147.5 -24s76.5 -47.667 108.5 -95l-44 -26c-23.334 37.333 -52.501 62.333 -87.5 75c-35 12.668 -76.5 19.335 -124.5 20c-32 0 -62.833 -3.66699 -92.5 -11s-57 -22.333 -82 -45s-37.5 -51.334 -37.5 -86.001c0 -17.333 4 -32.666 12 -45.999
s17.5 -24.166 28.5 -32.499s27 -16.166 48 -23.499s40 -12.833 57 -16.5s39.833 -8.16699 68.5 -13.5c87.333 -16.667 147 -33 179 -49c64 -31.333 96 -82 96 -152c0 -34.667 -7.5 -64.834 -22.5 -90.501s-35 -45.5 -60 -59.5s-51.167 -24.667 -78.5 -32
s-56.333 -11.666 -87 -12.999l-11 -51c38 2 64.833 -7.5 80.5 -28.5s20.167 -45.167 13.5 -72.5c-6 -23.333 -18.667 -40.833 -38 -52.5s-41 -17.5 -65 -17.5c-49.333 0 -83.666 17.667 -102.999 53l28 27c18 -26 43 -39 75 -39c35.333 0 56.333 12.667 63 38
c6 20 0.5 36.333 -16.5 49s-42.833 15.334 -77.5 8.00098z" />
    <glyph glyph-name="scedilla" unicode="&#x15f;" horiz-adv-x="501" 
d="M233 -83l-6.00195 5.00098l20 70c-44 1.33301 -84.667 10.5 -122 27.5s-66 40.833 -86 71.5l36 32c38.667 -56 99 -84 181 -84c24 0 46.333 2.16699 67 6.5s40.167 14 58.5 29s27.833 34.5 28.5 58.5c0.666992 14 -2.33301 26.167 -9 36.5s-14.167 18.666 -22.5 24.999
s-21 12 -38 17s-31.167 8.66699 -42.5 11s-27.666 5.16602 -48.999 8.49902c-24.667 4 -44 7.5 -58 10.5s-30.667 7.83301 -50 14.5s-34.166 14.334 -44.499 23.001s-19.5 20.167 -27.5 34.5c-8 14.334 -12 31.167 -12 50.5c-0.666992 45.333 18.166 79.833 56.499 103.5
s84.833 35.167 139.5 34.5c76 0 137.333 -22 184 -66l-30 -32c-39.333 34.667 -90.666 52 -153.999 52c-42 0.666992 -77.5 -6.83301 -106.5 -22.5s-43.167 -38.5 -42.5 -68.5c0 -10.667 2.16699 -20.167 6.5 -28.5c4.33398 -8.33301 11.167 -15.666 20.5 -21.999
s17.5 -11.333 24.5 -15c7 -3.66895 18.167 -7.33594 33.5 -11c15.333 -3.66699 25.833 -6.16699 31.5 -7.5s16.834 -3.33301 33.5 -6c68 -11.333 114 -23.333 138 -36c46 -22.667 68 -59 66 -109c-1.33301 -44.667 -18.833 -77.834 -52.5 -99.501
s-74.834 -34.167 -123.501 -37.5l-11 -45c36.667 2 62.5 -6.33301 77.5 -25s19.5 -40 13.5 -64c-6 -20 -18.333 -35.333 -37 -46s-39.334 -16 -62 -16c-47.333 0 -80.333 15.667 -99 47l27 24c16.667 -22.667 40.667 -34 72 -34c34 0 54 11 60 33
c6 18 0.833008 32.5 -15.5 43.5s-41.166 13.167 -74.499 6.5z" />
    <glyph glyph-name="Scaron" unicode="&#x160;" horiz-adv-x="657" 
d="M543 565l43.999 26.002c-32 47.333 -68.167 79 -108.5 95s-89.5 24 -147.5 24c-31.333 0 -61.666 -3.33301 -90.999 -10s-57.833 -17 -85.5 -31s-49.667 -34.167 -66 -60.5c-16.333 -26.334 -24.166 -57.167 -23.499 -92.499c0 -20.668 3.16699 -39.335 9.5 -56.001
c6.33301 -16.667 16.5 -31 30.5 -43s27.5 -22 40.5 -30s31.5 -15.5 55.5 -22.5s43.5 -12.167 58.5 -15.5s36.5 -7.66602 64.5 -12.999c25.334 -4.66699 44.667 -8.5 58 -11.5c13.334 -3 30.667 -7.5 52 -13.5s37.833 -12.333 49.5 -19s23.667 -15 36 -25
s21.166 -21.833 26.499 -35.5s8 -28.834 8 -45.501c0 -29.333 -7.33301 -54.333 -22 -75s-34 -36 -58 -46s-47.667 -17 -71 -21s-47.333 -6 -72 -6c-46.667 0 -93.167 11.167 -139.5 33.5s-79.5 53.5 -99.5 93.5l-48 -24c25.333 -50 64.666 -87.833 117.999 -113.5
s109.666 -38.5 168.999 -38.5c32.667 0 63.834 3 93.501 9s58.834 15.833 87.501 29.5c28.6689 13.667 51.8359 34 69.5 61c17.667 27 26.5 59.167 26.5 96.5c0 28.667 -5 53.667 -15 75c-10 21.334 -23.5 38.667 -40.5 52c-17 13.335 -37.167 24.668 -60.5 34
c-23.333 9.33301 -47.5 16.833 -72.5 22.5s-51.167 11.167 -78.5 16.5c-3.33301 0.666992 -6 1 -8 1c-28.667 5.33301 -51.5 9.83301 -68.5 13.5s-36 9.16699 -57 16.5c-21 7.33496 -37 15.168 -48 23.5c-11 8.33496 -20.5 19.168 -28.5 32.5
c-8 13.334 -12 28.667 -12 45.999c0 34.6689 12.5 63.3359 37.5 86c25 22.667 52.333 37.667 82 45s60.5 11 92.5 11c48 -0.666992 89.5 -7.33398 124.5 -20.001s64.167 -37.667 87.5 -75zM502.999 910.002l-142 -132h-40l-142 132v7h53l109 -96l109 96h53v-7z" />
    <glyph glyph-name="scaron" unicode="&#x161;" horiz-adv-x="501" 
d="M407 404l29.999 31.9971c-46.667 44 -108 66 -184 66c-54.667 0.666992 -101.167 -10.833 -139.5 -34.5s-57.166 -58.167 -56.499 -103.5c0 -19.333 4 -36.166 12 -50.499s17.167 -25.833 27.5 -34.5c10.333 -8.66797 25.166 -16.335 44.499 -23.001
c19.333 -6.66699 36 -11.5 50 -14.5s33.333 -6.5 58 -10.5c21.334 -3.33398 37.667 -6.16699 49 -8.49902c11.333 -2.33301 25.5 -6 42.5 -11s29.667 -10.667 38 -17c8.33301 -6.33398 15.833 -14.667 22.5 -25s9.66699 -22.5 9 -36.5
c-0.666992 -24 -10.167 -43.5 -28.5 -58.5s-37.833 -24.667 -58.5 -29s-43 -6.5 -67 -6.5c-35.333 0 -69.5 7 -102.5 21s-59.167 35 -78.5 63l-36 -32c20.667 -32 50.5 -56.5 89.5 -73.5s81.167 -25.5 126.5 -25.5c32.667 0 63.167 3.66699 91.5 11s53.833 21.833 76.5 43.5
s34.334 49.5 35.001 83.5c0.666992 21.333 -3 40 -11 56s-17.5 28.5 -28.5 37.5s-26.833 17.167 -47.5 24.5s-37.5 12.333 -50.5 15s-31.167 6 -54.5 10c-5.33301 0.666992 -9.33301 1.33398 -12 2.00098c-16.667 2.66699 -27.834 4.66699 -33.501 6
s-16.167 3.83301 -31.5 7.5s-26.5 7.33398 -33.5 11.001s-15.167 8.66699 -24.5 15c-9.33301 6.33496 -16.166 13.668 -20.499 22c-4.33301 8.33301 -6.5 17.833 -6.5 28.5c-0.666992 30 13.5 52.833 42.5 68.5s64.5 23.167 106.5 22.5c63.334 0 114.667 -17.333 154 -52z
M400.999 696.997l-129 -120h-36l-128 120v6h47l99 -87l99 87h48v-6z" />
    <glyph glyph-name="Tcommaaccent" unicode="&#x162;" horiz-adv-x="590" 
d="M258 -74l-6.00098 4.99902l16 70v650h-253v48h560v-48h-253v-651h-16l-8 -39c38 2 64.833 -7.5 80.5 -28.5s20.167 -45.167 13.5 -72.5c-6 -23.333 -18.667 -40.833 -38 -52.5s-41 -17.5 -65 -17.5c-49.333 0 -83.666 17.667 -102.999 53l28 27c18 -26 43 -39 75 -39
c35.333 0 56.333 12.667 63 38c6 20 0.5 36.333 -16.5 49s-42.833 15.334 -77.5 8.00098z" />
    <glyph glyph-name="tcommaaccent" unicode="&#x163;" horiz-adv-x="376" 
d="M206 -87l-6.00098 5.00098l19 83c-54 17.333 -81 67.666 -81 150.999v301h-105v41h105v144l48 5v-149h168v-41h-168v-301c0 -38 6.16699 -66.5 18.5 -85.5s36.5 -28.5 72.5 -28.5c22.667 0 48 6.66699 76 20l17 -40c-34.667 -16.667 -65.667 -25 -93 -25
c-10.667 0 -18 0.333008 -22 1l-11 -47c38.667 3.33301 66.667 -4 84 -22s22.333 -40.667 15 -68c-6 -21.333 -19 -37.333 -39 -48s-42.333 -16 -67 -16c-49.333 0 -84 16.333 -104 49l28 24c18.667 -23.333 44 -35 76 -35c36.667 0 58.334 11.667 65.001 35
c6 18 0.5 32.167 -16.5 42.5s-43.5 11.833 -79.5 4.5z" />
    <glyph glyph-name="Tcaron" unicode="&#x164;" horiz-adv-x="590" 
d="M268 651v-651h54v651h253v48h-560v-48h253zM460 900l-142 -132h-40l-142 132v7h53l109 -96l109 96h53v-7z" />
    <glyph glyph-name="tcaron" unicode="&#x165;" horiz-adv-x="373" 
d="M126 638l48 5.00098v-149h116v-41h-116v-301c0 -38 6.16699 -66.5 18.5 -85.5s36.5 -28.5 72.5 -28.5c22.667 0 48 6.66699 76 20l17 -40c-34.667 -16.667 -65.667 -25 -93 -25c-50 0 -85.667 13.667 -107 41s-32 66.666 -32 117.999v301h-93v41h93v144zM377 493.001h-39
l40 151h51z" />
    <glyph glyph-name="Tbar" unicode="&#x166;" horiz-adv-x="600" 
d="M143 308v42h130v301h-253v48h560v-48h-253v-301h130v-42h-130v-308h-54v308h-130z" />
    <glyph glyph-name="tbar" unicode="&#x167;" horiz-adv-x="376" 
d="M57 269v37.001h81v147h-105v41h105v144l48 5v-149h168v-41h-168v-147h125v-37h-125v-117c0 -38 6.16699 -66.5 18.5 -85.5s36.5 -28.5 72.5 -28.5c22.667 0 48 6.66699 76 20l17 -40c-34.667 -16.667 -65.667 -25 -93 -25c-50 0 -85.667 13.667 -107 41
s-32 66.666 -32 117.999v117h-81z" />
    <glyph glyph-name="Utilde" unicode="&#x168;" horiz-adv-x="718" 
d="M574 700h52.998v-435c0 -44 -7.66699 -83.833 -23 -119.5s-35.5 -64.5 -60.5 -86.5s-53.667 -39 -86 -51s-65.166 -18 -98.499 -18s-66.166 5.83301 -98.499 17.5s-61 28.5 -86 50.5s-45.167 51 -60.5 87s-23 76 -23 120v435h53v-435c0 -36 6.16699 -68.667 18.5 -98
s28.5 -53 48.5 -71s43 -32 69 -42s52.333 -15 79 -15s53 5 79 15s49 24 69 42s36.167 41.667 48.5 71s18.5 62 18.5 98v435zM277.998 783l-34 10c3.33301 28 16.833 47.5 40.5 58.5s47.5 10.167 71.5 -2.5l41 -21c12 -6.66699 24.167 -8 36.5 -4s20.5 13.667 24.5 29l34 -10
c-2.66699 -28.667 -16 -48.5 -40 -59.5s-48 -9.83301 -72 3.5l-41 21c-12 6 -24.167 7 -36.5 3s-20.5 -13.333 -24.5 -28z" />
    <glyph glyph-name="utilde" unicode="&#x169;" horiz-adv-x="602" 
d="M521 0l-48 -0.000976562v89c-35.333 -63.333 -94 -95.666 -176 -96.999c-66.667 0 -120.5 19.5 -161.5 58.5s-61.5 92.167 -61.5 159.5v285h49v-284c0 -55.333 15.667 -97.833 47 -127.5s74.333 -44.167 129 -43.5c50.667 0.666992 92.167 18 124.5 52
s48.5 76.667 48.5 128v275h49v-495zM217 630.999l-34 10c3.33301 26.667 16.833 45.167 40.5 55.5s47.5 9.5 71.5 -2.5l41 -20c12 -6 24.167 -7.16699 36.5 -3.5c12.333 3.67188 20.5 12.8389 24.5 27.5l34 -10c-2.66699 -27.333 -16 -46 -40 -56s-48 -9 -72 3l-41 20
c-12 6 -24.167 7 -36.5 3s-20.5 -13 -24.5 -27z" />
    <glyph glyph-name="Umacron" unicode="&#x16a;" horiz-adv-x="718" 
d="M574 700h52.998v-435c0 -44 -7.66699 -83.833 -23 -119.5s-35.5 -64.5 -60.5 -86.5s-53.667 -39 -86 -51s-65.166 -18 -98.499 -18s-66.166 5.83301 -98.499 17.5s-61 28.5 -86 50.5s-45.167 51 -60.5 87s-23 76 -23 120v435h53v-435c0 -36 6.16699 -68.667 18.5 -98
s28.5 -53 48.5 -71s43 -32 69 -42s52.333 -15 79 -15s53 5 79 15s49 24 69 42s36.167 41.667 48.5 71s18.5 62 18.5 98v435zM216.998 781v44h297v-44h-297z" />
    <glyph glyph-name="umacron" unicode="&#x16b;" horiz-adv-x="602" 
d="M521 0l-48 -0.000976562v89c-35.333 -63.333 -94 -95.666 -176 -96.999c-66.667 0 -120.5 19.5 -161.5 58.5s-61.5 92.167 -61.5 159.5v285h49v-284c0 -55.333 15.667 -97.833 47 -127.5s74.333 -44.167 129 -43.5c50.667 0.666992 92.167 18 124.5 52
s48.5 76.667 48.5 128v275h49v-495zM161 656.999v41h282v-41h-282z" />
    <glyph glyph-name="Ubreve" unicode="&#x16c;" horiz-adv-x="718" 
d="M574 700h52.998v-435c0 -44 -7.66699 -83.833 -23 -119.5s-35.5 -64.5 -60.5 -86.5s-53.667 -39 -86 -51s-65.166 -18 -98.499 -18s-66.166 5.83301 -98.499 17.5s-61 28.5 -86 50.5s-45.167 51 -60.5 87s-23 76 -23 120v435h53v-435c0 -36 6.16699 -68.667 18.5 -98
s28.5 -53 48.5 -71s43 -32 69 -42s52.333 -15 79 -15s53 5 79 15s49 24 69 42s36.167 41.667 48.5 71s18.5 62 18.5 98v435zM451.998 893l41.999 0.000976562c0 -38.667 -11.167 -68.834 -33.5 -90.501s-53.166 -32.5 -92.499 -32.5c-40 0 -71 10.833 -93 32.5
c-22 21.6699 -33 51.8369 -33 90.5h40c0 -55.333 28.667 -83 86 -83c31.334 0 53.167 8.16699 65.5 24.5s18.5 35.833 18.5 58.5z" />
    <glyph glyph-name="ubreve" unicode="&#x16d;" horiz-adv-x="602" 
d="M521 0l-48 -0.000976562v89c-35.333 -63.333 -94 -95.666 -176 -96.999c-66.667 0 -120.5 19.5 -161.5 58.5s-61.5 92.167 -61.5 159.5v285h49v-284c0 -55.333 15.667 -97.833 47 -127.5s74.333 -44.167 129 -43.5c50.667 0.666992 92.167 18 124.5 52
s48.5 76.667 48.5 128v275h49v-495zM387 699.999h40.999c0 -36.667 -11 -65.5 -33 -86.5s-52 -31.5 -90 -31.5c-39.333 0 -69.666 10.333 -90.999 31s-32 49.667 -32 87h39c0 -53.333 28 -80 84 -80c54.667 0 82 26.667 82 80z" />
    <glyph glyph-name="Uring" unicode="&#x16e;" horiz-adv-x="718" 
d="M574 700h52.998v-435c0 -44 -7.66699 -83.833 -23 -119.5s-35.5 -64.5 -60.5 -86.5s-53.667 -39 -86 -51s-65.166 -18 -98.499 -18s-66.166 5.83301 -98.499 17.5s-61 28.5 -86 50.5s-45.167 51 -60.5 87s-23 76 -23 120v435h53v-435c0 -36 6.16699 -68.667 18.5 -98
s28.5 -53 48.5 -71s43 -32 69 -42s52.333 -15 79 -15s53 5 79 15s49 24 69 42s36.167 41.667 48.5 71s18.5 62 18.5 98v435zM259.998 829c0 27.333 9.66797 48.5 29.001 63.5s42.666 22.5 69.999 22.5s50.833 -7.5 70.5 -22.5s29.5 -36.167 29.5 -63.5s-9.5 -49 -28.5 -65
s-43.167 -24 -72.5 -24c-30 0 -53.833 8 -71.5 24s-26.5 37.667 -26.5 65zM357.999 881c-23.333 0 -39.833 -8.66602 -49.5 -25.999c-9.66699 -17.3369 -9.66699 -34.6699 0 -52c9.66699 -17.333 26.167 -26 49.5 -26c24.667 0 42 8.66699 52 26s10 34.666 0 51.999
s-27.333 26 -52 26z" />
    <glyph glyph-name="uring" unicode="&#x16f;" horiz-adv-x="602" 
d="M521 0l-48 -0.000976562v89c-35.333 -63.333 -94 -95.666 -176 -96.999c-66.667 0 -120.5 19.5 -161.5 58.5s-61.5 92.167 -61.5 159.5v285h49v-284c0 -55.333 15.667 -97.833 47 -127.5s74.333 -44.167 129 -43.5c50.667 0.666992 92.167 18 124.5 52
s48.5 76.667 48.5 128v275h49v-495zM207 632.999c0 26.667 9.5 47.5 28.5 62.5s41.5 22.5 67.5 22.5s48.667 -7.5 68 -22.5s29 -35.833 29 -62.5s-9.16699 -47.667 -27.5 -63s-41.833 -23 -70.5 -23s-51.667 7.66699 -69 23s-26 36.333 -26 63zM302 683.999
c-22.667 0 -38.667 -8.33301 -48 -25s-9.33301 -33.5 0 -50.5s25.333 -25.5 48 -25.5c24 0 40.833 8.5 50.5 25.5s9.66699 33.833 0 50.5s-26.5 25 -50.5 25z" />
    <glyph glyph-name="Uhungarumlaut" unicode="&#x170;" horiz-adv-x="718" 
d="M627 700l-53 0.000976562v-435c0 -36 -6.16699 -68.667 -18.5 -98s-28.5 -53 -48.5 -71s-43 -32 -69 -42s-52.333 -15 -79 -15s-53 5 -79 15s-49 24 -69 42s-36.167 41.667 -48.5 71s-18.5 62 -18.5 98v435h-53v-435c0 -58.667 13.167 -109.334 39.5 -152.001
s59.5 -73.667 99.5 -93s83 -29 129 -29s89 9.66699 129 29s73.167 50.5 99.5 93.5s39.5 93.5 39.5 151.5v435zM306 774.001h-46v4l70 106h62v-1zM434 774.001h-46v4l69 106h63v-1z" />
    <glyph glyph-name="uhungarumlaut" unicode="&#x171;" horiz-adv-x="602" 
d="M473 0l48 0.000976562v495h-49v-275c0 -51.333 -16.167 -94 -48.5 -128s-73.833 -51.333 -124.5 -52c-54.667 -0.666992 -97.667 13.833 -129 43.5s-47 72.167 -47 127.5v284h-49v-285c0 -67.333 20.5 -120.5 61.5 -159.5s94.833 -58.5 161.5 -58.5
c82 1.33301 140.667 33.666 176 96.999v-89zM239 597.001h-44v4l66 100h60v-1zM361 597.001h-45v4l67 100h60v-1z" />
    <glyph glyph-name="Uogonek" unicode="&#x172;" horiz-adv-x="719" 
d="M574 700l52.999 -0.00292969v-435c0 -66.667 -16.333 -122.167 -49 -166.5s-75 -75.5 -127 -93.5c-22 -9.33301 -35.333 -24 -40 -44s0.333008 -37.667 15 -53s35 -22.666 61 -21.999c16.667 0.666992 33.834 5.83398 51.501 15.501
c17.6709 9.66699 31.8379 22.834 42.5 39.501l34 -20c-10.667 -23.333 -27.5 -41.5 -50.5 -54.5s-47.833 -20.167 -74.5 -21.5c-51.333 -2 -87.5 13.667 -108.5 47s-21.5 66.333 -1.5 99c-48.667 -3.33301 -94.5 4.16699 -137.5 22.5s-79 49.5 -108 93.5
s-43.5 96.667 -43.5 158v435h53v-435c0 -36 6.16699 -68.667 18.5 -98s28.5 -53 48.5 -71s43 -32 69 -42s52.333 -15 79 -15s53 5 79 15s49 24 69 42s36.167 41.667 48.5 71s18.5 62 18.5 98v435z" />
    <glyph glyph-name="uogonek" unicode="&#x173;" horiz-adv-x="602" 
d="M521 495v-534.002c-56 3.33301 -91.667 -8.66699 -107 -36c-11.333 -20 -8 -38.333 10 -55c13.333 -12 31.333 -17.667 54 -17c16 0.666992 32 5.33398 48 14.001s28.667 20.667 38 36l32 -18c-10 -21.333 -25.667 -38 -47 -50s-44 -18.667 -68 -20
c-28 -0.666992 -51.5 4.5 -70.5 15.5s-31 24.667 -36 41s-5.5 33 -1.5 50s15.167 32 33.5 45c18.334 13 41.167 20.5 68.499 22.5v100c-35.333 -63.333 -94.666 -95.666 -177.999 -96.999c-66.667 0 -120.5 19.5 -161.5 58.5s-61.5 92.167 -61.5 159.5v285h49v-284
c0 -55.333 15.667 -97.833 47 -127.5s74.333 -44.167 129 -43.5c50.667 0.666992 92.167 18 124.5 52s48.5 76.667 48.5 128v275h49z" />
    <glyph glyph-name="Wcircumflex" unicode="&#x174;" horiz-adv-x="1078" 
d="M524 700l-215 -640l-216 640h-57l245 -702h58l112 330l88 275l88 -277l111 -328h58l247 702h-58l-217 -640l-214 640h-30zM380 786l140 129h39l139 -129v-7h-52l-107 94l-107 -94h-52v7z" />
    <glyph glyph-name="wcircumflex" unicode="&#x175;" horiz-adv-x="822" 
d="M606 0l175 494h-54l-148 -437l-150 437h-35l-151 -437l-149 437h-54l176 -494h54l80 215l62 193l60 -192l80 -216h54zM255 574l136 127h39l137 -127v-7h-51l-105 92l-105 -92h-51v7z" />
    <glyph glyph-name="Ycircumflex" unicode="&#x176;" horiz-adv-x="659" 
d="M302 280v-280h54v280l274 419v1h-63l-238 -368l-237 368h-63v-1zM175 784l136 127h39l135 -127v-6h-50l-105 92l-104 -92h-51v6z" />
    <glyph glyph-name="ycircumflex" unicode="&#x177;" horiz-adv-x="533" 
d="M499 494h-53l-124 -291l-57 -144l-58 143l-115 292h-53l198 -488l-104 -245h52zM118 577l132 124h38l133 -124v-6h-50l-102 89l-102 -89h-49v6z" />
    <glyph glyph-name="Ydieresis" unicode="&#x178;" horiz-adv-x="659" 
d="M302 280v-280h54v280l274 419v1h-63l-238 -368l-237 368h-63v-1zM192 808c0 16 6.33301 27.167 19 33.5s25.167 6.33301 37.5 0s18.5 -17.5 18.5 -33.5c0 -15.3389 -6.16699 -26.1719 -18.5 -32.499c-12.333 -6.33301 -24.833 -6.33301 -37.5 0s-19 17.166 -19 32.499z
M396 808c0 16 6.33301 27.167 19 33.5s25.167 6.33301 37.5 0s18.5 -17.5 18.5 -33.5c0 -15.3389 -6.16699 -26.1719 -18.5 -32.499c-12.333 -6.33301 -24.833 -6.33301 -37.5 0s-19 17.166 -19 32.499z" />
    <glyph glyph-name="Zacute" unicode="&#x179;" horiz-adv-x="594" 
d="M50 700v-50h421l-445 -627v-23h531v53h-451l451 628v19h-507zM301 783h-48v4l75 120h65v-1z" />
    <glyph glyph-name="zacute" unicode="&#x17a;" horiz-adv-x="456" 
d="M46 494v-44h299l-315 -433v-17h388v46h-312l312 429v19h-372zM240 585h-45v4l71 112h60v-1z" />
    <glyph glyph-name="Zdotaccent" unicode="&#x17b;" horiz-adv-x="594" 
d="M50 700v-50h421l-445 -627v-23h531v53h-451l451 628v19h-507zM269 826c0 12 4.16699 21.5 12.5 28.5s17.333 10.5 27 10.5s18.667 -3.5 27 -10.5s12.5 -16.5 12.5 -28.5s-4.16699 -21.5 -12.5 -28.5s-17.333 -10.5 -27 -10.5s-18.667 3.5 -27 10.5s-12.5 16.5 -12.5 28.5
z" />
    <glyph glyph-name="zdotaccent" unicode="&#x17c;" horiz-adv-x="456" 
d="M46 494v-44h299l-315 -433v-17h388v46h-312l312 429v19h-372zM206 653c0 12 4.16699 21.5 12.5 28.5s17.333 10.5 27 10.5s18.667 -3.5 27 -10.5s12.5 -16.5 12.5 -28.5s-4.16699 -21.5 -12.5 -28.5s-17.333 -10.5 -27 -10.5s-18.667 3.5 -27 10.5s-12.5 16.5 -12.5 28.5
z" />
    <glyph glyph-name="Zcaron" unicode="&#x17d;" horiz-adv-x="594" 
d="M50 700v-50h421l-445 -627v-23h531v53h-451l451 628v19h-507zM473 910l-142 -132h-40l-142 132v7h53l109 -96l109 96h53v-7z" />
    <glyph glyph-name="zcaron" unicode="&#x17e;" horiz-adv-x="456" 
d="M46 494v-44h299l-315 -433v-17h388v46h-312l312 429v19h-372zM391 694l-128 -120h-36l-128 120v6h48l98 -87l99 87h47v-6z" />
    <glyph glyph-name="longs" unicode="&#x17f;" horiz-adv-x="284" 
d="M183 0h-48v447h-101v43h101v44c0 112.667 49.333 169 148 169c35.333 0 68 -11.333 98 -34l-24 -36c-28 16.667 -53.333 25 -76 25c-65.333 0 -98 -41.333 -98 -124v-534z" />
    <glyph glyph-name="florin" unicode="&#x192;" horiz-adv-x="425" 
d="M159 -1v448h-101v43h101v44c0 112.667 49.333 169 148 169c35.333 0 68 -11.333 98 -34l-24 -36c-28 16.667 -53.333 25 -76 25c-65.333 0 -98 -41.333 -98 -124v-44h163v-43h-163v-448c0 -54.667 -9.83301 -96.667 -29.5 -126s-54.834 -44 -105.501 -44
c-31.333 0 -62.666 11.667 -93.999 35l23 34c20.667 -16.667 45 -25 73 -25c30.667 0 52.5 10 65.5 30s19.5 52 19.5 96z" />
    <glyph glyph-name="Aringacute" unicode="&#x1fa;" horiz-adv-x="739" 
d="M557 222h-376l188 426zM369 788c23.333 0 39.833 -7 49.5 -21s9.66699 -28 0 -42s-26.167 -21 -49.5 -21c-22.667 0 -38.5 7 -47.5 21s-9 28 0 42s24.833 21 47.5 21zM275 748c0 -35.333 18.333 -59 55 -71l-304 -677h58l76 172h418l77 -172h58l-304 677
c37.333 12.667 56 36.334 56 71c0 24 -9.5 42.833 -28.5 56.5s-41.5 20.5 -67.5 20.5c-25.333 0 -47.333 -7 -66 -21s-28 -32.667 -28 -56zM389 848h-50v3l78 81h68v-1z" />
    <glyph glyph-name="aringacute" unicode="&#x1fb;" 
d="M550 494h-49v-108c-20 37.334 -48.167 65.667 -84.5 85s-75.5 29 -117.5 29c-70.667 0 -130.167 -23.667 -178.5 -71s-72.5 -108 -72.5 -182s24.333 -135 73 -183s108 -72 178 -72c88 0 155.333 37.667 202 113v-105h49v494zM299 453c44 0 82 -10.167 114 -30.5
s55.333 -45.833 70 -76.5s22 -63.834 22 -99.5c0 -35.667 -7.33301 -68.834 -22 -99.501s-38 -56.167 -70 -76.5s-70 -30.5 -114 -30.5c-57.333 0 -105.333 19.333 -144 58s-58 88.334 -58 149.001s19.333 110.167 58 148.5s86.667 57.5 144 57.5zM220 613
c0 -24.667 8.33301 -44.332 25 -58.999s39 -22 67 -22s50.833 7.33301 68.5 22c17.667 14.6689 26.5 34.3359 26.5 59c0 24.6689 -9.33301 43.8359 -28 57.5c-18.667 13.667 -40.667 20.5 -66 20.5c-26 0 -48 -6.83301 -66 -20.5s-27 -32.834 -27 -57.501zM312 660.002
c22.667 0 38.833 -7.83203 48.5 -23.499s9.66699 -31.334 0 -47.001s-25.834 -23.5 -48.5 -23.5c-22 0 -37.5 7.83301 -46.5 23.5c-9 15.6689 -9 31.3359 0 47c9 15.667 24.5 23.5 46.5 23.5zM331.999 718.003h-45v3l71 89h60v-1z" />
    <glyph glyph-name="AEacute" unicode="&#x1fc;" horiz-adv-x="929" 
d="M498 377v274h365v49h-448l-426 -700h62l147 248h250v-248h429v51h-379v277h345v49h-345zM448 659v-362h-221l216 362h5zM503 783h-48v4l75 120h65v-1z" />
    <glyph glyph-name="aeacute" unicode="&#x1fd;" horiz-adv-x="1033" 
d="M746 -7c41.333 0 81.333 8.16504 120 24.498s69.667 39.833 93 70.5l-35 28c-18 -23.333 -43.667 -41.666 -77 -54.999s-67 -20 -101 -20c-53.333 0 -99.333 16.5 -138 49.5s-60.334 77.5 -65.001 133.5h447c8.66699 90.667 -10.833 159.667 -58.5 207
s-109.5 71 -185.5 71c-43.333 0 -82.5 -9.83301 -117.5 -29.5s-62.833 -47.167 -83.5 -82.5v104h-41v-108c-19.333 36.667 -47.833 64.834 -85.5 84.501s-77.5 29.5 -119.5 29.5c-70.667 0 -130.167 -23.667 -178.5 -71s-72.5 -108 -72.5 -182s24.333 -135 73 -183
s108 -72 178 -72c88.667 0 156.334 37.667 203.001 113v-105h41v100c20.667 -34 48.667 -60.333 84 -79s75 -28 119 -28zM299 452.998c44 0 82.167 -10.167 114.5 -30.5c32.334 -20.333 55.667 -45.833 69.999 -76.5c14.333 -30.667 21.5 -63.834 21.5 -99.5
c0 -35.667 -7.16699 -68.834 -21.5 -99.501s-37.666 -56.167 -69.999 -76.5s-70.5 -30.5 -114.5 -30.5c-57.333 0 -105.333 19.333 -144 58s-58 88.334 -58 149.001s19.333 110.167 58 148.5s86.667 57.5 144 57.5zM543 266.998c5.33301 58.667 27.333 105 66 139
s84.334 51 137 51c60.667 0 109 -16.667 145 -50s54.333 -80 55 -140h-403zM536 587.998h-44v4l69 110h60z" />
    <glyph glyph-name="Oslashacute" unicode="&#x1fe;" horiz-adv-x="814" 
d="M150 -79l53 -0.000976562l54 95c47.333 -18.667 97.333 -28 150 -28c56.667 0 107.834 10.167 153.501 30.5s82.667 47.5 111 81.5s50.166 72.333 65.499 115s23 87.334 23 134.001c0 62 -12.167 119.5 -36.5 172.5s-59.833 95.833 -106.5 128.5l64 111h-54l-50 -88
c-49.334 25.333 -106.001 38 -170.001 38c-75.333 0 -140.333 -17.167 -195 -51.5c-54.667 -34.334 -94.667 -78.167 -120 -131.5s-38 -112.333 -38 -177c0 -65.333 13.833 -126 41.5 -182s67.834 -100 120.501 -132zM407 660.999c52.667 0 101 -10.668 145 -32.001
l-310 -546c-43.333 28 -76.666 65.833 -99.999 113.5s-35 98.834 -35 153.501c-0.666992 88 25.166 161.833 77.499 221.5s126.5 89.5 222.5 89.5zM407 37.998c-46 0 -87.332 7.66797 -123.999 23.001l309 543c37.333 -28.667 66 -65.334 86 -110.001s30 -92.667 30 -144
c0 -54.667 -10.833 -105 -32.5 -151s-55.834 -84.333 -102.501 -115s-102 -46 -166 -46zM435.001 784.999h-48v4l75 120h65v-1z" />
    <glyph glyph-name="oslashacute" unicode="&#x1ff;" horiz-adv-x="599" 
d="M300 -7c71.333 0 131 23 179 69s72 107.333 72 184c0 90 -32.667 159.333 -98 208l51 85h-51l-37 -62c-36 17.333 -74.667 26 -116 26c-71.333 0 -131 -23.667 -179 -71s-72 -109.333 -72 -186c0 -94 34.667 -164 104 -210l-54 -90h50l41 69
c32 -14.667 68.667 -22 110 -22zM300 457c31.334 0 61.667 -7 91 -21l-213 -358c-54 37.333 -81 93.333 -81 168c0 62.667 19.5 113.5 58.5 152.5s87.167 58.5 144.5 58.5zM300 41c-32 0 -60 5.33301 -84 16l212 356c50 -40 75 -95.667 75 -167
c0 -62 -19.333 -111.667 -58 -149s-87 -56 -145 -56zM326 589h-43v4l68 108h58v-1z" />
    <glyph glyph-name="Scommaaccent" unicode="&#x218;" horiz-adv-x="657" 
d="M587 591l-44.0029 -26.002c-23.334 37.333 -52.501 62.333 -87.5 75c-35 12.668 -76.5 19.335 -124.5 20c-32 0 -62.833 -3.66699 -92.5 -11s-57 -22.333 -82 -45s-37.5 -51.334 -37.5 -86.001c0 -17.333 4 -32.666 12 -45.999s17.5 -24.166 28.5 -32.499
s27 -16.166 48 -23.499s40 -12.833 57 -16.5s39.833 -8.16699 68.5 -13.5c87.333 -16.667 147 -33 179 -49c64 -31.333 96 -82 96 -152c0 -37.333 -8.83301 -69.5 -26.5 -96.5s-40.834 -47.333 -69.501 -61s-57.834 -23.5 -87.5 -29.5c-29.667 -6 -60.834 -9 -93.5 -9
c-59.333 0 -115.666 12.833 -168.999 38.5s-92.666 63.5 -117.999 113.5l48 24c20 -40 53.167 -71.167 99.5 -93.5s92.833 -33.5 139.5 -33.5c24.667 0 48.667 2 72 6s47 11 71 21c24.001 10 43.334 25.333 58 46c14.667 20.667 22 45.667 22 75
c0 16.667 -2.66699 31.834 -8 45.5c-5.33496 13.667 -14.168 25.5 -26.499 35.5c-12.333 10 -24.333 18.333 -36 25s-28.167 13 -49.5 19s-38.666 10.5 -51.999 13.5s-32.666 6.83301 -57.999 11.5c-28 5.33594 -49.5 9.66895 -64.5 13c-15 3.33301 -34.5 8.5 -58.5 15.5
s-42.5 14.5 -55.5 22.5s-26.5 18 -40.5 30s-24.167 26.333 -30.5 43s-9.5 35.334 -9.5 56.001c-0.666992 35.333 7.16602 66.166 23.499 92.499s38.333 46.5 66 60.5s56.167 24.333 85.5 31c29.334 6.66699 59.667 10 91 10c58 0 107.167 -8 147.5 -24
s76.5 -47.667 108.5 -95zM315.997 -136.002c0 12 4.16699 21.5 12.5 28.5s17.333 10.5 27 10.5s18.667 -3.5 27 -10.5s12.5 -16.5 12.5 -28.5c0 -5.33301 -1 -11 -3 -17l-40 -102h-43l31 83c-16 6 -24 18 -24 36z" />
    <glyph glyph-name="scommaaccent" unicode="&#x219;" horiz-adv-x="501" 
d="M437 436l-30.002 -32c-39.333 34.667 -90.666 52 -153.999 52c-42 0.666992 -77.5 -6.83301 -106.5 -22.5s-43.167 -38.5 -42.5 -68.5c0 -10.667 2.16699 -20.167 6.5 -28.5c4.33398 -8.33301 11.167 -15.666 20.5 -21.999s17.5 -11.333 24.5 -15
c7 -3.66895 18.167 -7.33594 33.5 -11c15.333 -3.66699 25.833 -6.16699 31.5 -7.5s16.834 -3.33301 33.5 -6c68 -11.333 114 -23.333 138 -36c46 -22.667 68 -59 66 -109c-0.667969 -34 -12.335 -61.833 -35 -83.5c-22.667 -21.667 -48.167 -36.167 -76.5 -43.5
s-58.833 -11 -91.5 -11c-45.333 0 -87.5 8.5 -126.5 25.5s-68.833 41.5 -89.5 73.5l36 32c19.333 -28 45.5 -49 78.5 -63s67.167 -21 102.5 -21c24 0 46.333 2.16699 67 6.5s40.167 14 58.5 29s27.833 34.5 28.5 58.5c0.666992 14 -2.33301 26.167 -9 36.5
s-14.167 18.666 -22.5 24.999s-21 12 -38 17s-31.167 8.66699 -42.5 11s-27.666 5.16602 -48.999 8.49902c-24.667 4 -44 7.5 -58 10.5s-30.667 7.83301 -50 14.5s-34.166 14.334 -44.499 23.001s-19.5 20.167 -27.5 34.5c-8 14.334 -12 31.167 -12 50.5
c-0.666992 45.333 18.166 79.833 56.499 103.5s84.833 35.167 139.5 34.5c76 0 137.333 -22 184 -66zM230.998 -136c0 12 4.16699 21.5 12.5 28.5s17.333 10.5 27 10.5s18.667 -3.5 27 -10.5s12.5 -16.5 12.5 -28.5c0 -5.33301 -1 -11 -3 -17l-40 -102h-43l31 83
c-16 6 -24 18 -24 36z" />
    <glyph glyph-name="uni021A" unicode="&#x21a;" horiz-adv-x="590" 
d="M258 -136c0 12 4.16699 21.5 12.5 28.5s17.333 10.5 27 10.5s18.667 -3.5 27 -10.5s12.5 -16.5 12.5 -28.5c0 -5.33301 -1 -11 -3 -17l-40 -102h-43l31 83c-16 6 -24 18 -24 36zM268 0v651h-253v48h560v-48h-253v-651h-54z" />
    <glyph glyph-name="uni021B" unicode="&#x21b;" horiz-adv-x="376" 
d="M138 638l48 5.00098v-149h168v-41h-168v-301c0 -38 6.16699 -66.5 18.5 -85.5s36.5 -28.5 72.5 -28.5c22.667 0 48 6.66699 76 20l17 -40c-34.667 -16.667 -65.667 -25 -93 -25c-50 0 -85.667 13.667 -107 41s-32 66.666 -32 117.999v301h-105v41h105v144zM209 -135.999
c0 12 4.16699 21.5 12.5 28.5s17.333 10.5 27 10.5s18.667 -3.5 27 -10.5s12.5 -16.5 12.5 -28.5c0 -5.33301 -1 -11 -3 -17l-40 -102h-43l31 83c-16 6 -24 18 -24 36z" />
    <glyph glyph-name="dotlessj" unicode="&#x237;" horiz-adv-x="210" 
d="M81 495h47.999v-570c0.666992 -54 -8.5 -95.667 -27.5 -125s-53.833 -44 -104.5 -44c-29.333 0 -59 8 -89 24l14 42c23.333 -13.333 48.333 -20 75 -20c34.667 0 57.334 10.5 68.001 31.5s16 51.5 16 91.5v570z" />
    <glyph glyph-name="circumflex" unicode="&#x2c6;" horiz-adv-x="421" 
d="M36 569l142 132h40l142 -132v-7h-53l-109 96l-109 -96h-53v7z" />
    <glyph glyph-name="caron" unicode="&#x2c7;" horiz-adv-x="404" 
d="M360 694l-142 -132h-40l-142 132v7h53l109 -96l109 96h53v-7z" />
    <glyph glyph-name="breve" unicode="&#x2d8;" horiz-adv-x="333" 
d="M241 700l42 0.000976562c0 -38.667 -11.167 -68.834 -33.5 -90.501s-53.166 -32.5 -92.499 -32.5c-40 0 -71 10.833 -93 32.5c-22 21.668 -33 51.835 -33 90.5h40c0 -55.333 28.667 -83 86 -83c31.333 0 53.166 8.16699 65.499 24.5s18.5 35.833 18.5 58.5z" />
    <glyph glyph-name="dotaccent" unicode="&#x2d9;" horiz-adv-x="206" 
d="M56 667c0 12 4.16699 21.5 12.5 28.5s17.333 10.5 27 10.5s18.667 -3.5 27 -10.5s12.5 -16.5 12.5 -28.5s-4.16699 -21.5 -12.5 -28.5s-17.333 -10.5 -27 -10.5s-18.667 3.5 -27 10.5s-12.5 16.5 -12.5 28.5z" />
    <glyph glyph-name="ring" unicode="&#x2da;" horiz-adv-x="397" 
d="M74 622c0 30 10.3311 53.501 30.998 70.501s45.334 25.5 74.001 25.5s53.667 -8.5 75 -25.5s32 -40.5 32 -70.5c0 -30.667 -10.167 -54.834 -30.5 -72.501s-46.166 -26.5 -77.499 -26.5c-32 0 -57.333 8.83301 -76 26.5s-28 41.834 -28 72.5zM177.998 680.001
c-24.667 0 -42.167 -9.66602 -52.5 -28.999c-10.333 -19.3359 -10.333 -38.6689 0 -58c10.333 -19.333 27.833 -29 52.5 -29c26 0 44.333 9.66699 55 29s10.667 38.666 0 57.999s-29 29 -55 29z" />
    <glyph glyph-name="ogonek" unicode="&#x2db;" horiz-adv-x="407" 
d="M243 -10l15 -31.001c-56 10 -93.667 0.333008 -113 -29c-13.333 -20 -13 -40 1 -60c13.333 -18 33.333 -26.333 60 -25c16 0.666992 32 5.33398 48 14.001s28.667 20.667 38 36l32 -18c-10 -21.333 -25.667 -38 -47 -50s-44 -18.667 -68 -20
c-50 -2 -84.333 14.667 -103 50c-16 30 -14.333 59.333 5 88c26 37.333 70 52.333 132 45z" />
    <glyph glyph-name="tilde" unicode="&#x2dc;" horiz-adv-x="325" 
d="M65 628l-34 11c3.33301 29.333 16.833 49.5 40.5 60.5s47.5 10.167 71.5 -2.5l41 -22c12 -6.66699 24.167 -8 36.5 -4s20.5 14 24.5 30l34 -11c-2.66699 -30 -16 -50.5 -40 -61.5s-48 -9.83301 -72 3.5l-41 22c-12 6.68652 -24.167 7.85352 -36.5 3.5
c-12.333 -4.33594 -20.5 -14.1689 -24.5 -29.5z" />
    <glyph glyph-name="hungarumlaut" unicode="&#x2dd;" horiz-adv-x="352" 
d="M79 588h-48v4l72 109h65v-1zM211 588h-48v4l72 109h65v-1z" />
    <glyph glyph-name="_375" unicode="&#x394;" horiz-adv-x="693" 
d="M365 700l314 -700h-687l314 700h59zM335 648l-264 -601h529z" />
    <glyph glyph-name="_376" unicode="&#x3a9;" horiz-adv-x="796" 
d="M461 0l-0.000976562 45.001c72 15.333 127.5 51.666 166.5 108.999s58.833 122.666 59.5 195.999c0.666016 88 -25.167 161.833 -77.5 221.5s-126.5 89.5 -222.5 89.5s-170.167 -29.833 -222.5 -89.5s-78.166 -133.5 -77.499 -221.5
c0.666992 -73.333 20.5 -138.666 59.5 -195.999s94.5 -93.666 166.5 -108.999v-45h-249v46l146 -2c-56.667 26 -100.167 66.667 -130.5 122s-45.5 117 -45.5 185c0 64.667 12.667 123.667 38 177s65.333 97.166 120 131.499s119.667 51.5 195 51.5
c75.334 0 140.334 -17.167 195 -51.5c54.667 -34.334 94.667 -78.167 120 -131.5s38 -112.333 38 -177c0 -68 -15.167 -129.667 -45.5 -185s-73.833 -96 -130.5 -122l146 2v-46h-249z" />
    <glyph glyph-name="pi" unicode="&#x3c0;" horiz-adv-x="669" 
d="M193 0h-48.001v453h-122v41h616v-41h-126v-315c0 -39.333 7.33301 -67.333 22 -84s42.667 -22 84 -16v-40c-54.667 -10 -94.167 -2 -118.5 24s-36.166 64.667 -35.499 116v315h-272v-453z" />
    <glyph glyph-name="Wgrave" unicode="&#x1e80;" horiz-adv-x="1078" 
d="M309 60l215 640h30l214 -640l217 640h58l-247 -702h-58l-111 328l-88 277l-88 -275l-112 -330h-58l-245 702h57zM566 783h-46l-87 117v1h61l72 -114v-4z" />
    <glyph glyph-name="wgrave" unicode="&#x1e81;" horiz-adv-x="822" 
d="M781 494l-175 -494h-54l-80 216l-60 192l-62 -193l-80 -215h-54l-176 494h54l149 -437l151 437h35l150 -437l148 437h54zM437 592h-42l-81 108v1h58l65 -105v-4z" />
    <glyph glyph-name="Wacute" unicode="&#x1e82;" horiz-adv-x="1078" 
d="M524 700l-215 -640l-216 640h-57l245 -702h58l112 330l88 275l88 -277l111 -328h58l247 702h-58l-217 -640l-214 640h-30zM558 783h-45v4l70 111h60v-1z" />
    <glyph glyph-name="wacute" unicode="&#x1e83;" horiz-adv-x="822" 
d="M606 0l175 494h-54l-148 -437l-150 437h-35l-151 -437l-149 437h-54l176 -494h54l80 215l62 193l60 -192l80 -216h54zM422 592h-42v4l66 105h57v-1z" />
    <glyph glyph-name="Wdieresis" unicode="&#x1e84;" horiz-adv-x="1078" 
d="M524 700l-215 -640l-216 640h-57l245 -702h58l112 330l88 275l88 -277l111 -328h58l247 702h-58l-217 -640l-214 640h-30zM392 840c0 12 4.16699 21.5 12.5 28.5s17.333 10.5 27 10.5s18.667 -3.5 27 -10.5s12.5 -16.5 12.5 -28.5s-4.16699 -21.5 -12.5 -28.5
s-17.333 -10.5 -27 -10.5s-18.667 3.5 -27 10.5s-12.5 16.5 -12.5 28.5zM606 840c0 12 4.16699 21.5 12.5 28.5s17.333 10.5 27 10.5s18.667 -3.5 27 -10.5s12.5 -16.5 12.5 -28.5s-4.16699 -21.5 -12.5 -28.5s-17.333 -10.5 -27 -10.5s-18.667 3.5 -27 10.5
s-12.5 16.5 -12.5 28.5z" />
    <glyph glyph-name="wdieresis" unicode="&#x1e85;" horiz-adv-x="822" 
d="M606 0l175 494h-54l-148 -437l-150 437h-35l-151 -437l-149 437h-54l176 -494h54l80 215l62 193l60 -192l80 -216h54zM277 662c0 15.333 6.16602 26.167 18.499 32.5c12.334 6.33301 24.667 6.33301 37 0c12.333 -6.33887 18.5 -17.1719 18.5 -32.5
c0 -15.333 -6.16699 -26 -18.5 -32s-24.666 -6 -36.999 0s-18.5 16.667 -18.5 32zM475.999 662.001c0 15.333 6 26.167 18 32.5s24.167 6.33301 36.5 0c12.333 -6.33887 18.5 -17.1719 18.5 -32.5c0 -15.333 -6.16699 -26 -18.5 -32c-12.335 -6 -24.502 -6 -36.5 0
c-12 6 -18 16.667 -18 32z" />
    <glyph glyph-name="Ygrave" unicode="&#x1ef2;" horiz-adv-x="659" 
d="M302 0v280l-273 419v1h63l237 -368l238 368h63v-1l-274 -419v-280h-54zM359 783h-45l-84 114h60l69 -110v-4z" />
    <glyph glyph-name="ygrave" unicode="&#x1ef3;" horiz-adv-x="533" 
d="M446 494h53l-314 -733h-52l104 245l-198 488h53l115 -292l58 -143l57 144zM302 589h-43l-83 111v1h59l67 -108v-4z" />
    <glyph glyph-name="endash" unicode="&#x2013;" horiz-adv-x="592" 
d="M73 259v51h446v-51h-446z" />
    <glyph glyph-name="emdash" unicode="&#x2014;" horiz-adv-x="699" 
d="M73 257v51h553v-51h-553z" />
    <glyph glyph-name="quoteleft" unicode="&#x2018;" horiz-adv-x="209" 
d="M115 701h44l-44 -163h-57z" />
    <glyph glyph-name="quoteright" unicode="&#x2019;" horiz-adv-x="207" 
d="M104 532h-44l45 169h57z" />
    <glyph glyph-name="quotesinglbase" unicode="&#x201a;" horiz-adv-x="227" 
d="M88 -105h-44l45 169h57z" />
    <glyph glyph-name="quotedblleft" unicode="&#x201c;" horiz-adv-x="339" 
d="M244 698h44l-47 -168h-57zM118 698h44l-47 -168h-57z" />
    <glyph glyph-name="quotedblright" unicode="&#x201d;" horiz-adv-x="332" 
d="M104 540h-44l45 161h57zM230 540h-44l45 161h57z" />
    <glyph glyph-name="quotedblbase" unicode="&#x201e;" horiz-adv-x="347" 
d="M88 -105h-44l45 169h57zM208 -105h-44l45 169h57z" />
    <glyph glyph-name="dagger" unicode="&#x2020;" horiz-adv-x="549" 
d="M515 503v-47h-216v-588h-49v588h-216v47h216v197h49v-197h216z" />
    <glyph glyph-name="daggerdbl" unicode="&#x2021;" horiz-adv-x="599" 
d="M540 503v-47h-216v-278h216v-47h-216v-263h-49v263h-216v47h216v278h-216v47h216v197h49v-197h216z" />
    <glyph glyph-name="bullet" unicode="&#x2022;" horiz-adv-x="382" 
d="M192 189c-28.667 0 -52.166 8.83203 -70.499 26.499s-27.5 40.834 -27.5 69.501s9.16699 51.834 27.5 69.501s41.833 26.5 70.5 26.5c27.333 0 50.166 -8.83301 68.499 -26.5s27.5 -40.834 27.5 -69.5c0 -28.667 -9.16699 -51.834 -27.5 -69.501
c-18.334 -17.667 -41.167 -26.5 -68.5 -26.5z" />
    <glyph glyph-name="ellipsis" unicode="&#x2026;" horiz-adv-x="569" 
d="M73 30c0 12 4.16699 21.5 12.5 28.5s17.333 10.5 27 10.5s18.667 -3.5 27 -10.5s12.5 -16.5 12.5 -28.5s-4.16699 -21.5 -12.5 -28.5c-8.33398 -7 -17.334 -10.5 -27 -10.5c-9.66699 0 -18.667 3.5 -27 10.5s-12.5 16.5 -12.5 28.5zM246 30c0 12 4.16699 21.5 12.5 28.5
s17.333 10.5 27 10.5s18.667 -3.5 27 -10.5s12.5 -16.5 12.5 -28.5s-4.16699 -21.5 -12.5 -28.5s-17.333 -10.5 -27 -10.5s-18.667 3.5 -27 10.5s-12.5 16.5 -12.5 28.5zM417 30c0 12 4.16699 21.5 12.5 28.5s17.333 10.5 27 10.5s18.667 -3.5 27 -10.5
s12.5 -16.5 12.5 -28.5s-4.16699 -21.5 -12.5 -28.5s-17.333 -10.5 -27 -10.5s-18.667 3.5 -27 10.5s-12.5 16.5 -12.5 28.5z" />
    <glyph glyph-name="perthousand" unicode="&#x2030;" horiz-adv-x="1084" 
d="M620 703l-55 -1l-446 -702h56zM200 705c32.667 0 60.834 -7.3291 84.501 -21.9961s41 -32.834 52 -54.501s16.5 -45.334 16.5 -71.001s-5.5 -49.334 -16.5 -71.001c-11 -21.668 -28.333 -39.835 -52 -54.501c-23.667 -14.667 -51.834 -22 -84.501 -22
c-28 0 -52.833 5.5 -74.5 16.5s-38.167 25.167 -49.5 42.5s-19.666 36.333 -24.999 57s-5.33301 41.5 0 62.5s13.666 40.167 24.999 57.5s27.833 31.5 49.5 42.5s46.5 16.5 74.5 16.5zM541 289.004c28 0 53.001 -5.50293 75.001 -16.5029s38.667 -25.167 50 -42.5
s19.666 -36.333 24.999 -57s5.33301 -41.5 0 -62.5c-5.33887 -21 -13.6719 -40.167 -25 -57.5c-11.333 -17.333 -28 -31.5 -50 -42.5s-47 -16.5 -75 -16.5c-32 0 -60 7.33301 -84 22s-41.333 32.834 -52 54.501s-16 45.334 -16 71.001s5.33301 49.334 16 71.001
s28 39.834 52 54.5c24 14.667 52 22 84 22zM541.001 248.001c-26.667 0 -49.333 -7.33203 -68 -21.999s-30 -32.334 -34 -53.001s-3.83301 -41.334 0.5 -62.001s15.833 -38.334 34.5 -53.001s41.334 -22 68.001 -22c26.6689 0 49.3359 7.33301 68 22
c18.667 14.667 30 32.334 34 53.001s3.83301 41.334 -0.5 62.001s-15.833 38.334 -34.5 53c-18.667 14.667 -41.334 22 -68.001 22zM200.002 662.002c-27.333 0 -50.1689 -7.16602 -68.502 -21.499c-18.333 -14.3359 -29.666 -31.6689 -33.999 -52
c-4.33301 -20.334 -4.33301 -40.667 0 -60.999c4.33301 -20.333 15.833 -37.666 34.5 -51.999s41.667 -21.5 69 -21.5c26.667 0 49 7.16699 67 21.5c18 14.334 29.167 31.667 33.5 51.999c4.33301 20.333 4.33301 40.666 0 60.999s-15.666 37.666 -33.999 51.999
s-40.833 21.5 -67.5 21.5zM903.999 289.003c28 0 52.999 -5.50293 74.999 -16.5029s38.667 -25.167 50 -42.5c11.3496 -17.333 19.6826 -36.333 25 -57c5.33301 -20.667 5.33301 -41.5 0 -62.5s-13.666 -40.167 -24.999 -57.5s-28 -31.5 -50 -42.5s-47 -16.5 -75 -16.5
c-32 0 -60 7.33301 -84 22s-41.333 32.834 -52 54.501s-16 45.334 -16 71.001s5.33301 49.334 16 71.001s28 39.834 52 54.5c24 14.667 52 22 84 22zM903.998 248c-26.667 0 -49.333 -7.33203 -68 -21.999s-30 -32.334 -34 -53.001s-3.83301 -41.334 0.5 -62.001
s15.833 -38.334 34.5 -53.001s41.334 -22 68 -22c26.6689 0 49.3359 7.33301 68.001 22c18.667 14.667 30 32.334 34 53.001s3.83301 41.334 -0.5 62.001s-15.833 38.334 -34.5 53c-18.667 14.667 -41.334 22 -68.001 22z" />
    <glyph glyph-name="guilsinglleft" unicode="&#x2039;" horiz-adv-x="295" 
d="M50 299l138 219h52v-5l-135 -214l135 -214v-6h-52z" />
    <glyph glyph-name="guilsinglright" unicode="&#x203a;" horiz-adv-x="295" 
d="M245 295l-138 -220h-52v6l135 214l-135 214v5h52z" />
    <glyph glyph-name="fraction" unicode="&#x2044;" horiz-adv-x="145" 
d="M-86 -2h-53l371 705h54z" />
    <glyph glyph-name="zerosuperior" unicode="&#x2070;" horiz-adv-x="376" 
d="M90 653v-51.999c0 -28 6.66699 -51.833 20 -71.5c13.333 -19.668 29.5 -31.835 48.5 -36.501c19 -4.66699 38 -4.83398 57 -0.500977s35.167 16.333 48.5 36c13.333 19.668 20 43.835 20 72.501v52c0 29.333 -6.66699 54 -20 74s-29.5 32.333 -48.5 37s-38 4.66699 -57 0
s-35.167 -17 -48.5 -37s-20 -44.667 -20 -74zM43 601.001l0.000976562 52.0039c0 28.6689 5.33301 54.3359 16 77c10.667 22.667 24.5 40 41.5 52s35.833 20.667 56.5 26s41.334 5.16602 62 -0.500977c20.667 -5.66699 39.5 -14.334 56.5 -26.001
s30.833 -28.834 41.5 -51.501s16 -48.334 16 -77.001v-52c0 -28.667 -5.33301 -54.334 -16 -77.001c-10.667 -22.668 -24.5 -39.835 -41.5 -51.501c-17 -11.667 -35.833 -20.167 -56.5 -25.5s-41.334 -5.33301 -62.001 0s-39.5 13.833 -56.5 25.5
s-30.833 28.834 -41.5 51.501c-10.667 22.668 -16 48.335 -16 77.001z" />
    <glyph glyph-name="foursuperior" unicode="&#x2074;" horiz-adv-x="345" 
d="M201 807h65v-233h42v-44h-42v-78h-45v78h-192l-3 37zM82 574h139v189z" />
    <glyph glyph-name="fivesuperior" unicode="&#x2075;" horiz-adv-x="358" 
d="M178 631l-126 -0.000976562v176h249v-43h-204v-91h81c47.333 0 83 -10.5 107 -31.5s36 -48.5 36 -82.5s-12.167 -61.333 -36.5 -82s-59.5 -31 -105.5 -31c-38 0 -70 7.83301 -96 23.5s-39.333 41.834 -40 78.501h44c0 -39.333 30.667 -59 92 -59
c63.333 0.000976562 95 23.334 95 70c0 18.6689 -7 35.3359 -21 50c-14 14.667 -39 22 -75 22z" />
    <glyph glyph-name="sixsuperior" unicode="&#x2076;" horiz-adv-x="372" 
d="M193 481c25.333 0 47.168 5.5 65.501 16.5s27.5 28.833 27.5 53.5c0 24 -9.33301 41.833 -28 53.5s-40.334 17.5 -65.001 17.5s-46.5 -6 -65.5 -18s-28.833 -29.333 -29.5 -52c0 -24.667 9.5 -42.667 28.5 -54s41.167 -17 66.5 -17zM97.002 694v-66.998
c22.667 23.333 54.667 35 96 35c39.333 0 72.5 -8.66699 99.5 -26c27 -17.335 40.5 -45.668 40.5 -85c0 -37.334 -13.833 -65.001 -41.5 -83.001s-60.5 -27 -98.5 -27c-39.333 0 -72.833 9.16699 -100.5 27.5s-41.5 46.166 -41.5 83.499v142c0 38 13.167 66.5 39.5 85.5
s58.5 28.5 96.5 28.5s69.667 -7.66699 95 -23s39.333 -38 42 -68h-45c-3.33301 32 -34 48 -92 48c-60 0 -90 -23.667 -90 -71z" />
    <glyph glyph-name="sevensuperior" unicode="&#x2077;" horiz-adv-x="312" 
d="M31 764v43h259l4 -22l-182 -334h-55l173 313h-199z" />
    <glyph glyph-name="eightsuperior" unicode="&#x2078;" horiz-adv-x="378" 
d="M189 609c-25.333 0 -47.6699 -5.66699 -67.0029 -17s-29 -28.333 -29 -51c0 -20.667 10.333 -36 31 -46s42.334 -15 65.001 -15s44.334 5 65.001 15s31.334 25.333 32.001 46c0 22.667 -9.83301 39.667 -29.5 51s-42.167 17 -67.5 17zM188.996 438
c-39.333 0 -73.5 8 -102.5 24s-43.833 42 -44.5 78c0 23.333 7.5 43 22.5 59s33.833 26.333 56.5 31c-48.667 15.333 -73 43 -73 83c0 33.333 14.333 57.833 43 73.5s61.334 23.5 98.001 23.5c37.333 0 70.166 -7.66699 98.499 -23s42.5 -40 42.5 -74
c0 -41.333 -24 -69.333 -72 -84c22 -4.66699 40.5 -15 55.5 -31s22.5 -35.333 22.5 -58c0 -36 -14.5 -62 -43.5 -78s-63.5 -24 -103.5 -24zM188.996 771c-22.667 0 -43.5 -4.49902 -62.5 -13.499s-28.5 -23.833 -28.5 -44.5s8.83301 -35.834 26.5 -45.501
s39.167 -14.5 64.5 -14.5s47 4.83301 65 14.5c18 9.66895 27 24.8359 27 45.5c0 20.667 -9.66699 35.5 -29 44.5s-40.333 13.5 -63 13.5z" />
    <glyph glyph-name="ninesuperior" unicode="&#x2079;" horiz-adv-x="372" 
d="M179 768c-25.333 0 -47.168 -5.5 -65.501 -16.5s-27.5 -28.833 -27.5 -53.5c0 -24 9.33301 -41.833 28 -53.5s40.334 -17.5 65.001 -17.5s46.5 6 65.5 18s28.833 29.333 29.5 52c0 24.667 -9.5 42.667 -28.5 54s-41.167 17 -66.5 17zM274.998 555v67.001
c-22.667 -23.333 -54.667 -35 -96 -35c-39.333 0 -72.5 8.66699 -99.5 26s-40.5 45.666 -40.5 84.999c0 37.333 13.833 65 41.5 83s60.5 27 98.5 27c39.333 0 72.833 -9.16699 100.5 -27.5c27.667 -18.335 41.5 -46.168 41.5 -83.5v-142c0 -38 -13.167 -66.5 -39.5 -85.5
s-58.5 -28.5 -96.5 -28.5s-69.667 7.66699 -95 23s-39.333 38 -42 68h45c3.33301 -32 34 -48 92 -48c60 0 90 23.667 90 71z" />
    <glyph glyph-name="zeroinferior" unicode="&#x2080;" horiz-adv-x="378" 
d="M91 117v-51.999c0 -28 6.66699 -51.833 20 -71.5s29.5 -31.834 48.5 -36.501s38 -4.83398 57 -0.500977s35.167 16.333 48.5 36s20 43.834 20 72.501v52c0 29.333 -6.66699 54 -20 74s-29.5 32.333 -48.5 37s-38 4.66699 -57 0s-35.167 -17 -48.5 -37
s-20 -44.667 -20 -74zM44 65.001l0.000976562 52.001c0 28.667 5.33301 54.334 16 77.001s24.5 39.834 41.5 51.5c17 11.667 35.833 20.167 56.5 25.5s41.334 5.33301 62 0c20.667 -5.33301 39.5 -13.833 56.5 -25.5s30.833 -28.834 41.5 -51.501s16 -48.334 16 -77.001v-52
c0 -28.667 -5.33301 -54.167 -16 -76.5s-24.5 -39.333 -41.5 -51s-35.833 -20.167 -56.5 -25.5s-41.334 -5.33301 -62.001 0s-39.5 13.833 -56.5 25.5s-30.833 28.667 -41.5 51s-16 47.833 -16 76.5z" />
    <glyph glyph-name="oneinferior" unicode="&#x2081;" horiz-adv-x="239" 
d="M37 -87v41h63v260l-55 -14v44l103 23v-313h65v-41h-176z" />
    <glyph glyph-name="twoinferior" unicode="&#x2082;" horiz-adv-x="357" 
d="M92 167h-46c0 70.667 45 106 135 106c37.333 0 68.833 -8 94.5 -24s38.5 -43.333 38.5 -82c0 -72 -44 -108 -132 -108c-22 0 -42.5 -5 -61.5 -15s-28.5 -27.667 -28.5 -53v-30h219v-49h-267v80c0 34.667 13.5 61.5 40.5 80.5s59.5 28.5 97.5 28.5c56.667 0 85 22 85 66
c0 42.667 -29 64 -87 64c-27.333 0 -48.833 -4.33301 -64.5 -13s-23.5 -25.667 -23.5 -51z" />
    <glyph glyph-name="threeinferior" unicode="&#x2083;" horiz-adv-x="357" 
d="M179 75h-55.002v43h51c22.667 0 42.667 4.5 60 13.5s26 23.167 26 42.5c0 14.667 -7.66699 27.834 -23 39.5c-15.333 11.667 -36.333 17.5 -63 17.5c-21.333 0 -41.166 -5 -59.499 -15s-27.5 -26.667 -27.5 -50h-43c0 35.333 12.5 61.666 37.5 78.999s55.833 26 92.5 26
s67.834 -8.5 93.501 -25.5s38.5 -41.167 38.5 -72.5c0 -20 -5.33301 -36.667 -16 -50s-24.667 -22.333 -42 -27c20 -5.33301 35.833 -15.666 47.5 -30.999s17.5 -31.333 17.5 -48c0 -73.333 -46.333 -110 -139 -110c-38.667 0 -70.667 8.5 -96 25.5s-38.333 44.167 -39 81.5
h48c0 -42 29.333 -63 88 -63c60.667 0 91 22 91 66c0 14 -7.33301 27.167 -22 39.5s-36.667 18.5 -66 18.5z" />
    <glyph glyph-name="fourinferior" unicode="&#x2084;" horiz-adv-x="345" 
d="M201 268h65v-233h42v-44h-42v-78h-45v78h-192l-3 37zM82 35h139v189z" />
    <glyph glyph-name="fiveinferior" unicode="&#x2085;" horiz-adv-x="358" 
d="M178 92l-126 -0.00195312v176h249v-43h-204v-91h81c47.333 0 83 -10.5 107 -31.5s36 -48.5 36 -82.5s-12.167 -61.333 -36.5 -82s-59.5 -31 -105.5 -31c-38 0 -70 7.83301 -96 23.5s-39.333 41.834 -40 78.501h44c0 -39.333 30.667 -59 92 -59c63.333 0 95 23.333 95 70
c0 18.667 -7 35.334 -21 50.001s-39 22 -75 22z" />
    <glyph glyph-name="sixinferior" unicode="&#x2086;" horiz-adv-x="371" 
d="M192 -54c25.333 0 47.168 5.5 65.501 16.5s27.5 28.833 27.5 53.5c0 24 -9.33301 41.833 -28 53.5s-40.334 17.5 -65.001 17.5s-46.5 -6 -65.5 -18s-28.833 -29.333 -29.5 -52c0 -24.667 9.5 -42.667 28.5 -54s41.167 -17 66.5 -17zM96.002 159v-67
c22.667 23.333 54.667 35 96 35c39.333 0 72.5 -8.66699 99.5 -26s40.5 -45.666 40.5 -84.999c0 -37.333 -13.833 -65 -41.5 -83s-60.5 -27 -98.5 -27c-39.333 0 -72.833 9.16699 -100.5 27.5s-41.5 46.166 -41.5 83.499v142c0 38 13.167 66.5 39.5 85.5
s58.5 28.5 96.5 28.5s69.667 -7.66699 95 -23s39.333 -38 42 -68h-45c-3.33301 32 -34 48 -92 48c-60 0 -90 -23.667 -90 -71z" />
    <glyph glyph-name="seveninferior" unicode="&#x2087;" horiz-adv-x="310" 
d="M30 226v43h259l4 -22l-182 -334h-55l173 313h-199z" />
    <glyph glyph-name="eightinferior" unicode="&#x2088;" horiz-adv-x="378" 
d="M189 79c-25.333 0 -47.6699 -5.66699 -67.0029 -17s-29 -28.333 -29 -51c0 -20.667 10.333 -36 31 -46s42.334 -15 65.001 -15s44.334 5 65.001 15s31.334 25.333 32.001 46c0 22.667 -9.83301 39.667 -29.5 51s-42.167 17 -67.5 17zM188.996 -92
c-39.333 0 -73.5 8 -102.5 24s-43.833 42 -44.5 78c0 23.333 7.5 43 22.5 59s33.833 26.333 56.5 31c-48.667 15.333 -73 43 -73 83c0 33.333 14.333 57.833 43 73.5s61.334 23.5 98.001 23.5c37.333 0 70.166 -7.66699 98.499 -23s42.5 -40 42.5 -74
c0 -41.333 -24 -69.333 -72 -84c22 -4.66699 40.5 -15 55.5 -31s22.5 -35.333 22.5 -58c0 -36 -14.5 -62 -43.5 -78s-63.5 -24 -103.5 -24zM188.996 241c-22.667 0 -43.5 -4.5 -62.5 -13.5s-28.5 -23.833 -28.5 -44.5s8.83301 -35.834 26.5 -45.501s39.167 -14.5 64.5 -14.5
s47 4.83301 65 14.5s27 24.834 27 45.501s-9.66699 35.5 -29 44.5s-40.333 13.5 -63 13.5z" />
    <glyph glyph-name="nineinferior" unicode="&#x2089;" horiz-adv-x="371" 
d="M179 233c-25.333 0 -47.168 -5.5 -65.501 -16.5s-27.5 -28.833 -27.5 -53.5c0 -24 9.33301 -41.833 28 -53.5s40.334 -17.5 65.001 -17.5s46.5 6 65.5 18s28.833 29.333 29.5 52c0 24.667 -9.5 42.667 -28.5 54s-41.167 17 -66.5 17zM274.998 20v67
c-22.667 -23.333 -54.667 -35 -96 -35c-39.333 0 -72.5 8.66699 -99.5 26s-40.5 45.666 -40.5 84.999c0 37.333 13.833 65 41.5 83s60.5 27 98.5 27c39.333 0 72.833 -9.16699 100.5 -27.5s41.5 -46.166 41.5 -83.499v-142c0 -38 -13.167 -66.5 -39.5 -85.5
s-58.5 -28.5 -96.5 -28.5s-69.667 7.66699 -95 23s-39.333 38 -42 68h45c3.33301 -32 34 -48 92 -48c60 0 90 23.667 90 71z" />
    <glyph glyph-name="Euro" unicode="&#x20ac;" horiz-adv-x="614" 
d="M557 62l13.999 -48.001c-42 -14.667 -83.333 -22 -124 -22c-193.333 0 -307 93.333 -341 280h-64v46h58c-0.666992 4.66699 -1 14 -1 28s0.333008 24.333 1 31h-58v46h64c11.333 84.667 46.333 153.334 105 206.001s137.334 79 236.001 79c30.667 0 63.667 -5 99 -15
l-11 -43c-28.667 8 -58 12 -88 12c-165.333 0 -261 -79.667 -287 -239h273l-13 -46h-267c-0.666992 -6 -1 -15.667 -1 -29c0 -15.333 0.333008 -25.333 1 -30h253l-10 -46h-236c11.333 -74.667 41 -131.667 89 -171s114 -59 198 -59c37.333 0 74 6.66699 110 20z" />
    <glyph glyph-name="afii61289" unicode="&#x2113;" horiz-adv-x="404" 
d="M205 242l-0.00292969 -95.001c0 -29.333 12.333 -49.833 37 -61.5s55.667 -13.167 93 -4.5v-69c-67.333 -22 -122.666 -21.333 -165.999 2s-65 73 -65 149l-49 -24l-14 46c22.667 9.33301 43.334 19.333 62.001 30v333c0 60.667 11.333 103.667 34 129
s63.334 38 122.001 38c90 0 126.667 -64.333 110 -193c-11.333 -97.333 -66 -190.666 -164 -279.999zM201.997 547.999c0 -17.334 -0.166016 -54.833 -0.499023 -112.499c-0.333008 -57.667 -0.5 -99.167 -0.5 -124.5c71.333 82 111.333 155.333 120 220
c1.33789 18.667 2.6709 37.667 3.99902 57c1.33203 19.333 -3.33496 36.666 -14 51.999c-10.667 15.333 -27.334 23 -50 23c-18.667 0 -33.167 -11.5 -43.5 -34.5s-15.5 -49.833 -15.5 -80.5z" />
    <glyph glyph-name="uni2117" unicode="&#x2117;" horiz-adv-x="836" 
d="M418 713c112 0 200.167 -34.832 264.5 -104.499s96.5 -156.5 96.5 -260.5c0 -103.333 -32.167 -190 -96.5 -260s-152.5 -105 -264.5 -105c-111.333 0 -199.333 35 -264 105s-97 156.667 -97 260c0 104 32.333 190.833 97 260.499c64.667 69.667 152.667 104.5 264 104.5z
M108 348.001c0 -92 27.667 -168.333 83 -229s131 -91 227 -91s171.833 30.333 227.5 91s83.5 137 83.5 229c0 92.667 -27.833 169.334 -83.5 230.001s-131.5 91 -227.5 91s-171.667 -30.333 -227 -91s-83 -137.334 -83 -230.001zM463 286.001
c33.333 0 61.168 8.5 83.501 25.5s36 37.667 41 62s4.66699 48.833 -1 73.5s-19.334 45.5 -41.001 62.5s-48.167 25.5 -79.5 25.5h-170v-383h47v134h120zM343.002 328.001v161h123c20.667 0 37.834 -5.5 51.501 -16.5s22.167 -24.5 25.5 -40.5
s3.16602 -31.833 -0.500977 -47.5s-12.667 -29 -27 -40s-31.833 -16.5 -52.5 -16.5h-120z" />
    <glyph glyph-name="trademark" unicode="&#x2122;" horiz-adv-x="793" 
d="M176 420v240h-112v40h273v-40h-114v-240h-47zM391 420v280h44l115 -147l116 147h42v-280h-47v202l-108 -132h-9l-106 136v-206h-47z" />
    <glyph glyph-name="Omega" unicode="&#x2126;" horiz-adv-x="820" 
d="M484 0l-0.000976562 45.001c72 15.333 127.5 51.666 166.5 108.999s58.833 122.666 59.5 195.999c0.664062 88 -25.1689 161.833 -77.5 221.5c-52.333 59.667 -126.5 89.5 -222.5 89.5s-170.167 -29.833 -222.5 -89.5s-78.166 -133.5 -77.499 -221.5
c0.666992 -73.333 20.5 -138.666 59.5 -195.999s94.5 -93.666 166.5 -108.999v-45h-249v46l146 -2c-56.667 26 -100.167 66.667 -130.5 122s-45.5 117 -45.5 185c0 64.667 12.667 123.667 38 177s65.333 97.166 120 131.499s119.667 51.5 195 51.5
s140.333 -17.167 195 -51.5c54.667 -34.334 94.667 -78.167 120 -131.5s38 -112.333 38 -177c0 -68 -15.167 -129.667 -45.5 -185s-73.833 -96 -130.5 -122l146 2v-46h-249z" />
    <glyph glyph-name="estimated" unicode="&#x212e;" horiz-adv-x="650" 
d="M333 -7c-77.333 0 -141.329 26 -191.996 78s-76 124.667 -76 218c0 94.667 25.167 167.834 75.5 219.501s114.166 77.5 191.499 77.5c38.667 0 74.167 -5.66699 106.5 -17s61.333 -29 87 -53s44.667 -57.5 57 -100.5s16.166 -93.833 11.499 -152.5h-402v-170
c38.667 -35.333 85.667 -53 141 -53c83.333 0 146.666 31 189.999 93l37 -29c-28.667 -40.667 -61.334 -69.334 -98.001 -86.001s-79.667 -25 -129 -25zM332.004 539c-58 0 -104.667 -15.333 -140 -46v-183h283v186c-36.667 28.667 -84.334 43 -143 43z" />
    <glyph glyph-name="onethird" unicode="&#x2153;" horiz-adv-x="734" 
d="M558 165l-55.001 -0.00195312v43h51c22.667 0 42.667 4.5 60 13.5s26 23.167 26 42.5c0 14.667 -7.66699 27.834 -23 39.501s-36.333 17.5 -63 17.5c-21.335 0 -41.168 -5 -59.499 -15c-18.333 -10 -27.5 -26.667 -27.5 -50h-43c0 35.334 12.5 61.667 37.5 79
s55.833 26 92.499 26c36.668 0 67.835 -8.5 93.501 -25.5c25.667 -17 38.5 -41.167 38.5 -72.5c0 -20 -5.33301 -36.667 -16 -50s-24.667 -22.333 -42 -27c20 -5.33301 35.833 -15.666 47.5 -30.999s17.5 -31.333 17.5 -48c0 -73.333 -46.333 -110 -139 -110
c-38.667 0 -70.667 8.5 -96 25.5s-38.333 44.167 -39 81.5h48c0 -41.333 29.333 -62 88 -62c60.667 0 91 21.667 91 65c0 14 -7.33301 27.167 -22 39.5s-36.667 18.5 -66 18.5zM50.999 356.998v41h63v260l-55 -14v44l103 23v-313h65v-41h-176zM172.999 -2.00195h-53l371 705
h54z" />
    <glyph glyph-name="twothirds" unicode="&#x2154;" horiz-adv-x="815" 
d="M639 165l-55 -0.00195312v43h51c22.667 0 42.667 4.5 60 13.5s26 23.167 26 42.5c0 14.667 -7.66699 27.834 -23 39.501s-36.333 17.5 -63 17.5c-21.3359 0 -41.1689 -5 -59.5 -15c-18.333 -10 -27.5 -26.667 -27.5 -50h-43c0 35.334 12.5 61.667 37.5 79
s55.833 26 92.5 26c36.668 0 67.835 -8.5 93.5 -25.5c25.667 -17 38.5 -41.167 38.5 -72.5c0 -20 -5.33301 -36.667 -16 -50s-24.667 -22.333 -42 -27c20 -5.33301 35.833 -15.666 47.5 -30.999s17.5 -31.333 17.5 -48c0 -73.333 -46.333 -110 -139 -110
c-38.667 0 -70.667 8.5 -96 25.5c-25.335 17 -38.335 44.167 -39 81.5h48c0 -41.333 29.333 -62 88 -62c60.667 0 91 21.667 91 65c0 14 -7.33301 27.167 -22 39.5s-36.667 18.5 -66 18.5zM254 -2.00195h-53l371 705h54zM101 602.998h-46c0 70.667 45 106 135 106
c37.333 0 68.833 -8 94.5 -24s38.5 -43.333 38.5 -82c0 -72 -44 -108 -132 -108c-22 0 -42.667 -5 -62 -15s-29 -27.667 -29 -53v-32h212v-47h-259v80c0 34.667 13.5 61.5 40.5 80.5s59.5 28.5 97.5 28.5c56.667 0 85 22 85 66c0 42.667 -29 64 -87 64
c-27.333 0 -48.833 -4.33301 -64.5 -13s-23.5 -25.667 -23.5 -51z" />
    <glyph glyph-name="oneeighth" unicode="&#x215b;" horiz-adv-x="763" 
d="M51 357v41h63v260l-55 -14v44l104 23v-313h64v-41h-176zM173 -2h-53l371 705h54zM574 163c-25.335 0 -47.6699 -5.66699 -67.001 -17c-19.333 -11.333 -29 -28.333 -29 -51c0 -20.667 10.333 -36 31 -46c20.6689 -10 42.3359 -15 65.001 -15c22.667 0 44.334 5 65 15
c20.6689 10 31.3359 25.333 32 46c0 22.667 -9.83301 39.667 -29.5 51s-42.167 17 -67.5 17zM573.998 -8c-39.333 0 -73.5 8 -102.5 24s-43.833 42 -44.5 78c0 23.333 7.5 43 22.5 59s33.833 26.333 56.5 31c-48.667 15.333 -73 43 -73 83c0 33.333 14.333 57.833 43 73.5
s61.334 23.5 98.001 23.5c37.333 0 70.166 -7.66699 98.499 -23s42.5 -40 42.5 -74c0 -41.333 -24 -69.333 -72 -84c22 -4.66699 40.5 -15 55.5 -31s22.5 -35.333 22.5 -58c0 -36 -14.5 -62 -43.5 -78s-63.5 -24 -103.5 -24zM573.998 325
c-22.667 0 -43.5 -4.49902 -62.5 -13.499s-28.5 -23.833 -28.5 -44.5s8.83301 -35.834 26.5 -45.501s39.167 -14.5 64.5 -14.5s47 4.83301 65 14.5s27 24.834 27 45.5c0 20.667 -9.66699 35.5 -29 44.5s-40.333 13.5 -63 13.5z" />
    <glyph glyph-name="threeeighths" unicode="&#x215c;" horiz-adv-x="820" 
d="M185 510h-55.002v43h51c22.667 0 42.667 4.5 60 13.5s26 23.167 26 42.5c0 14.6689 -7.66699 27.8359 -23 39.5c-15.333 11.667 -36.333 17.5 -63 17.5c-21.333 0 -41.166 -5 -59.499 -15s-27.5 -26.667 -27.5 -50h-43c0 35.333 12.5 61.666 37.5 78.999
s55.833 26 92.5 26s67.834 -8.5 93.501 -25.5s38.5 -41.167 38.5 -72.5c0 -20 -5.33301 -36.667 -16 -50s-24.667 -22.333 -42 -27c20 -5.33496 35.833 -15.668 47.5 -30.999c11.667 -15.333 17.5 -31.333 17.5 -48c0 -73.333 -46.333 -110 -139 -110
c-38.667 0 -70.667 8.5 -96 25.5s-38.333 44.167 -39 81.5h48c0 -41.333 29.333 -62 88 -62c60.667 0 91 21.667 91 65c0 14 -7.33301 27.167 -22 39.5s-36.667 18.5 -66 18.5zM630.998 163c-25.335 0 -47.668 -5.66699 -67 -17c-19.333 -11.333 -29 -28.333 -29 -51
c0 -20.667 10.333 -36 31 -46c20.6689 -10 42.3359 -15 65 -15c22.6689 0 44.3359 5 65 15c20.6719 10 31.3389 25.333 32 46c0 22.667 -9.83301 39.667 -29.5 51s-42.167 17 -67.5 17zM630.998 -8c-39.333 0 -73.499 8 -102.499 24s-43.833 42 -44.5 78
c0 23.333 7.5 43 22.5 59s33.833 26.333 56.5 31c-48.667 15.333 -73 43 -73 83c0 33.333 14.333 57.833 43 73.5c28.668 15.667 61.335 23.5 98 23.5c37.333 0 70.166 -7.66699 98.499 -23s42.5 -40 42.5 -74c0 -41.333 -24 -69.333 -72 -84c22 -4.66699 40.5 -15 55.5 -31
s22.5 -35.333 22.5 -58c0 -36 -14.5 -62 -43.5 -78s-63.5 -24 -103.5 -24zM630.999 325c-22.667 0 -43.5 -4.49902 -62.5 -13.499s-28.5 -23.833 -28.5 -44.5s8.83301 -35.834 26.5 -45.501s39.167 -14.5 64.5 -14.5s47 4.83301 65 14.5s27 24.834 27 45.5
c0 20.667 -9.66699 35.5 -29 44.5s-40.333 13.5 -63 13.5zM238.999 -1.99902h-53l371 705h54z" />
    <glyph glyph-name="fiveeighths" unicode="&#x215d;" horiz-adv-x="825" 
d="M636 163c-25.3359 0 -47.6689 -5.66699 -67 -17c-19.333 -11.333 -29 -28.333 -29 -51c0 -20.667 10.333 -36 31 -46c20.6689 -10 42.3359 -15 65 -15c22.667 0 44.334 5 65 15c20.6689 10 31.3359 25.333 32 46c0 22.667 -9.83301 39.667 -29.5 51s-42.167 17 -67.5 17z
M636 -8c-39.333 0 -73.499 8 -102.499 24s-43.833 42 -44.5 78c0 23.333 7.5 43 22.5 59s33.833 26.333 56.5 31c-48.667 15.333 -73 43 -73 83c0 33.333 14.333 57.833 43 73.5c28.668 15.667 61.335 23.5 98 23.5c37.333 0 70.166 -7.66699 98.499 -23s42.5 -40 42.5 -74
c0 -41.333 -24 -69.333 -72 -84c22 -4.66699 40.5 -15 55.5 -31s22.5 -35.333 22.5 -58c0 -36 -14.5 -62 -43.5 -78s-63.5 -24 -103.5 -24zM636.001 325c-22.667 0 -43.5 -4.49902 -62.5 -13.499s-28.5 -23.833 -28.5 -44.5s8.83301 -35.834 26.5 -45.501
s39.167 -14.5 64.5 -14.5s47 4.83301 65 14.5s27 24.834 27 45.5c0 20.667 -9.66699 35.5 -29 44.5s-40.333 13.5 -63 13.5zM182.001 527.001l-126 -0.00195312v176h249v-43h-204v-91h81c47.333 0 83 -10.5 107 -31.5s36 -48.5 36 -82.5s-12.167 -61.333 -36.5 -82
s-59.5 -31 -105.5 -31c-38 0 -70 7.83301 -96 23.5s-39.333 41.834 -40 78.501h44c0 -39.333 30.667 -59 92 -59c63.333 0 95 23.333 95 70c0 18.667 -7 35.334 -21 50.001s-39 22 -75 22zM244.001 -2.00098h-53l371 705h54z" />
    <glyph glyph-name="seveneighths" unicode="&#x215e;" horiz-adv-x="744" 
d="M555 163c-25.333 0 -47.6689 -5.66699 -67.002 -17s-29 -28.333 -29 -51c0 -20.667 10.333 -36 31 -46s42.334 -15 65.001 -15c22.6689 0 44.3359 5 65 15c20.6719 10 31.3389 25.333 32.001 46c0 22.667 -9.83301 39.667 -29.5 51s-42.167 17 -67.5 17zM554.997 -8
c-39.334 0 -73.5 8 -102.5 24s-43.833 42 -44.5 78c0 23.333 7.5 43 22.5 59s33.833 26.333 56.5 31c-48.667 15.333 -73 43 -73 83c0 33.333 14.333 57.833 43 73.5s61.334 23.5 98.001 23.5c37.333 0 70.166 -7.66699 98.499 -23s42.5 -40 42.5 -74
c0 -41.333 -24 -69.333 -72 -84c22 -4.66699 40.5 -15 55.5 -31s22.5 -35.333 22.5 -58c0 -36 -14.5 -62 -43.5 -78s-63.5 -24 -103.5 -24zM554.998 325c-22.667 0 -43.5 -4.49902 -62.5 -13.499s-28.5 -23.833 -28.5 -44.5s8.83301 -35.834 26.5 -45.501
s39.167 -14.5 64.5 -14.5s47 4.83301 65 14.5s27 24.834 27 45.5c0 20.667 -9.66699 35.5 -29 44.5s-40.333 13.5 -63 13.5zM40.998 659.001v43h259l4 -22l-182 -334h-55l173 313h-199zM162.998 -1.99902h-53l371 705h54z" />
    <glyph glyph-name="arrowleft" unicode="&#x2190;" horiz-adv-x="645" 
d="M260 140l-211 211l211 211l29 -28l-156 -159h443v-49h-442l155 -158z" />
    <glyph glyph-name="arrowup" unicode="&#x2191;" horiz-adv-x="490" 
d="M34 404l211 211l211 -211l-28 -29l-159 156v-443h-49v442l-158 -155z" />
    <glyph glyph-name="arrowright" unicode="&#x2192;" horiz-adv-x="645" 
d="M385 562l211 -211l-211 -211l-29 28l156 159h-443v49h442l-155 158z" />
    <glyph glyph-name="arrowdown" unicode="&#x2193;" horiz-adv-x="492" 
d="M457 288l-211 -211l-211 211l28 29l159 -156v443h49v-442l158 155z" />
    <glyph glyph-name="uni2196" unicode="&#x2196;" horiz-adv-x="501" 
d="M68 239v299h299v-41l-222 -2l313 -313l-35 -35l-312 313l-2 -221h-41z" />
    <glyph glyph-name="uni2197" unicode="&#x2197;" horiz-adv-x="501" 
d="M433 538v-299h-41l-2 221l-312 -313l-35 35l313 313l-222 2v41h299z" />
    <glyph glyph-name="uni2198" unicode="&#x2198;" horiz-adv-x="547" 
d="M440 462v-299h-299v41l222 2l-313 313l35 35l312 -313l2 221h41z" />
    <glyph glyph-name="uni2199" unicode="&#x2199;" horiz-adv-x="547" 
d="M107 163v299h41l2 -221l312 313l35 -35l-313 -313l222 -2v-41h-299z" />
    <glyph glyph-name="partialdiff" unicode="&#x2202;" horiz-adv-x="608" 
d="M569 253c1.33301 -78.667 -21.167 -142.33 -67.5 -190.997s-108.5 -73 -186.5 -73c-46.667 0 -88.167 9.16699 -124.5 27.5s-64 42.166 -83 71.499s-32.833 61.666 -41.5 96.999s-8.66699 70.833 0 106.5s22.5 68.167 41.5 97.5c19 29.334 46.667 53.167 83 71.5
s77.833 27.5 124.5 27.5c69.333 0 131 -27 185 -81c-20 59.333 -56.833 111.666 -110.5 156.999s-111.5 76 -173.5 92l14 42c223.333 -76 336.333 -224.333 339 -445zM315 35.0039c37.334 0 70.666 7.5 99.999 22.5s51.5 34.5 66.5 58.5s26 50.5 33 79.5s7 58 0 87
s-18 55.5 -33 79.5s-37.167 43.5 -66.5 58.5s-62.666 22.5 -99.999 22.5s-70.666 -7.5 -99.999 -22.5s-51.5 -34.5 -66.5 -58.5s-26 -50.5 -33 -79.5s-7 -58 0 -87s18 -55.5 33 -79.5s37.167 -43.5 66.5 -58.5s62.666 -22.5 99.999 -22.5z" />
    <glyph glyph-name="Delta" unicode="&#x2206;" horiz-adv-x="743" 
d="M401 700l314 -700h-687l314 700h59zM371 648l-264 -601h529z" />
    <glyph glyph-name="product" unicode="&#x220f;" horiz-adv-x="681" 
d="M584 -188h-54v839h-379v-839h-54v888h487v-888z" />
    <glyph glyph-name="summation" unicode="&#x2211;" horiz-adv-x="575" 
d="M335 367l-219 -314h405v-53h-485v23l240 345l-222 313v19h461v-50h-375z" />
    <glyph glyph-name="minus" unicode="&#x2212;" horiz-adv-x="529" 
d="M77 313v51h375v-51h-375z" />
    <glyph glyph-name="uni2215" unicode="&#x2215;" horiz-adv-x="419" 
d="M51 -2h-53l371 705h54z" />
    <glyph glyph-name="uni2219" unicode="&#x2219;" horiz-adv-x="225" 
d="M73 310c0 12 4.16699 21.5 12.5 28.5s17.333 10.5 27 10.5s18.667 -3.5 27 -10.5s12.5 -16.5 12.5 -28.5s-4.16699 -21.5 -12.5 -28.5c-8.33398 -7 -17.334 -10.5 -27 -10.5c-9.66699 0 -18.667 3.5 -27 10.5s-12.5 16.5 -12.5 28.5z" />
    <glyph glyph-name="radical" unicode="&#x221a;" horiz-adv-x="616" 
d="M601 698l-239 -698h-55l-168 364l-96 -43l-18 42l154 68l156 -363l221 642z" />
    <glyph glyph-name="infinity" unicode="&#x221e;" horiz-adv-x="803" 
d="M233 217c16.667 0 33.1602 4.16797 49.4932 12.501s28.333 15.666 36 21.999s20.5 19.5 38.5 39.5s28.333 31.667 31 35c-1.33301 1.33594 -5.66602 6.66895 -12.999 16c-7.33301 9.33301 -12.166 15.333 -14.499 18l-14 16c-7 8 -12.333 13.5 -16 16.5
s-9 7.66699 -16 14s-13.167 10.833 -18.5 13.5s-11.666 5.66699 -18.999 9c-7.33301 3.33984 -14.5 5.67285 -21.5 7c-7 1.33301 -14.5 2 -22.5 2c-30 0 -55.167 -7.5 -75.5 -22.5s-33.166 -33.167 -38.499 -54.5s-5.66602 -42.833 -0.999023 -64.5
s17.334 -40.167 38.001 -55.5s46.334 -23.333 77.001 -24zM586.993 217.001c30.6689 0.666992 56.3359 8.66699 77 24c20.6719 15.333 33.3389 33.833 38 55.5c4.66699 21.667 4.33398 43.167 -0.999023 64.5c-5.33496 21.333 -18.168 39.5 -38.5 54.5
c-20.333 15 -45.5 22.5 -75.5 22.5c-16.667 0 -32.834 -4 -48.501 -12s-28 -16.5 -37 -25.5s-21 -22 -36 -39s-25.833 -28.833 -32.5 -35.5c5.33496 -4.66699 18.668 -19 40 -43c21.334 -24 40.334 -41 57 -51c16.667 -10 35.667 -15 57 -15zM230.993 171.001
c-30 0 -56.834 5.66602 -80.501 16.999s-41.5 26.166 -53.5 44.499s-20.667 38.666 -26 60.999c-5.33301 22.334 -5 44.667 1 67c6 22.334 15.333 42.667 28 61c12.667 18.334 30.834 33.167 54.501 44.499c23.667 11.333 50.5 17 80.5 17c33.333 0 63.5 -10.5 90.5 -31.5
s55.5 -50.167 85.5 -87.5c29.334 36.667 57.667 65.667 84.999 87c27.333 21.333 56.666 32 87.999 32c30 0 56.833 -5.66699 80.5 -17c23.6689 -11.333 41.8359 -26.166 54.5 -44.499c12.667 -18.333 22 -38.666 28 -60.999s6.33301 -44.666 1 -66.999
s-14 -42.666 -26 -60.999c-12 -18.334 -29.833 -33.167 -53.5 -44.5s-50.5 -17 -80.5 -17c-33.334 0 -63.667 10.167 -90.999 30.5c-27.333 20.333 -56 48.833 -86 85.5c-30 -37.333 -58.667 -66 -86 -86s-58.666 -30 -93.999 -30z" />
    <glyph glyph-name="integral" unicode="&#x222b;" horiz-adv-x="445" 
d="M192 -1v535c0 112.667 49.333 169 148 169c35.333 0 68 -11.333 98 -34l-24 -36c-28 16.667 -53.333 25 -76 25c-65.333 0 -98 -41.333 -98 -124v-535c0 -54.667 -9.83301 -96.667 -29.5 -126s-54.834 -44 -105.501 -44c-31.333 0 -62.666 11.667 -93.999 35l23 34
c20.667 -16.667 45 -25 73 -25c30.667 0 52.5 10 65.5 30s19.5 52 19.5 96z" />
    <glyph glyph-name="approxequal" unicode="&#x2248;" horiz-adv-x="558" 
d="M111 384l-33 24.001c17.333 25.334 39 42.167 65 50.499c26 8.31934 57 7.15234 93 -3.5l101 -41c52 -17.333 88 -7 108 31l36 -21c-29.333 -58 -79.333 -75.667 -150 -53l-109 43c-46 15.333 -83 5.33301 -111 -30zM111 192.001l-33 24
c17.333 25.333 39 42.166 65 50.499c26 8.3252 57 7.1582 93 -3.5l101 -42c51.333 -17.333 87.333 -6.66602 108 32.001l36 -21c-29.333 -58 -79.333 -75.667 -150 -53l-109 43c-46 15.333 -83 5.33301 -111 -30z" />
    <glyph glyph-name="notequal" unicode="&#x2260;" horiz-adv-x="552" 
d="M75 193v49h132l94 148h-226v50h257l43 67l29 -17l-32 -50h102v-50h-133l-93 -148h226v-49h-257l-45 -72l-30 17l34 55h-101z" />
    <glyph glyph-name="lessequal" unicode="&#x2264;" horiz-adv-x="451" 
d="M85 429l243 156l22 -35l-221 -140l225 -152l-27 -34l-242 166v39zM80 101v44h291v-44h-291z" />
    <glyph glyph-name="greaterequal" unicode="&#x2265;" horiz-adv-x="451" 
d="M123 585l243 -156v-39l-242 -166l-27 34l225 152l-221 140zM371 145v-44h-291v44h291z" />
    </font>
</defs>
</svg>
